<svg width="193" height="115" viewBox="0 0 193 115" fill="none" xmlns="http://www.w3.org/2000/svg">
<g clip-path="url(#clip0_72_56)">
<path d="M39.7711 113.667H186.082C190.504 113.667 193.045 110.08 191.756 105.656L163.585 8.92162C162.297 4.49783 157.668 0.914307 153.245 0.914307H6.92631C2.50363 0.914307 -0.0371306 4.49783 1.25179 8.92162L29.4227 105.656C30.7116 110.08 35.3402 113.667 39.7711 113.667Z" fill="#F8F8F8"/>
<path d="M186.074 114.578H39.7713C34.978 114.578 29.95 110.689 28.5582 105.928L0.374919 9.17703C-0.345722 6.70564 -0.0368763 4.35782 1.30146 2.58666C2.53684 0.914347 4.55463 -0.00830078 6.92656 -0.00830078H153.237C158.031 -0.00830078 163.063 3.88002 164.45 8.64157L192.625 105.376C193.346 107.847 193.037 110.199 191.699 111.966C190.443 113.659 188.429 114.578 186.074 114.578ZM6.94305 1.82465C5.15998 1.82465 3.68162 2.48782 2.77979 3.69057C1.81207 4.97981 1.58559 6.75095 2.14563 8.66628L30.3 105.401C31.4819 109.458 35.7275 112.753 39.7713 112.753H186.082C187.865 112.753 189.348 112.09 190.249 110.887C191.217 109.598 191.439 107.831 190.879 105.911L162.709 9.17703C161.531 5.12395 157.281 1.82465 153.237 1.82465H6.94305Z" fill="black"/>
<path d="M46.916 27.8896H38.8448C37.9039 27.8472 36.9987 27.5161 36.2524 26.9413C35.5061 26.3665 34.9548 25.5759 34.6733 24.6768L32.322 16.6036C32.1796 16.1612 32.1427 15.6917 32.2142 15.2325C32.2857 14.7733 32.4636 14.3373 32.7338 13.9592C33.005 13.6136 33.3534 13.3364 33.751 13.1497C34.1485 12.963 34.5843 12.872 35.0234 12.8841H43.0657C44.0111 12.9246 44.9207 13.2567 45.6698 13.8349C46.4189 14.4131 46.9707 15.209 47.2496 16.1134L49.6009 24.1866C49.7436 24.6289 49.7807 25.0985 49.7092 25.5578C49.6377 26.017 49.4596 26.4531 49.1891 26.831C48.9179 27.1713 48.5714 27.444 48.177 27.6277C47.7826 27.8114 47.3509 27.901 46.916 27.8896ZM35.0069 14.7089C34.8523 14.7 34.6978 14.7266 34.5551 14.7866C34.4124 14.8465 34.2852 14.9383 34.1833 15.0548C34.0882 15.2086 34.0295 15.382 34.0117 15.5619C33.9938 15.7418 34.0173 15.9234 34.0804 16.0928L36.4317 24.166C36.6012 24.6873 36.922 25.1462 37.3532 25.4844C37.7844 25.8226 38.3066 26.0247 38.8531 26.0649H46.9242C47.0792 26.0738 47.2341 26.0469 47.377 25.9862C47.5198 25.9254 47.6467 25.8326 47.7478 25.7148C47.8432 25.5612 47.9021 25.3877 47.9199 25.2077C47.9378 25.0278 47.9141 24.8461 47.8508 24.6768L45.4994 16.6036C45.3293 16.0831 45.0082 15.625 44.577 15.2876C44.1459 14.9502 43.6241 14.7488 43.0781 14.7089H35.0069Z" fill="black"/>
<path d="M30.0693 27.8896H21.9981C21.0579 27.8464 20.1537 27.5149 19.4082 26.9402C18.6627 26.3655 18.112 25.5752 17.8308 24.6768L15.4753 16.6036C15.3329 16.1612 15.296 15.6917 15.3675 15.2325C15.439 14.7733 15.6169 14.3373 15.8871 13.9592C16.1592 13.6135 16.5083 13.3363 16.9065 13.1497C17.3048 12.963 17.7412 12.872 18.1808 12.8841H26.2478C27.1882 12.9304 28.0914 13.2652 28.8348 13.8429C29.5782 14.4207 30.1257 15.2135 30.4029 16.1134L32.7542 24.1866C32.8969 24.6289 32.934 25.0985 32.8625 25.5578C32.791 26.017 32.6129 26.4531 32.3424 26.831C32.0708 27.1708 31.7243 27.4432 31.3299 27.6268C30.9356 27.8105 30.5042 27.9004 30.0693 27.8896ZM18.1643 14.7089C18.0098 14.6997 17.8551 14.7262 17.7124 14.7861C17.5696 14.8461 17.4425 14.938 17.3407 15.0548C17.2436 15.2077 17.1836 15.3813 17.1657 15.5616C17.1479 15.7418 17.1725 15.9238 17.2378 16.0928L19.5891 24.166C19.7578 24.6869 20.0779 25.1458 20.5084 25.484C20.9389 25.8222 21.4604 26.0244 22.0064 26.0649H30.0776C30.2326 26.0741 30.3876 26.0474 30.5305 25.9866C30.6734 25.9259 30.8003 25.8328 30.9012 25.7148C30.9986 25.562 31.0588 25.3884 31.0766 25.2081C31.0945 25.0278 31.0697 24.8457 31.0041 24.6768L28.6527 16.6036C28.4826 16.0831 28.1615 15.625 27.7304 15.2876C27.2992 14.9502 26.7774 14.7488 26.2314 14.7089H18.1643Z" fill="black"/>
<path d="M52.2897 46.3386H44.2185C43.278 46.2966 42.3733 45.9661 41.627 45.3921C40.8808 44.818 40.3291 44.0283 40.047 43.13L37.7121 35.0608C37.5697 34.6185 37.5328 34.149 37.6043 33.6898C37.6758 33.2306 37.8538 32.7945 38.1239 32.4165C38.3951 32.0709 38.7435 31.7937 39.1411 31.607C39.5387 31.4203 39.9744 31.3293 40.4135 31.3414H48.4847C49.4253 31.3829 50.3303 31.7131 51.0767 32.2872C51.823 32.8613 52.3745 33.6514 52.6561 34.5501L55.0075 42.6233C55.1502 43.0656 55.1873 43.5352 55.1158 43.9945C55.0443 44.4537 54.8662 44.8898 54.5957 45.2677C54.3224 45.6148 53.9712 45.8926 53.5706 46.0787C53.1699 46.2647 52.7311 46.3538 52.2897 46.3386ZM40.3805 33.1579C40.2259 33.1481 40.0711 33.1743 39.9282 33.2343C39.7853 33.2943 39.6583 33.3866 39.557 33.5039C39.4616 33.6575 39.4027 33.8309 39.3848 34.0109C39.367 34.1908 39.3907 34.3725 39.454 34.5419L41.8054 42.6151C41.975 43.1358 42.296 43.5942 42.7273 43.9317C43.1585 44.2692 43.6806 44.4704 44.2267 44.5098H52.2979C52.4525 44.5196 52.6074 44.4934 52.7502 44.4334C52.8931 44.3734 53.0202 44.2811 53.1215 44.1638C53.2169 44.0102 53.2757 43.8367 53.2936 43.6568C53.3114 43.4768 53.2878 43.2952 53.2244 43.1258L50.8896 35.0608C50.7194 34.5404 50.3983 34.0823 49.9672 33.7449C49.536 33.4075 49.0142 33.206 48.4682 33.1661L40.3805 33.1579Z" fill="black"/>
<path d="M35.4472 46.3386H27.3761C26.4355 46.2971 25.5304 45.9669 24.7841 45.3928C24.0377 44.8187 23.4862 44.0286 23.2046 43.13L20.8532 35.0609C20.7108 34.6185 20.6739 34.149 20.7454 33.6898C20.8169 33.2306 20.9949 32.7945 21.265 32.4165C21.5371 32.0708 21.8862 31.7936 22.2845 31.6069C22.6827 31.4203 23.1191 31.3293 23.5587 31.3414H31.6258C32.5664 31.3829 33.4714 31.7131 34.2178 32.2872C34.9642 32.8613 35.5156 33.6514 35.7973 34.5501L38.1486 42.6233C38.291 43.0657 38.3279 43.5352 38.2564 43.9944C38.1849 44.4536 38.007 44.8896 37.7368 45.2677C37.465 45.6123 37.1164 45.8885 36.7189 46.0745C36.3214 46.2604 35.8859 46.3509 35.4472 46.3386ZM23.5381 33.1579C23.3835 33.1478 23.2285 33.1738 23.0856 33.2339C22.9427 33.2939 22.8157 33.3863 22.7146 33.5039C22.6174 33.6567 22.5574 33.8303 22.5395 34.0106C22.5217 34.1909 22.5464 34.3729 22.6116 34.5419L24.9629 42.6151C25.1321 43.1361 25.4529 43.5948 25.8843 43.9324C26.3157 44.2699 26.838 44.471 27.3843 44.5098H35.4555C35.6102 44.5202 35.7652 44.4943 35.9082 44.4343C36.0512 44.3742 36.1782 44.2816 36.2791 44.1638C36.3763 44.0109 36.4362 43.8374 36.4541 43.6571C36.4719 43.4768 36.4473 43.2948 36.382 43.1258L34.0266 35.0609C33.8564 34.5404 33.5353 34.0823 33.1042 33.7449C32.673 33.4075 32.1512 33.206 31.6052 33.1661L23.5381 33.1579Z" fill="black"/>
<path d="M45.7543 50.7129H53.8255C54.5685 50.7552 55.2811 51.0219 55.8693 51.4779C56.4575 51.9338 56.8936 52.5576 57.1199 53.2667L59.4712 61.3399C59.883 62.7486 59.0594 63.8936 57.6634 63.8936H49.5922C48.8493 63.8514 48.1366 63.5846 47.5484 63.1287C46.9602 62.6727 46.5242 62.049 46.2979 61.3399L43.9465 53.2667C43.5347 51.8456 44.346 50.7129 45.7543 50.7129Z" fill="#F8F8F8"/>
<path d="M28.9122 50.7129H36.9793C37.7221 50.7557 38.4345 51.0227 39.0226 51.4786C39.6107 51.9344 40.0468 52.5579 40.2736 53.2667L42.625 61.3399C43.0368 62.7486 42.2132 63.8936 40.8131 63.8936H32.7708C32.028 63.8508 31.3156 63.5839 30.7275 63.128C30.1394 62.6721 29.7032 62.0487 29.4764 61.3399L27.125 53.2667C26.6927 51.8456 27.4998 50.7129 28.9122 50.7129Z" fill="#F8F8F8"/>
<path d="M51.1284 69.1538H59.1995C59.9426 69.1955 60.6556 69.462 61.2439 69.9181C61.8322 70.3741 62.2681 70.9982 62.4939 71.7076L64.8452 79.7808C65.257 81.1895 64.4334 82.3304 63.0374 82.3304H54.9663C54.2237 82.289 53.5111 82.0231 52.9228 81.5678C52.3346 81.1126 51.8984 80.4894 51.6719 79.7808L49.3206 71.7199C48.9088 70.2948 49.72 69.1538 51.1284 69.1538Z" fill="#F8F8F8"/>
<path d="M34.2862 69.1538H42.3533C43.0963 69.1961 43.8089 69.4628 44.3971 69.9188C44.9853 70.3747 45.4214 70.9985 45.6477 71.7076L47.999 79.7808C48.4108 81.1895 47.5872 82.3304 46.1871 82.3304H38.1242C37.3817 82.2885 36.6694 82.0223 36.0813 81.5672C35.4931 81.112 35.0568 80.4891 34.8298 79.7808L32.4743 71.7199C32.0667 70.2948 32.8738 69.1538 34.2862 69.1538Z" fill="#F8F8F8"/>
<path d="M56.5022 87.6069H64.5734C65.316 87.6483 66.0286 87.9142 66.6168 88.3695C67.2051 88.8248 67.6413 89.448 67.8678 90.1566L70.2191 98.2298C70.6309 99.6426 69.8073 100.784 68.4114 100.784H60.3607C59.6176 100.742 58.9047 100.475 58.3164 100.019C57.7281 99.5633 57.2922 98.9392 57.0664 98.2298L54.715 90.1566C54.2826 88.7479 55.0939 87.6069 56.5022 87.6069Z" fill="#F8F8F8"/>
<path d="M39.6599 87.6069H47.727C48.4694 87.6489 49.1817 87.915 49.7699 88.3702C50.358 88.8254 50.7943 89.4483 51.0213 90.1566L53.3727 98.2298C53.7845 99.6426 52.9609 100.784 51.5608 100.784H43.4978C42.7549 100.741 42.0422 100.475 41.454 100.019C40.8658 99.5626 40.4298 98.9389 40.2035 98.2298L37.8521 90.1566C37.4403 88.7479 38.2474 87.6069 39.6599 87.6069Z" fill="#F8F8F8"/>
<path d="M175.804 101.698H80.8684C80.6704 101.698 80.4777 101.634 80.3194 101.515C80.1611 101.396 80.0459 101.229 79.9913 101.039L54.6577 14.0539C54.6179 13.9179 54.6104 13.7745 54.6359 13.6351C54.6613 13.4958 54.7189 13.3643 54.804 13.2511C54.8892 13.1379 54.9996 13.0461 55.1265 12.9831C55.2533 12.9201 55.3931 12.8876 55.5348 12.8882H150.47C150.668 12.8883 150.86 12.9527 151.018 13.0715C151.176 13.1903 151.292 13.3573 151.347 13.5472L176.681 100.532C176.72 100.668 176.726 100.812 176.701 100.951C176.675 101.09 176.617 101.222 176.532 101.335C176.448 101.449 176.338 101.54 176.211 101.603C176.085 101.666 175.945 101.699 175.804 101.698ZM81.5519 99.8729H174.589L149.786 14.7088H56.7496L81.5519 99.8729Z" fill="black"/>
<path d="M159.068 78.5078C158.866 78.5086 158.67 78.4403 158.512 78.3142L137.482 62.003C136.729 61.3952 135.862 60.9445 134.932 60.6778C134.001 60.4111 133.027 60.3337 132.067 60.4502C131.378 60.5393 130.716 60.7679 130.119 61.122C129.522 61.4761 129.003 61.9483 128.595 62.5097L123.197 70.1051C122.838 70.6061 122.381 71.0282 121.854 71.3456C121.326 71.663 120.739 71.8688 120.129 71.9504C119.355 72.0483 118.569 71.9894 117.819 71.7771C117.068 71.5648 116.368 71.2035 115.76 70.7147L91.612 51.9857C90.8596 51.3768 89.9925 50.9255 89.0622 50.6588C88.1319 50.392 87.1575 50.3151 86.1969 50.4328C85.5086 50.5217 84.8457 50.7502 84.2487 51.1043C83.6518 51.4584 83.1335 51.9308 82.7255 52.4923L81.2883 54.5106C81.1485 54.7078 80.9361 54.8413 80.6979 54.8819C80.4596 54.9225 80.215 54.8667 80.0179 54.7269C79.8208 54.587 79.6873 54.3746 79.6467 54.1363C79.6062 53.898 79.6619 53.6533 79.8017 53.4561L81.2347 51.4337C81.7855 50.6704 82.4856 50.027 83.2926 49.5427C84.0997 49.0583 84.9967 48.7432 85.9292 48.6163C87.1332 48.4645 88.3555 48.5562 89.5234 48.8859C90.6913 49.2156 91.781 49.7767 92.7279 50.5358L116.876 69.2648C117.29 69.601 117.768 69.8508 118.281 69.9994C118.794 70.1479 119.331 70.1923 119.861 70.1298C120.228 70.0832 120.581 69.9619 120.899 69.7735C121.217 69.5851 121.493 69.3334 121.71 69.0341L127.105 61.4346C127.655 60.6709 128.355 60.0273 129.162 59.5429C129.969 59.0586 130.866 58.7436 131.799 58.6172C133.003 58.4654 134.225 58.5571 135.393 58.8868C136.561 59.2165 137.651 59.7776 138.598 60.5367L159.628 76.8479C159.783 76.9634 159.898 77.1251 159.955 77.3097C160.012 77.4944 160.01 77.6924 159.948 77.8755C159.885 78.0586 159.767 78.2172 159.609 78.3286C159.451 78.44 159.261 78.4984 159.068 78.4955V78.5078Z" fill="black"/>
<path d="M132.38 49.0653C126.104 49.0653 119.507 43.9701 117.683 37.701C116.744 34.4758 117.168 31.4484 118.873 29.1747C120.491 27.0163 123.073 25.8301 126.145 25.8301C132.425 25.8301 139.018 30.9252 140.842 37.1902C141.781 40.4154 141.361 43.4429 139.656 45.7165C138.034 47.8625 135.452 49.0653 132.38 49.0653ZM126.145 27.6465C123.674 27.6465 121.615 28.5733 120.331 30.2621C118.98 32.0662 118.663 34.5253 119.437 37.182C121.051 42.7262 126.849 47.2323 132.38 47.2323C134.851 47.2323 136.91 46.3014 138.194 44.6168C139.549 42.8127 139.866 40.3536 139.092 37.6928C137.478 32.1486 131.671 27.6465 126.145 27.6465Z" fill="black"/>
</g>
<defs>
<clipPath id="clip0_72_56">
<rect width="193" height="114.578" fill="white"/>
</clipPath>
</defs>
</svg>
