<svg width="236" height="136" viewBox="0 0 236 136" fill="none" xmlns="http://www.w3.org/2000/svg">
<g clip-path="url(#clip0_75_372)">
<path d="M83.9806 35.7061L93.7896 43.8461L40.6963 100.959L29.8631 107.807C29.8631 107.807 34.7882 96.5117 35.1646 96.0318L83.9806 35.7061Z" fill="#F8F8F8"/>
<path d="M29.4472 107.807C29.4472 107.75 29.4587 107.694 29.481 107.642C30.3068 105.749 34.4472 96.2744 34.8348 95.7778L83.6603 35.4445C83.6945 35.4023 83.7368 35.3671 83.7847 35.3412C83.8326 35.3152 83.8851 35.299 83.9393 35.2933C83.9939 35.2879 84.049 35.2933 84.1014 35.3093C84.1538 35.3253 84.2025 35.3516 84.2446 35.3867L94.0535 43.5267C94.0967 43.5619 94.1321 43.6056 94.1576 43.655C94.1831 43.7045 94.198 43.7587 94.2014 43.8142C94.2047 43.8699 94.1968 43.9257 94.1781 43.9782C94.1595 44.0308 94.1305 44.0792 94.0928 44.1204L40.9977 101.237C40.9745 101.264 40.9473 101.287 40.9172 101.306L30.0821 108.154C30.0198 108.193 29.9481 108.215 29.8746 108.217C29.8011 108.219 29.7283 108.201 29.6639 108.166C29.5995 108.13 29.5458 108.078 29.5083 108.015C29.4709 107.952 29.4511 107.88 29.451 107.807L29.4472 107.807ZM84.0348 36.2884L35.4847 96.2894C35.2075 96.6926 32.6907 102.37 30.7768 106.744L40.4303 100.639L93.1921 43.8833L84.0348 36.2884Z" fill="black"/>
<path d="M83.9806 35.7061L93.7896 43.8461L82.0331 56.4949L73.0743 49.1856L83.9806 35.7061Z" fill="#F8F8F8"/>
<path d="M72.6623 49.1836C72.6618 49.09 72.6935 48.9991 72.7521 48.926L83.6603 35.4445C83.6945 35.4023 83.7368 35.3671 83.7847 35.3412C83.8326 35.3152 83.8851 35.299 83.9393 35.2933C83.9939 35.2879 84.049 35.2933 84.1014 35.3093C84.1538 35.3253 84.2025 35.3516 84.2446 35.3867L94.0535 43.5267C94.0967 43.5619 94.1321 43.6056 94.1576 43.655C94.1831 43.7045 94.198 43.7587 94.2014 43.8142C94.2047 43.8699 94.1968 43.9257 94.1781 43.9782C94.1595 44.0308 94.1305 44.0792 94.0928 44.1204L82.3345 56.7692C82.2631 56.8452 82.1655 56.8915 82.0613 56.8987C81.9571 56.906 81.854 56.8737 81.7727 56.8084L72.8139 49.4992C72.767 49.4609 72.7291 49.4127 72.7029 49.3582C72.6767 49.3037 72.6628 49.2441 72.6623 49.1836ZM84.0386 36.2884L73.651 49.1258L81.9936 55.9309L93.1921 43.8833L84.0386 36.2884Z" fill="black"/>
<path d="M89.6867 18.6903C83.8665 25.7419 82.4957 31.4287 83.8684 35.7638L93.8046 43.9206L93.8309 43.9206C98.4226 44.4565 103.829 42.0163 109.709 34.8919C118.437 24.3155 120.685 1.35913 120.685 1.35913C120.685 1.35913 98.4151 8.11386 89.6867 18.6903Z" fill="black"/>
<path d="M235.585 73.9122L224.35 33.3564L0.408951 95.0212L11.6443 135.577L235.585 73.9122Z" fill="#F8F8F8"/>
<path d="M2.78038e-05 95.0329C1.25489e-05 94.9431 0.0294773 94.8558 0.0839206 94.7843C0.138379 94.7129 0.214795 94.6611 0.301526 94.637L224.242 32.9633C224.347 32.9349 224.459 32.949 224.554 33.0025C224.647 33.0581 224.714 33.1471 224.742 33.2508L235.978 73.8072C236.006 73.9119 235.992 74.0237 235.939 74.1182C235.885 74.2126 235.796 74.2821 235.691 74.3113L11.7584 135.985C11.653 136.013 11.5407 135.999 11.4456 135.946C11.3527 135.891 11.2854 135.802 11.2584 135.697L0.022504 95.1411C0.0104038 95.1061 0.00285068 95.0698 2.78038e-05 95.0329ZM224.064 33.8651L0.919507 95.3185L11.9363 135.085L235.081 73.6298L224.064 33.8651Z" fill="black"/>
<path d="M31.4119 120.332C31.4124 120.233 31.4493 120.136 31.5157 120.062C31.5821 119.987 31.6736 119.939 31.7729 119.927C31.8722 119.914 31.9727 119.939 32.0555 119.995C32.1383 120.051 32.1977 120.135 32.2227 120.232L34.44 128.99C34.4563 129.043 34.4616 129.099 34.4556 129.154C34.4496 129.209 34.4324 129.263 34.405 129.311C34.3777 129.36 34.3407 129.402 34.2964 129.436C34.2521 129.47 34.2014 129.494 34.1473 129.508C34.0932 129.522 34.0369 129.524 33.9818 129.515C33.9267 129.507 33.8739 129.487 33.8267 129.457C33.7795 129.428 33.7387 129.389 33.707 129.343C33.6753 129.297 33.6533 129.246 33.6422 129.191L31.4231 120.433C31.4157 120.4 31.4119 120.366 31.4119 120.332Z" fill="black"/>
<path d="M36.9979 118.684C36.9988 118.584 37.0365 118.487 37.1039 118.413C37.1713 118.338 37.2637 118.291 37.3637 118.279C37.4637 118.268 37.5643 118.294 37.6467 118.351C37.729 118.409 37.7873 118.495 37.8107 118.592L39.8706 127.505C39.8829 127.558 39.8847 127.612 39.8758 127.666C39.867 127.719 39.8477 127.77 39.8191 127.816C39.7905 127.862 39.7531 127.902 39.7091 127.933C39.6651 127.964 39.6153 127.987 39.5625 127.999C39.5098 128.011 39.4551 128.013 39.4017 128.004C39.3482 127.996 39.2971 127.976 39.2511 127.948C39.2051 127.919 39.1652 127.882 39.1336 127.838C39.1021 127.794 39.0795 127.745 39.0672 127.692L37.0073 118.777C37.0013 118.746 36.9982 118.715 36.9979 118.684Z" fill="black"/>
<path d="M42.2523 117.347C42.2509 117.246 42.287 117.148 42.3536 117.072C42.4202 116.995 42.5127 116.946 42.6134 116.934C42.714 116.921 42.8158 116.946 42.8991 117.004C42.9825 117.062 43.0415 117.148 43.065 117.246L45.2823 126.004C45.2986 126.057 45.3039 126.113 45.2979 126.169C45.2919 126.224 45.2747 126.278 45.2473 126.326C45.2199 126.374 45.183 126.417 45.1387 126.451C45.0944 126.485 45.0436 126.509 44.9895 126.523C44.9355 126.536 44.8792 126.539 44.8241 126.53C44.769 126.522 44.7162 126.502 44.6689 126.472C44.6217 126.443 44.581 126.404 44.5493 126.358C44.5176 126.312 44.4956 126.26 44.4845 126.206L42.2654 117.448C42.2575 117.415 42.2531 117.381 42.2523 117.347Z" fill="black"/>
<path d="M46.5407 114.016C46.5412 113.916 46.5785 113.819 46.6458 113.744C46.713 113.669 46.8054 113.622 46.9055 113.61C47.0056 113.599 47.1065 113.624 47.189 113.682C47.2716 113.739 47.33 113.825 47.3534 113.923L49.8178 124.322C49.8371 124.426 49.8155 124.533 49.7575 124.622C49.6996 124.71 49.6096 124.773 49.5064 124.797C49.4033 124.821 49.2948 124.804 49.2035 124.751C49.1122 124.697 49.0452 124.61 49.0163 124.509L46.55 114.11C46.5443 114.079 46.5411 114.048 46.5407 114.016Z" fill="black"/>
<path d="M67.8101 110.31C67.8106 110.211 67.8475 110.114 67.9139 110.04C67.9803 109.965 68.0718 109.917 68.1711 109.905C68.2704 109.892 68.3709 109.917 68.4536 109.973C68.5364 110.029 68.5959 110.113 68.6209 110.21L70.8325 118.966C70.8489 119.019 70.8542 119.075 70.8482 119.13C70.8422 119.185 70.825 119.239 70.7976 119.287C70.7702 119.336 70.7333 119.378 70.689 119.412C70.6446 119.446 70.5939 119.47 70.5398 119.484C70.4858 119.498 70.4295 119.5 70.3743 119.492C70.3192 119.483 70.2665 119.463 70.2192 119.434C70.172 119.404 70.1313 119.365 70.0996 119.319C70.0679 119.274 70.0458 119.222 70.0348 119.167L67.8157 110.409C67.8103 110.377 67.8084 110.343 67.8101 110.31Z" fill="black"/>
<path d="M71.8122 105.953C71.8122 105.852 71.8493 105.755 71.9163 105.68C71.9834 105.605 72.0759 105.557 72.1761 105.545C72.2763 105.533 72.3774 105.559 72.4601 105.616C72.5429 105.674 72.6015 105.76 72.6249 105.858L75.374 117.282C75.3933 117.386 75.3717 117.493 75.3137 117.581C75.2557 117.67 75.1658 117.732 75.0626 117.757C74.9594 117.781 74.8509 117.764 74.7596 117.71C74.6684 117.657 74.6013 117.57 74.5725 117.468L71.8234 106.044C71.8164 106.014 71.8127 105.984 71.8122 105.953Z" fill="black"/>
<path d="M52.2072 114.164C52.2077 114.064 52.2446 113.968 52.311 113.893C52.3775 113.819 52.4689 113.771 52.5682 113.758C52.6675 113.746 52.768 113.77 52.8508 113.826C52.9335 113.882 52.993 113.966 53.0181 114.063L55.2371 122.819C55.2503 122.872 55.253 122.926 55.2451 122.979C55.2371 123.033 55.2187 123.084 55.1909 123.13C55.1631 123.177 55.1264 123.217 55.0829 123.249C55.0394 123.281 54.99 123.305 54.9375 123.318C54.885 123.331 54.8304 123.334 54.7769 123.326C54.7234 123.318 54.6719 123.299 54.6255 123.272C54.579 123.244 54.5386 123.207 54.5063 123.164C54.4741 123.121 54.4507 123.071 54.4375 123.019L52.2203 114.261C52.2117 114.229 52.2073 114.197 52.2072 114.164Z" fill="black"/>
<path d="M57.7934 112.515C57.7943 112.415 57.832 112.318 57.8994 112.244C57.9667 112.169 58.0591 112.122 58.1591 112.111C58.2591 112.099 58.3597 112.125 58.4421 112.183C58.5244 112.24 58.5828 112.326 58.6061 112.424L60.666 121.339C60.6908 121.445 60.6723 121.556 60.6146 121.649C60.5568 121.742 60.4645 121.808 60.3579 121.832C60.2514 121.857 60.1394 121.839 60.0465 121.781C59.9536 121.723 59.8875 121.631 59.8626 121.525L57.8027 112.61C57.7956 112.579 57.7925 112.547 57.7934 112.515Z" fill="black"/>
<path d="M63.1551 111.587C63.1542 111.486 63.1906 111.389 63.2574 111.313C63.3242 111.237 63.4166 111.188 63.5172 111.176C63.6177 111.164 63.7192 111.189 63.8023 111.246C63.8855 111.304 63.9444 111.39 63.9678 111.488L66.1851 120.246C66.2019 120.3 66.2077 120.356 66.2019 120.412C66.1962 120.467 66.1791 120.521 66.1517 120.57C66.1243 120.619 66.0872 120.662 66.0426 120.696C65.998 120.73 65.9469 120.755 65.8925 120.768C65.838 120.782 65.7813 120.784 65.7259 120.775C65.6705 120.766 65.6175 120.746 65.5702 120.716C65.5229 120.686 65.4823 120.646 65.4508 120.6C65.4194 120.553 65.3978 120.501 65.3873 120.446L63.1682 111.688C63.1593 111.655 63.1549 111.621 63.1551 111.587Z" fill="black"/>
<path d="M77.2689 107.592C77.2699 107.492 77.3076 107.395 77.3749 107.321C77.4423 107.246 77.5347 107.199 77.6347 107.188C77.7347 107.176 77.8353 107.202 77.9177 107.26C78 107.317 78.0583 107.403 78.0817 107.501L80.1416 116.415C80.1539 116.468 80.1557 116.522 80.1468 116.576C80.138 116.629 80.1187 116.68 80.0901 116.726C80.0615 116.772 80.0241 116.812 79.9801 116.843C79.9361 116.874 79.8863 116.897 79.8335 116.909C79.7808 116.921 79.7261 116.923 79.6727 116.914C79.6192 116.906 79.5681 116.886 79.5221 116.858C79.4761 116.829 79.4362 116.792 79.4046 116.748C79.3731 116.704 79.3505 116.655 79.3382 116.602L77.2783 107.687C77.2713 107.656 77.2682 107.624 77.2689 107.592Z" fill="black"/>
<path d="M82.5236 106.255C82.5245 106.156 82.5617 106.06 82.6283 105.985C82.6949 105.911 82.7863 105.864 82.8855 105.851C82.9847 105.839 83.085 105.864 83.1676 105.92C83.2502 105.976 83.3095 106.06 83.3345 106.156L85.5536 114.914C85.5801 115.02 85.5635 115.132 85.5073 115.226C85.4511 115.319 85.36 115.386 85.2539 115.413C85.1479 115.439 85.0357 115.423 84.9419 115.367C84.8481 115.311 84.7805 115.22 84.7539 115.114L82.5367 106.356C82.5278 106.323 82.5234 106.289 82.5236 106.255Z" fill="black"/>
<path d="M88.1098 104.607C88.1087 104.505 88.1455 104.406 88.2131 104.33C88.2807 104.254 88.3743 104.205 88.4757 104.194C88.5771 104.183 88.6792 104.209 88.7621 104.268C88.845 104.328 88.9028 104.416 88.9244 104.515L90.9843 113.43C91.0092 113.536 90.9907 113.648 90.9329 113.741C90.8751 113.833 90.7828 113.899 90.6763 113.924C90.5698 113.949 90.4577 113.93 90.3648 113.873C90.2719 113.815 90.2058 113.723 90.181 113.617L88.1211 104.704C88.1135 104.672 88.1097 104.639 88.1098 104.607Z" fill="black"/>
<path d="M93.3664 103.27C93.3669 103.17 93.4038 103.074 93.4702 102.999C93.5366 102.925 93.628 102.877 93.7274 102.864C93.8267 102.852 93.9272 102.876 94.0099 102.932C94.0927 102.988 94.1522 103.073 94.1772 103.169L96.3963 111.929C96.4095 111.982 96.4122 112.036 96.4042 112.089C96.3963 112.143 96.3779 112.194 96.3501 112.24C96.3222 112.287 96.2855 112.327 96.2421 112.359C96.1986 112.391 96.1492 112.415 96.0967 112.428C96.0442 112.441 95.9896 112.443 95.9361 112.436C95.8825 112.428 95.8311 112.409 95.7847 112.382C95.7382 112.354 95.6977 112.317 95.6655 112.274C95.6332 112.231 95.6099 112.181 95.5967 112.129L93.3776 103.371C93.3702 103.338 93.3664 103.304 93.3664 103.27Z" fill="black"/>
<path d="M97.6526 99.9394C97.6531 99.8389 97.6905 99.7421 97.7577 99.6672C97.8249 99.5924 97.9173 99.5447 98.0174 99.5332C98.1176 99.5217 98.2184 99.5472 98.3009 99.6048C98.3835 99.6625 98.442 99.7483 98.4654 99.846L100.93 110.245C100.945 110.299 100.949 110.354 100.942 110.41C100.935 110.465 100.917 110.518 100.888 110.566C100.86 110.613 100.822 110.655 100.777 110.688C100.732 110.721 100.681 110.744 100.627 110.757C100.573 110.77 100.517 110.771 100.462 110.761C100.407 110.752 100.355 110.731 100.308 110.701C100.261 110.67 100.221 110.631 100.19 110.585C100.16 110.538 100.138 110.486 100.128 110.432L97.6639 100.042C97.6558 100.008 97.652 99.9739 97.6526 99.9394Z" fill="black"/>
<path d="M118.922 96.2315C118.923 96.1317 118.96 96.0355 119.026 95.9609C119.093 95.8862 119.184 95.8383 119.283 95.8259C119.383 95.8136 119.483 95.8377 119.566 95.8938C119.649 95.9499 119.708 96.0341 119.733 96.1307L121.956 104.896C121.968 104.949 121.97 105.003 121.961 105.057C121.952 105.11 121.933 105.161 121.905 105.207C121.876 105.253 121.839 105.292 121.795 105.324C121.751 105.355 121.701 105.378 121.648 105.39C121.595 105.402 121.541 105.404 121.487 105.395C121.434 105.386 121.383 105.367 121.337 105.339C121.291 105.31 121.251 105.273 121.219 105.229C121.188 105.185 121.165 105.135 121.153 105.083L118.935 96.3324C118.926 96.2995 118.922 96.2656 118.922 96.2315Z" fill="black"/>
<path d="M122.926 91.8778C122.926 91.7856 122.956 91.6959 123.014 91.6234C123.071 91.5509 123.151 91.4997 123.241 91.4783C123.347 91.453 123.459 91.4708 123.553 91.5278C123.646 91.5849 123.713 91.6765 123.739 91.7826L126.486 103.205C126.501 103.258 126.505 103.314 126.498 103.369C126.491 103.424 126.473 103.477 126.444 103.525C126.416 103.573 126.378 103.615 126.333 103.648C126.289 103.68 126.237 103.704 126.183 103.717C126.129 103.729 126.073 103.731 126.018 103.721C125.963 103.711 125.911 103.691 125.864 103.66C125.817 103.63 125.777 103.591 125.747 103.544C125.716 103.498 125.695 103.446 125.684 103.391L122.937 91.973C122.93 91.9418 122.926 91.9099 122.926 91.8778Z" fill="black"/>
<path d="M103.321 100.087C103.322 99.9873 103.359 99.8914 103.426 99.817C103.492 99.7427 103.584 99.6951 103.683 99.683C103.782 99.6709 103.882 99.6951 103.965 99.7512C104.048 99.8073 104.107 99.8915 104.132 99.9879L106.349 108.746C106.365 108.799 106.371 108.855 106.365 108.91C106.359 108.966 106.342 109.019 106.314 109.068C106.287 109.116 106.25 109.159 106.206 109.192C106.161 109.226 106.111 109.251 106.056 109.264C106.002 109.278 105.946 109.281 105.891 109.272C105.836 109.263 105.783 109.243 105.736 109.214C105.689 109.184 105.648 109.145 105.616 109.1C105.585 109.054 105.562 109.002 105.551 108.948L103.332 100.188C103.325 100.155 103.321 100.121 103.321 100.087Z" fill="black"/>
<path d="M108.905 98.4382C108.904 98.3365 108.941 98.2379 109.009 98.1617C109.076 98.0854 109.17 98.0369 109.271 98.0255C109.373 98.0141 109.475 98.0407 109.557 98.1C109.64 98.1594 109.698 98.2473 109.72 98.3467L111.78 107.262C111.792 107.314 111.794 107.369 111.785 107.422C111.776 107.475 111.757 107.526 111.728 107.572C111.7 107.618 111.662 107.658 111.618 107.689C111.574 107.721 111.524 107.743 111.472 107.755C111.419 107.768 111.364 107.769 111.311 107.761C111.257 107.752 111.206 107.733 111.16 107.704C111.114 107.676 111.074 107.638 111.043 107.594C111.011 107.55 110.989 107.501 110.976 107.448L108.916 98.5353C108.909 98.5035 108.905 98.4709 108.905 98.4382Z" fill="black"/>
<path d="M114.278 97.5105C114.279 97.4108 114.316 97.3149 114.383 97.2406C114.45 97.1663 114.541 97.1187 114.64 97.1066C114.739 97.0945 114.84 97.1187 114.922 97.1748C115.005 97.2309 115.064 97.3151 115.089 97.4115L117.308 106.17C117.335 106.275 117.319 106.387 117.263 106.481C117.207 106.575 117.116 106.642 117.01 106.669C116.903 106.696 116.791 106.679 116.697 106.623C116.603 106.568 116.535 106.477 116.509 106.371L114.278 97.615C114.275 97.5803 114.275 97.5452 114.278 97.5105Z" fill="black"/>
<path d="M128.381 93.5169C128.382 93.4166 128.42 93.3201 128.487 93.2456C128.555 93.1711 128.647 93.1237 128.747 93.1125C128.847 93.1012 128.948 93.1268 129.03 93.1845C129.112 93.2421 129.171 93.3278 129.194 93.4254L131.254 102.338C131.266 102.391 131.268 102.445 131.259 102.499C131.25 102.552 131.231 102.603 131.202 102.649C131.174 102.695 131.136 102.735 131.092 102.766C131.048 102.797 130.999 102.82 130.946 102.832C130.893 102.844 130.838 102.846 130.785 102.837C130.732 102.829 130.68 102.809 130.634 102.781C130.588 102.752 130.548 102.715 130.517 102.671C130.485 102.627 130.463 102.578 130.451 102.525L128.391 93.6102C128.384 93.5796 128.381 93.5483 128.381 93.5169Z" fill="black"/>
<path d="M133.637 92.1801C133.637 92.0895 133.666 92.0013 133.721 91.9291C133.776 91.8569 133.853 91.8047 133.941 91.7805C134.047 91.7545 134.159 91.7713 134.252 91.8272C134.346 91.8832 134.414 91.9738 134.441 92.0792L136.66 100.837C136.687 100.943 136.67 101.055 136.614 101.149C136.558 101.242 136.467 101.31 136.361 101.337C136.255 101.363 136.143 101.347 136.049 101.291C135.955 101.235 135.887 101.145 135.86 101.039L133.649 92.2809C133.641 92.2478 133.637 92.214 133.637 92.1801Z" fill="black"/>
<path d="M139.224 90.5297C139.224 90.4372 139.256 90.3475 139.313 90.275C139.371 90.2026 139.452 90.1516 139.542 90.1302C139.595 90.118 139.649 90.1163 139.703 90.1252C139.756 90.1341 139.807 90.1535 139.853 90.1821C139.899 90.2107 139.939 90.248 139.97 90.292C140.002 90.3359 140.024 90.3856 140.036 90.4383L142.096 99.3531C142.111 99.4065 142.116 99.4625 142.108 99.5176C142.101 99.5726 142.083 99.6257 142.055 99.6736C142.026 99.7214 141.989 99.763 141.944 99.7959C141.899 99.8288 141.848 99.8523 141.794 99.8649C141.739 99.8776 141.683 99.8791 141.628 99.8694C141.573 99.8598 141.521 99.8391 141.474 99.8087C141.428 99.7783 141.388 99.7388 141.357 99.6926C141.326 99.6464 141.305 99.5944 141.295 99.5398L139.235 90.625C139.227 90.5938 139.223 90.5618 139.224 90.5297Z" fill="black"/>
<path d="M144.478 89.193C144.479 89.1018 144.51 89.0133 144.566 88.9414C144.622 88.8694 144.701 88.8181 144.789 88.7954C144.896 88.7688 145.008 88.7853 145.102 88.8413C145.196 88.8973 145.264 88.9882 145.291 89.0941L147.508 97.8521C147.525 97.9055 147.531 97.9617 147.525 98.0174C147.519 98.0731 147.502 98.1271 147.475 98.1759C147.448 98.2248 147.41 98.2675 147.366 98.3016C147.321 98.3356 147.27 98.3602 147.216 98.3738C147.161 98.3875 147.105 98.3899 147.049 98.3809C146.994 98.3719 146.941 98.3517 146.893 98.3215C146.846 98.2914 146.805 98.2519 146.774 98.2055C146.743 98.1591 146.721 98.1068 146.711 98.0518L144.491 89.2939C144.483 89.2608 144.479 89.227 144.478 89.193Z" fill="black"/>
<path d="M148.767 85.8641C148.767 85.7717 148.798 85.682 148.855 85.6095C148.913 85.5371 148.993 85.486 149.083 85.4646C149.189 85.4393 149.301 85.4572 149.394 85.5143C149.488 85.5713 149.554 85.6629 149.579 85.7689L152.044 96.1679C152.056 96.2209 152.057 96.2757 152.048 96.3293C152.039 96.3829 152.02 96.4341 151.99 96.4801C151.961 96.5261 151.924 96.5659 151.879 96.5972C151.834 96.6285 151.784 96.6508 151.731 96.6627C151.678 96.6751 151.624 96.6771 151.57 96.6684C151.517 96.6598 151.466 96.6406 151.42 96.6122C151.374 96.5837 151.334 96.5465 151.303 96.5026C151.271 96.4587 151.249 96.4091 151.237 96.3565L148.77 85.9574C148.766 85.9265 148.765 85.8953 148.767 85.8641Z" fill="black"/>
<path d="M170.036 82.1545C170.036 82.0632 170.067 81.9745 170.123 81.9025C170.179 81.8305 170.258 81.7793 170.347 81.7568C170.453 81.7308 170.565 81.7476 170.659 81.8036C170.752 81.8595 170.82 81.9501 170.847 82.0556L173.066 90.8136C173.092 90.9192 173.075 91.0309 173.019 91.1243C172.963 91.2177 172.872 91.2852 172.766 91.312C172.661 91.3386 172.549 91.3223 172.455 91.2667C172.361 91.211 172.293 91.1206 172.266 91.0152L170.047 82.2553C170.04 82.2222 170.036 82.1884 170.036 82.1545Z" fill="black"/>
<path d="M174.038 77.8006C174.038 77.7084 174.07 77.6191 174.127 77.5467C174.185 77.4743 174.264 77.4231 174.354 77.4011C174.46 77.3758 174.572 77.3937 174.666 77.4508C174.759 77.5078 174.825 77.5994 174.85 77.7054L177.6 89.1294C177.624 89.2354 177.606 89.3468 177.549 89.4394C177.492 89.5321 177.4 89.5985 177.294 89.6242C177.188 89.6494 177.076 89.6316 176.983 89.5745C176.89 89.5174 176.823 89.4258 176.798 89.3199L174.049 77.8977C174.042 77.8658 174.038 77.8333 174.038 77.8006Z" fill="black"/>
<path d="M154.433 86.0116C154.433 85.9202 154.463 85.8314 154.52 85.7593C154.576 85.6873 154.655 85.6361 154.744 85.614C154.796 85.6005 154.851 85.5976 154.904 85.6052C154.958 85.6129 155.009 85.6311 155.056 85.6586C155.102 85.6862 155.143 85.7227 155.175 85.766C155.207 85.8093 155.231 85.8585 155.244 85.9108L157.463 94.6688C157.49 94.7745 157.473 94.8865 157.417 94.9802C157.361 95.0738 157.27 95.1415 157.164 95.1682C157.058 95.195 156.946 95.1786 156.852 95.1228C156.758 95.0669 156.69 94.9761 156.663 94.8704L154.446 86.1124C154.437 86.0796 154.433 86.0457 154.433 86.0116Z" fill="black"/>
<path d="M160.019 84.3594C160.021 84.2662 160.053 84.1761 160.113 84.1039C160.172 84.0317 160.254 83.9816 160.345 83.9618C160.452 83.9378 160.564 83.9569 160.656 84.015C160.749 84.0731 160.815 84.1654 160.839 84.2717L162.899 93.1846C162.924 93.2909 162.906 93.4026 162.848 93.4952C162.79 93.5878 162.698 93.6537 162.591 93.6785C162.485 93.7032 162.373 93.6848 162.28 93.6272C162.187 93.5696 162.121 93.4776 162.096 93.3713L160.036 84.4565C160.026 84.425 160.021 84.3924 160.019 84.3594Z" fill="black"/>
<path d="M165.388 83.4352C165.388 83.3439 165.419 83.2553 165.475 83.1833C165.532 83.1113 165.61 83.06 165.699 83.0376C165.752 83.0241 165.806 83.0211 165.86 83.0288C165.914 83.0364 165.965 83.0546 166.012 83.0821C166.058 83.1097 166.099 83.1462 166.132 83.1895C166.164 83.2328 166.188 83.282 166.201 83.3344L168.418 92.0924C168.432 92.1448 168.435 92.1993 168.427 92.2528C168.419 92.3063 168.401 92.3577 168.373 92.4042C168.346 92.4507 168.309 92.4913 168.266 92.5236C168.222 92.556 168.173 92.5795 168.12 92.5928C168.068 92.6059 168.013 92.6086 167.96 92.6007C167.906 92.5928 167.855 92.5745 167.808 92.5467C167.762 92.519 167.721 92.4824 167.689 92.439C167.657 92.3957 167.634 92.3464 167.62 92.2941L165.401 83.5361C165.392 83.5032 165.388 83.4693 165.388 83.4352Z" fill="black"/>
<path d="M179.495 79.4399C179.495 79.3473 179.526 79.2574 179.584 79.1849C179.642 79.1123 179.723 79.0614 179.813 79.0404C179.866 79.0282 179.92 79.0265 179.974 79.0354C180.027 79.0443 180.078 79.0636 180.124 79.0922C180.17 79.1208 180.21 79.1582 180.241 79.2021C180.273 79.2461 180.295 79.2958 180.307 79.3484L182.367 88.2632C182.38 88.3157 182.381 88.3701 182.372 88.4232C182.363 88.4763 182.344 88.5271 182.315 88.5728C182.287 88.6184 182.249 88.6579 182.205 88.6891C182.161 88.7202 182.111 88.7424 182.058 88.7542C182.006 88.7667 181.951 88.7685 181.898 88.7597C181.844 88.7509 181.793 88.7316 181.747 88.7029C181.702 88.6743 181.662 88.6368 181.631 88.5927C181.6 88.5487 181.578 88.4989 181.566 88.4462L179.506 79.5314C179.498 79.5015 179.495 79.4707 179.495 79.4399Z" fill="black"/>
<path d="M184.749 78.1032C184.749 78.0113 184.78 77.9221 184.838 77.85C184.895 77.7778 184.974 77.727 185.064 77.7056C185.117 77.6928 185.172 77.6907 185.225 77.6992C185.279 77.7077 185.33 77.7268 185.376 77.7553C185.422 77.7838 185.462 77.8211 185.494 77.8651C185.526 77.9092 185.548 77.959 185.56 78.0118L187.779 86.7697C187.806 86.8754 187.789 86.9871 187.733 87.0808C187.678 87.1744 187.587 87.2424 187.482 87.2701C187.375 87.2962 187.263 87.2794 187.169 87.2235C187.075 87.1676 187.007 87.077 186.98 86.9714L184.763 78.1984C184.754 78.1674 184.75 78.1354 184.749 78.1032Z" fill="black"/>
<path d="M190.336 76.4545C190.336 76.3617 190.368 76.2716 190.426 76.199C190.484 76.1265 190.565 76.0757 190.656 76.055C190.709 76.0428 190.763 76.0412 190.817 76.0501C190.87 76.059 190.921 76.0783 190.967 76.1069C191.013 76.1355 191.053 76.1728 191.084 76.2168C191.116 76.2608 191.138 76.3105 191.15 76.3631L193.21 85.276C193.222 85.3286 193.224 85.3831 193.215 85.4363C193.206 85.4896 193.187 85.5405 193.158 85.5863C193.129 85.6321 193.092 85.6718 193.048 85.7031C193.004 85.7344 192.954 85.7568 192.901 85.7689C192.848 85.7811 192.794 85.7828 192.74 85.7739C192.687 85.765 192.636 85.7456 192.59 85.717C192.544 85.6884 192.504 85.6511 192.473 85.6071C192.441 85.5632 192.419 85.5135 192.407 85.4608L190.347 76.546C190.339 76.5161 190.336 76.4854 190.336 76.4545Z" fill="black"/>
<path d="M195.592 75.1159C195.592 75.0246 195.623 74.936 195.679 74.864C195.735 74.7919 195.814 74.7407 195.903 74.7183C196.009 74.6922 196.121 74.709 196.214 74.765C196.308 74.8209 196.376 74.9115 196.403 75.017L198.622 83.775C198.648 83.8807 198.631 83.9924 198.575 84.0857C198.519 84.1791 198.428 84.2466 198.322 84.2735C198.218 84.3009 198.106 84.2861 198.013 84.2322C197.919 84.1784 197.851 84.0899 197.822 83.9859L195.603 75.2112C195.596 75.1799 195.592 75.148 195.592 75.1159Z" fill="black"/>
<path d="M199.879 71.7871C199.879 71.6945 199.91 71.6046 199.968 71.5321C200.026 71.4596 200.107 71.4087 200.197 71.3876C200.25 71.3751 200.304 71.3731 200.357 71.3817C200.411 71.3902 200.462 71.4092 200.508 71.4374C200.554 71.4657 200.593 71.5027 200.625 71.5464C200.657 71.5901 200.679 71.6395 200.691 71.6919L203.156 82.0929C203.18 82.198 203.162 82.3085 203.106 82.4006C203.05 82.4928 202.959 82.5592 202.854 82.5857C202.748 82.611 202.636 82.5931 202.543 82.536C202.45 82.479 202.383 82.3874 202.358 82.2814L199.894 71.8824C199.885 71.8513 199.88 71.8194 199.879 71.7871Z" fill="black"/>
<path d="M221.148 68.0792C221.148 67.9879 221.179 67.8993 221.235 67.8273C221.291 67.7553 221.37 67.704 221.459 67.6816C221.511 67.6682 221.566 67.6652 221.619 67.6729C221.673 67.6805 221.724 67.6987 221.771 67.7263C221.817 67.7539 221.858 67.7904 221.89 67.8336C221.922 67.8769 221.946 67.9261 221.959 67.9784L224.178 76.7364C224.205 76.8419 224.188 76.9536 224.132 77.047C224.077 77.1405 223.986 77.2081 223.88 77.2349C223.828 77.2484 223.773 77.2513 223.719 77.2437C223.666 77.2361 223.614 77.2179 223.567 77.1903C223.521 77.1628 223.48 77.1263 223.448 77.083C223.415 77.0397 223.392 76.9904 223.378 76.9381L221.161 68.1801C221.152 68.1472 221.148 68.1133 221.148 68.0792Z" fill="black"/>
<path d="M225.152 63.7238C225.152 63.6317 225.183 63.5425 225.241 63.4704C225.298 63.3983 225.378 63.3475 225.468 63.3261C225.521 63.3133 225.575 63.311 225.628 63.3193C225.682 63.3276 225.733 63.3464 225.779 63.3745C225.825 63.4026 225.865 63.4395 225.897 63.4831C225.929 63.5267 225.952 63.5762 225.964 63.6286L228.711 75.0526C228.724 75.105 228.727 75.1593 228.718 75.2126C228.71 75.2658 228.691 75.3169 228.663 75.3629C228.635 75.4089 228.598 75.4488 228.554 75.4805C228.51 75.5122 228.461 75.5349 228.408 75.5474C228.355 75.5602 228.301 75.5625 228.247 75.5542C228.194 75.546 228.142 75.5272 228.096 75.4991C228.05 75.4711 228.01 75.4341 227.978 75.3905C227.946 75.3469 227.923 75.2974 227.91 75.2449L225.163 63.8227C225.155 63.7903 225.151 63.7571 225.152 63.7238Z" fill="black"/>
<path d="M205.545 71.9346C205.545 71.8434 205.576 71.7549 205.632 71.6829C205.689 71.611 205.767 71.5596 205.856 71.5369C205.962 71.5103 206.074 71.5265 206.168 71.5822C206.262 71.6378 206.33 71.7282 206.358 71.8338L208.575 80.5936C208.602 80.6981 208.587 80.8089 208.532 80.9022C208.478 80.9954 208.389 81.0637 208.285 81.0921C208.232 81.1053 208.178 81.108 208.124 81.1001C208.07 81.0922 208.019 81.0738 207.973 81.0461C207.926 81.0183 207.886 80.9817 207.853 80.9384C207.821 80.895 207.798 80.8458 207.785 80.7934L205.558 72.0373C205.549 72.0038 205.545 71.9693 205.545 71.9346Z" fill="black"/>
<path d="M211.131 70.2861C211.132 70.1932 211.163 70.1031 211.222 70.0306C211.28 69.958 211.361 69.9072 211.452 69.8866C211.504 69.8744 211.559 69.8727 211.612 69.8816C211.666 69.8905 211.717 69.9098 211.763 69.9384C211.809 69.967 211.849 70.0044 211.88 70.0483C211.911 70.0923 211.934 70.142 211.946 70.1946L214.006 79.1094C214.03 79.2154 214.011 79.3265 213.953 79.4185C213.895 79.5106 213.803 79.576 213.697 79.6004C213.59 79.6245 213.479 79.6056 213.386 79.5479C213.293 79.4902 213.228 79.3984 213.203 79.2924L211.143 70.3776C211.135 70.3476 211.131 70.3169 211.131 70.2861Z" fill="black"/>
<path d="M216.502 69.3583C216.502 69.267 216.533 69.1783 216.589 69.1063C216.645 69.0343 216.724 68.983 216.813 68.9606C216.865 68.9475 216.92 68.9448 216.973 68.9527C217.027 68.9606 217.079 68.9789 217.125 69.0067C217.171 69.0344 217.212 69.071 217.244 69.1143C217.276 69.1577 217.3 69.207 217.313 69.2593L219.532 78.0117C219.558 78.1174 219.541 78.2291 219.485 78.3225C219.429 78.4158 219.338 78.4833 219.232 78.5102C219.18 78.5233 219.125 78.526 219.072 78.5181C219.018 78.5102 218.967 78.4919 218.92 78.4641C218.874 78.4364 218.833 78.3998 218.801 78.3565C218.769 78.3131 218.745 78.2638 218.732 78.2115L216.515 69.4535C216.507 69.4224 216.502 69.3904 216.502 69.3583Z" fill="black"/>
<path d="M152.497 39.4492L142.351 25.8987L14.957 121.083C13.603 122.095 13.3895 124.328 14.4888 126.542C15.7913 129.176 17.5687 131.548 19.7322 133.541C21.5487 135.221 23.7527 135.647 25.1067 134.635L152.497 39.4492Z" fill="#F8F8F8"/>
<path d="M13.3761 123.771C13.3761 122.507 13.8293 121.412 14.7094 120.754L142.105 25.5702C142.193 25.5048 142.302 25.4766 142.411 25.4918C142.464 25.4993 142.516 25.5173 142.563 25.5449C142.609 25.5725 142.65 25.609 142.682 25.6524L152.826 39.2048C152.892 39.2919 152.92 39.4015 152.905 39.5093C152.897 39.5627 152.879 39.6141 152.851 39.6605C152.824 39.7069 152.787 39.7475 152.744 39.7798L25.3498 134.964C23.8217 136.105 21.3947 135.644 19.4472 133.844C17.2509 131.815 15.4454 129.403 14.1195 126.727C13.6481 125.811 13.3937 124.8 13.3761 123.771ZM142.268 26.4832L15.2038 121.421C14.0015 122.321 13.8573 124.356 14.8573 126.37C16.1394 128.956 17.8847 131.287 20.0071 133.248C21.6588 134.775 23.6531 135.214 24.8554 134.316L151.918 39.3653L142.268 26.4832Z" fill="black"/>
<path d="M42.3553 106.373C42.3551 106.309 42.3698 106.246 42.3984 106.189C42.4271 106.132 42.4688 106.082 42.5201 106.044L96.3643 65.8129C96.4517 65.7475 96.5615 65.7194 96.6697 65.7348C96.7779 65.7502 96.8755 65.8079 96.9411 65.895C96.9735 65.9382 96.9971 65.9873 97.0105 66.0395C97.024 66.0918 97.0269 66.1461 97.0193 66.1995C97.0116 66.2529 96.9935 66.3043 96.966 66.3507C96.9384 66.3971 96.9019 66.4377 96.8586 66.47L43.0145 106.702C42.9533 106.747 42.8805 106.775 42.8043 106.782C42.7281 106.789 42.6515 106.774 42.5831 106.74C42.5146 106.706 42.4571 106.654 42.4169 106.589C42.3766 106.524 42.3553 106.449 42.3553 106.373Z" fill="black"/>
<path d="M108.512 56.9429C108.512 56.8791 108.527 56.8161 108.555 56.759C108.584 56.7019 108.626 56.6524 108.677 56.6143L132.05 39.1525C132.093 39.1199 132.142 39.0961 132.194 39.0826C132.247 39.0691 132.302 39.0661 132.355 39.0737C132.409 39.0813 132.46 39.0995 132.507 39.1271C132.553 39.1547 132.594 39.1913 132.626 39.2346C132.691 39.3219 132.719 39.4314 132.704 39.539C132.688 39.6467 132.631 39.744 132.544 39.8097L109.171 57.2715C109.084 57.3369 108.974 57.3649 108.866 57.3495C108.758 57.3341 108.66 57.2765 108.595 57.1894C108.542 57.1179 108.513 57.0317 108.512 56.9429Z" fill="black"/>
<path d="M30.3422 123.047C30.3419 122.983 30.3567 122.92 30.3853 122.863C30.414 122.806 30.4556 122.756 30.507 122.718L120.036 55.8264C120.079 55.7941 120.129 55.7706 120.181 55.7572C120.233 55.7438 120.287 55.7409 120.341 55.7485C120.394 55.7562 120.446 55.7742 120.492 55.8017C120.538 55.8291 120.579 55.8654 120.611 55.9085C120.644 55.9516 120.668 56.0007 120.681 56.053C120.695 56.1053 120.698 56.1597 120.69 56.2132C120.683 56.2666 120.664 56.3181 120.637 56.3645C120.609 56.4109 120.572 56.4514 120.529 56.4836L31.0014 123.379C30.914 123.445 30.8041 123.473 30.6959 123.457C30.5878 123.442 30.4902 123.384 30.4246 123.297C30.3699 123.225 30.3409 123.137 30.3422 123.047Z" fill="black"/>
<path d="M175.767 17.1259L175.752 17.139C174.587 16.2055 173.224 14.5551 172.293 13.3135C171.484 12.2804 170.828 11.1367 170.345 9.91748L142.368 25.8857C144.193 31.3771 147.753 36.1317 152.514 39.4381L175.767 17.1259Z" fill="#F8F8F8"/>
<path d="M141.956 25.8856C141.956 25.8132 141.975 25.7421 142.012 25.6795C142.048 25.6168 142.101 25.5649 142.164 25.5291L170.141 9.56079C170.192 9.53222 170.248 9.51463 170.306 9.50916C170.364 9.50369 170.423 9.51047 170.478 9.52905C170.534 9.5475 170.585 9.57776 170.627 9.61773C170.67 9.6577 170.703 9.70643 170.725 9.76055C171.194 10.9483 171.833 12.062 172.622 13.067C173.184 13.8138 174.619 15.6621 175.918 16.7431C175.973 16.764 176.022 16.7973 176.062 16.8401C176.139 16.9174 176.182 17.0217 176.182 17.1305C176.182 17.2392 176.139 17.3435 176.062 17.4208L176.049 17.4338L152.828 39.7256C152.759 39.7916 152.669 39.8317 152.573 39.8388C152.478 39.846 152.383 39.8198 152.304 39.7648C147.477 36.4032 143.865 31.5801 142.005 26.0107C141.982 25.9719 141.965 25.9297 141.956 25.8856ZM170.149 10.5036L142.87 26.0723C144.666 31.2373 148.023 35.7202 152.48 38.9041L175.139 17.1575C173.847 16.0075 172.517 14.288 171.956 13.558C171.224 12.6217 170.616 11.5951 170.149 10.5036Z" fill="black"/>
<path d="M172.592 13.8698C173.505 15.0887 174.566 16.19 175.752 17.1482L189.965 3.51923C191.216 2.31876 188.963 -0.690809 187.456 0.158666L170.345 9.92483C170.928 11.3271 171.683 12.6522 172.592 13.8698Z" fill="black"/>
<path d="M232.459 108.522L232.459 108.201C232.459 107.888 232.205 107.635 231.892 107.635L226.206 107.635C225.893 107.635 225.639 107.888 225.639 108.201L225.639 108.522C225.639 108.834 225.893 109.088 226.206 109.088L231.892 109.088C232.205 109.088 232.459 108.834 232.459 108.522Z" fill="black"/>
<path d="M100.001 100.987C99.3602 100.655 98.6499 100.479 97.928 100.473L84.8401 100.361L86.1078 127.218L99.3456 126.098C100.075 126.036 100.778 125.798 101.394 125.405L102.063 124.977C102.721 124.56 103.476 124.319 104.255 124.275C105.034 124.232 105.811 124.389 106.512 124.731L106.699 124.821C107.445 125.182 108.274 125.336 109.1 125.267L205.719 117.032C207.001 116.922 208.263 116.648 209.474 116.216L209.719 116.128C209.274 111.419 209.247 106.713 208.899 102.006L207.91 101.732C207.137 101.518 206.338 101.407 205.536 101.401L108.257 100.643C107.369 100.635 106.497 100.888 105.752 101.371C105.075 101.807 104.295 102.056 103.49 102.094C102.685 102.132 101.884 101.956 101.17 101.586L100.001 100.987Z" fill="#F8F8F8"/>
<path d="M84.428 100.361C84.428 100.307 84.4388 100.253 84.4597 100.203C84.4807 100.153 84.5114 100.108 84.55 100.069C84.5887 100.031 84.6345 100.001 84.6849 99.9806C84.7353 99.9602 84.7893 99.95 84.8437 99.9505L97.9316 100.062C98.7187 100.07 99.493 100.262 100.192 100.623L101.353 101.222C102.002 101.561 102.73 101.722 103.462 101.689C104.195 101.656 104.905 101.431 105.521 101.035C106.334 100.506 107.285 100.229 108.256 100.24L205.534 100.998C206.373 101.003 207.207 101.12 208.015 101.343L209.009 101.618C209.092 101.641 209.166 101.689 209.219 101.756C209.273 101.823 209.304 101.905 209.309 101.991C209.463 104.045 209.554 106.132 209.644 108.152C209.758 110.766 209.878 113.458 210.127 116.105C210.138 116.196 210.116 116.288 210.067 116.365C210.018 116.443 209.944 116.501 209.858 116.531L209.612 116.619C208.369 117.064 207.072 117.346 205.755 117.457L109.126 125.685C108.224 125.763 107.318 125.595 106.505 125.199L106.317 125.11C105.68 124.8 104.973 124.658 104.265 124.697C103.557 124.736 102.87 124.954 102.271 125.332L101.602 125.76C100.929 126.189 100.162 126.449 99.3661 126.516L86.1284 127.636C86.073 127.641 86.0173 127.634 85.9645 127.617C85.9117 127.599 85.863 127.572 85.8213 127.535C85.7794 127.499 85.7454 127.455 85.7216 127.405C85.6977 127.355 85.6845 127.301 85.6827 127.246L84.4149 100.389L84.428 100.361ZM208.509 102.323L207.794 102.137C207.055 101.933 206.293 101.827 205.526 101.821L108.25 101.063C107.442 101.053 106.649 101.283 105.971 101.722C105.233 102.199 104.382 102.472 103.504 102.513C102.626 102.554 101.752 102.363 100.973 101.957L99.8118 101.358C99.2277 101.058 98.5813 100.898 97.9242 100.891L85.2726 100.783L86.4992 126.779L99.3099 125.689C99.9716 125.632 100.61 125.416 101.169 125.059L101.84 124.632C102.558 124.178 103.381 123.915 104.231 123.868C105.08 123.821 105.927 123.99 106.692 124.361L106.879 124.453C107.558 124.781 108.313 124.921 109.065 124.858L205.693 116.628C206.919 116.524 208.127 116.265 209.287 115.855C209.054 113.29 208.938 110.695 208.828 108.18C208.736 106.255 208.648 104.274 208.509 102.323Z" fill="black"/>
<path d="M62.569 100.789L85.3011 100.266L86.2505 127.281L63.5203 127.81C59.3556 127.905 55.865 124.703 55.7227 120.654L55.2901 108.3C55.144 104.252 58.4061 100.892 62.569 100.789Z" fill="#F8F8F8"/>
<path d="M54.8705 108.044C54.8667 106.108 55.6111 104.245 56.9492 102.842C57.6732 102.078 58.5433 101.467 59.5081 101.043C60.4729 100.62 61.513 100.393 62.5671 100.376L85.2916 99.8553C85.4 99.8537 85.5047 99.8944 85.5834 99.9687C85.6621 100.043 85.7086 100.145 85.713 100.253L86.6624 127.266C86.6667 127.321 86.6589 127.376 86.6394 127.427C86.62 127.478 86.5895 127.525 86.5501 127.563C86.4739 127.642 86.3697 127.688 86.2598 127.692L63.5297 128.218C59.1477 128.321 55.4604 124.934 55.3106 120.668L54.8762 108.315L54.8705 108.044ZM62.5802 101.205C61.6362 101.22 60.7047 101.423 59.8405 101.803C58.9764 102.182 58.1971 102.73 57.5484 103.414C56.9305 104.062 56.4485 104.827 56.1308 105.663C55.8131 106.5 55.6661 107.391 55.6983 108.285L56.1327 120.64C56.2675 124.458 59.5765 127.49 63.5109 127.399L85.8141 126.88L84.8928 100.686L62.5802 101.205Z" fill="black"/>
<path d="M103.417 106.914C103.415 106.805 103.457 106.7 103.534 106.622C103.61 106.544 103.714 106.5 103.823 106.498C103.932 106.497 104.038 106.538 104.116 106.614C104.194 106.69 104.239 106.794 104.241 106.903L104.55 119.699C104.55 119.808 104.509 119.912 104.434 119.99C104.36 120.068 104.257 120.115 104.149 120.12C104.095 120.121 104.041 120.112 103.99 120.092C103.939 120.073 103.893 120.044 103.854 120.007C103.814 119.969 103.783 119.925 103.761 119.875C103.739 119.826 103.727 119.772 103.726 119.718L103.417 106.924L103.417 106.914Z" fill="#F8F8F8"/>
<path d="M61.8686 107.556C61.8686 107.449 61.9112 107.345 61.9873 107.268C62.0633 107.191 62.1667 107.147 62.275 107.146L79.6718 106.864C79.7261 106.863 79.78 106.873 79.8305 106.892C79.881 106.912 79.9271 106.942 79.966 106.979C80.005 107.017 80.0361 107.062 80.0576 107.112C80.0791 107.161 80.0906 107.215 80.0913 107.269C80.0895 107.377 80.0465 107.48 79.971 107.557C79.8954 107.635 79.7931 107.681 79.685 107.685L62.2881 107.967C62.2338 107.968 62.1799 107.959 62.1294 107.939C62.0789 107.919 62.0329 107.889 61.9939 107.852C61.9549 107.814 61.9238 107.769 61.9023 107.719C61.8808 107.67 61.8694 107.616 61.8686 107.562L61.8686 107.556Z" fill="#F8F8F8"/>
<path d="M229.047 107.564L208.899 102.006C209.247 106.713 209.274 111.419 209.719 116.128L229.047 109.209L229.047 107.564Z" fill="black"/>
</g>
<defs>
<clipPath id="clip0_75_372">
<rect width="136" height="236" fill="white" transform="translate(236) rotate(90)"/>
</clipPath>
</defs>
</svg>
