<svg width="191" height="119" viewBox="0 0 191 119" fill="none" xmlns="http://www.w3.org/2000/svg">
<g clip-path="url(#clip0_72_73)">
<path d="M6.80051 23.8877H123.321C127.636 23.8877 132.152 27.3867 133.414 31.6975L156.242 110.064C157.504 114.379 155.022 117.878 150.707 117.878H34.1789C29.864 117.878 25.3472 114.379 24.0855 110.064L1.26176 31.6975C0.00849199 27.3867 2.49399 23.8877 6.80051 23.8877Z" fill="#F8F8F8"/>
<path d="M150.699 118.808H34.179C29.4856 118.808 24.5608 115.023 23.1982 110.325L0.391269 31.9583C-0.319476 29.5232 0.00434312 27.2312 1.29966 25.5069C2.5319 23.8625 4.49171 22.9541 6.82161 22.9541H123.321C128.014 22.9541 132.939 26.7391 134.301 31.4368L157.129 109.804C157.84 112.239 157.516 114.535 156.221 116.259C154.989 117.904 153.025 118.808 150.699 118.808ZM6.80058 24.8172C5.07209 24.8172 3.64218 25.4606 2.77162 26.6214C1.83377 27.883 1.6151 29.5653 2.15762 31.4368L24.9856 109.804C26.1337 113.744 30.2594 116.953 34.179 116.953H150.699C152.428 116.953 153.857 116.314 154.728 115.149C155.666 113.887 155.885 112.205 155.342 110.334L132.514 31.9667C131.366 28.0302 127.24 24.8172 123.321 24.8172H6.80058Z" fill="black"/>
<path d="M134.276 113.252C134.074 113.252 133.878 113.186 133.717 113.064C133.555 112.943 133.437 112.773 133.38 112.579L109.24 29.7083C109.206 29.5909 109.195 29.468 109.209 29.3464C109.222 29.2249 109.259 29.1072 109.318 29C109.377 28.8928 109.456 28.7982 109.551 28.7217C109.646 28.6451 109.756 28.5881 109.873 28.5539C109.991 28.5196 110.114 28.5088 110.235 28.5221C110.357 28.5354 110.474 28.5725 110.582 28.6312C110.689 28.69 110.783 28.7693 110.86 28.8646C110.937 28.96 110.993 29.0694 111.028 29.1868L135.172 112.079C135.24 112.317 135.211 112.571 135.092 112.788C134.973 113.004 134.774 113.165 134.537 113.236C134.451 113.253 134.364 113.259 134.276 113.252Z" fill="black"/>
<path d="M36.0252 104.109H122.711C124.111 104.109 124.91 102.974 124.507 101.586L106.62 40.1845C106.395 39.4832 105.963 38.8667 105.38 38.4162C104.798 37.9657 104.092 37.7024 103.357 37.6611H16.6668C15.2706 37.6611 14.4673 38.7924 14.8753 40.1845L32.7742 101.565C32.9965 102.267 33.4259 102.886 34.006 103.34C34.5862 103.794 35.29 104.062 36.0252 104.109Z" fill="black"/>
<path d="M135.555 77.9884C131.698 77.9884 127.804 74.9814 126.685 71.1416C126.117 69.186 126.391 67.2641 127.438 65.8678C127.97 65.1846 128.658 64.6376 129.443 64.272C130.228 63.9064 131.089 63.7327 131.955 63.7651C135.811 63.7651 139.706 66.7721 140.82 70.6076C141.392 72.5674 141.119 74.4893 140.071 75.8814C139.539 76.5654 138.852 77.1132 138.067 77.4795C137.282 77.8458 136.421 78.0203 135.555 77.9884ZM128.477 70.6202C129.36 73.6566 132.535 76.1253 135.555 76.1253C136.13 76.1552 136.705 76.0485 137.231 75.8139C137.757 75.5792 138.22 75.2233 138.583 74.7753C139.285 73.8416 139.445 72.5505 139.033 71.1416C138.15 68.1094 134.974 65.6408 131.955 65.6408C131.38 65.611 130.806 65.7174 130.28 65.9512C129.753 66.1851 129.29 66.5398 128.927 66.9865C128.241 67.9202 128.065 69.2155 128.477 70.6202Z" fill="black"/>
<path d="M130.029 44.4826C129.827 44.4824 129.63 44.4167 129.468 44.2954C129.307 44.1741 129.189 44.0036 129.133 43.8096L127.45 37.9849C127.303 37.5296 127.025 37.1276 126.651 36.8286C126.277 36.5296 125.824 36.3468 125.348 36.3027H120.801C120.674 36.3113 120.546 36.2935 120.425 36.2506C120.305 36.2077 120.195 36.1404 120.101 36.0531C120.008 35.9658 119.933 35.8601 119.882 35.7428C119.831 35.6255 119.805 35.499 119.805 35.3711C119.805 35.2432 119.831 35.1167 119.882 34.9994C119.933 34.8821 120.008 34.7765 120.101 34.6892C120.195 34.6018 120.305 34.5346 120.425 34.4917C120.546 34.4488 120.674 34.431 120.801 34.4396H125.348C126.228 34.4788 127.075 34.788 127.773 35.3252C128.471 35.8624 128.987 36.6017 129.251 37.4424L130.933 43.2671C131.002 43.5047 130.974 43.7599 130.855 43.9768C130.735 44.1936 130.535 44.3544 130.298 44.4237C130.211 44.4562 130.121 44.476 130.029 44.4826Z" fill="black"/>
<path d="M132.076 59.5091H127.53C126.65 59.4708 125.804 59.1625 125.105 58.6259C124.407 58.0894 123.891 57.3508 123.627 56.5105L119.926 43.8096C119.857 43.5726 119.885 43.3178 120.004 43.1013C120.122 42.8848 120.322 42.7243 120.559 42.6552C120.796 42.586 121.051 42.6139 121.268 42.7326C121.484 42.8513 121.645 43.0511 121.714 43.2881L125.415 55.989C125.566 56.4399 125.845 56.8368 126.219 57.1311C126.593 57.4255 127.044 57.6044 127.518 57.646H132.064C132.19 57.656 132.318 57.6361 132.435 57.5879C132.553 57.5397 132.658 57.4645 132.741 57.3684C132.818 57.2436 132.865 57.103 132.878 56.9572C132.892 56.8114 132.873 56.6643 132.821 56.5273C132.787 56.41 132.776 56.287 132.789 56.1655C132.802 56.044 132.839 55.9262 132.898 55.819C132.957 55.7118 133.036 55.6173 133.132 55.5407C133.227 55.4642 133.336 55.4071 133.454 55.3729C133.571 55.3386 133.694 55.3279 133.816 55.3411C133.937 55.3544 134.055 55.3915 134.162 55.4503C134.269 55.509 134.364 55.5884 134.44 55.6837C134.517 55.779 134.574 55.8885 134.608 56.0058C134.746 56.4224 134.784 56.8656 134.719 57.2995C134.654 57.7334 134.488 58.146 134.234 58.5039C133.977 58.8276 133.648 59.087 133.274 59.2615C132.899 59.436 132.489 59.5208 132.076 59.5091Z" fill="black"/>
<path d="M127.699 44.4826H123.148C122.912 44.4667 122.691 44.3617 122.529 44.1887C122.367 44.0158 122.277 43.7878 122.277 43.5511C122.277 43.3143 122.367 43.0863 122.529 42.9134C122.691 42.7404 122.912 42.6354 123.148 42.6195H127.699C127.826 42.611 127.954 42.6287 128.075 42.6716C128.195 42.7145 128.306 42.7817 128.399 42.8691C128.492 42.9564 128.567 43.062 128.618 43.1793C128.669 43.2967 128.695 43.4232 128.695 43.5511C128.695 43.6789 128.669 43.8055 128.618 43.9228C128.567 44.0401 128.492 44.1457 128.399 44.233C128.306 44.3204 128.195 44.3876 128.075 44.4305C127.954 44.4735 127.826 44.4912 127.699 44.4826Z" fill="black"/>
<path d="M128.977 48.8648H124.427C124.19 48.8489 123.969 48.7438 123.807 48.5709C123.646 48.3979 123.556 48.17 123.556 47.9332C123.556 47.6965 123.646 47.4685 123.807 47.2956C123.969 47.1226 124.19 47.0176 124.427 47.0017H128.977C129.213 47.0176 129.435 47.1226 129.596 47.2956C129.758 47.4685 129.848 47.6965 129.848 47.9332C129.848 48.17 129.758 48.3979 129.596 48.5709C129.435 48.7438 129.213 48.8489 128.977 48.8648Z" fill="black"/>
<path d="M146.001 107.306H141.451C140.571 107.266 139.724 106.957 139.026 106.419C138.328 105.882 137.812 105.143 137.548 104.303L136.53 100.812C136.463 100.573 136.493 100.317 136.615 100.1C136.736 99.883 136.939 99.7233 137.178 99.6558C137.417 99.5883 137.674 99.6186 137.89 99.7401C138.107 99.8616 138.267 100.064 138.335 100.303L139.348 103.794C139.497 104.249 139.775 104.65 140.148 104.949C140.522 105.248 140.975 105.431 141.451 105.476H146.001C146.238 105.492 146.459 105.597 146.621 105.77C146.782 105.943 146.872 106.171 146.872 106.408C146.872 106.645 146.782 106.873 146.621 107.046C146.459 107.218 146.238 107.324 146.001 107.339V107.306Z" fill="black"/>
<path d="M146.38 100.606C146.178 100.606 145.981 100.54 145.82 100.419C145.658 100.297 145.541 100.127 145.484 99.933L141.359 85.777C141.207 85.3261 140.928 84.9292 140.554 84.6348C140.181 84.3405 139.729 84.1616 139.256 84.12H134.705C134.579 84.1117 134.453 84.132 134.336 84.1793C134.218 84.2267 134.113 84.2998 134.028 84.3933C133.949 84.5211 133.901 84.6654 133.887 84.815C133.873 84.9646 133.894 85.1154 133.948 85.2555L134.752 88.0144C134.821 88.2514 134.793 88.5061 134.674 88.7226C134.555 88.9391 134.356 89.0996 134.119 89.1688C133.882 89.2379 133.627 89.2101 133.41 89.0914C133.194 88.9727 133.033 88.7729 132.964 88.5358L132.161 85.777C132.023 85.3604 131.985 84.9172 132.05 84.4833C132.115 84.0494 132.281 83.6368 132.535 83.2789C132.791 82.9503 133.121 82.6867 133.498 82.5092C133.875 82.3316 134.289 82.2452 134.705 82.2569H139.256C140.135 82.2964 140.981 82.6052 141.679 83.1415C142.377 83.6779 142.894 84.4158 143.159 85.2555L147.28 99.4115C147.349 99.6485 147.322 99.9033 147.203 100.12C147.085 100.337 146.886 100.498 146.649 100.568C146.562 100.593 146.471 100.606 146.38 100.606Z" fill="black"/>
<path d="M140.471 88.33H134.36C134.124 88.3142 133.903 88.2091 133.741 88.0362C133.579 87.8632 133.489 87.6353 133.489 87.3985C133.489 87.1617 133.579 86.9338 133.741 86.7608C133.903 86.5879 134.124 86.4828 134.36 86.4669H140.471C140.599 86.4584 140.727 86.4761 140.847 86.519C140.968 86.562 141.078 86.6292 141.171 86.7165C141.265 86.8039 141.339 86.9095 141.39 87.0268C141.441 87.1441 141.467 87.2706 141.467 87.3985C141.467 87.5264 141.441 87.6529 141.39 87.7702C141.339 87.8875 141.265 87.9931 141.171 88.0805C141.078 88.1678 140.968 88.235 140.847 88.278C140.727 88.3209 140.599 88.3386 140.471 88.33Z" fill="black"/>
<path d="M142.12 94.0288H136.022C135.894 94.0373 135.766 94.0196 135.646 93.9767C135.525 93.9337 135.415 93.8665 135.321 93.7792C135.228 93.6918 135.153 93.5862 135.103 93.4689C135.052 93.3516 135.025 93.2251 135.025 93.0972C135.025 92.9693 135.052 92.8428 135.103 92.7255C135.153 92.6082 135.228 92.5026 135.321 92.4152C135.415 92.3279 135.525 92.2607 135.646 92.2177C135.766 92.1748 135.894 92.1571 136.022 92.1657H142.12C142.247 92.1571 142.375 92.1748 142.496 92.2177C142.616 92.2607 142.727 92.3279 142.82 92.4152C142.913 92.5026 142.988 92.6082 143.039 92.7255C143.09 92.8428 143.116 92.9693 143.116 93.0972C143.116 93.2251 143.09 93.3516 143.039 93.4689C142.988 93.5862 142.913 93.6918 142.82 93.7792C142.727 93.8665 142.616 93.9337 142.496 93.9767C142.375 94.0196 142.247 94.0373 142.12 94.0288Z" fill="black"/>
<path d="M96.4132 5.25708H140.69C143.327 5.25708 146.081 7.39353 146.851 10.0262L154.985 37.9513C155.75 40.584 154.24 42.7205 151.62 42.7205H107.323C104.69 42.7205 101.935 40.584 101.166 37.9513L93.032 10.0262C92.2666 7.35989 93.7763 5.25708 96.4132 5.25708Z" fill="#F8F8F8"/>
<path d="M151.603 43.6287H107.323C104.257 43.6287 101.161 41.2399 100.274 38.1908L92.1362 10.2657C91.8994 9.55688 91.8316 8.80251 91.9382 8.06281C92.0448 7.32311 92.3228 6.6186 92.7502 6.00547C93.1841 5.45526 93.7424 5.01586 94.3792 4.72342C95.016 4.43097 95.7131 4.29383 96.4132 4.32324H140.69C143.756 4.32324 146.855 6.71201 147.747 9.76106L155.88 37.6862C156.117 38.395 156.185 39.1494 156.078 39.8891C155.972 40.6288 155.694 41.3333 155.266 41.9464C154.832 42.4966 154.274 42.936 153.637 43.2285C153 43.5209 152.303 43.6581 151.603 43.6287ZM96.4132 6.16947C96.0019 6.14647 95.5909 6.22097 95.2138 6.38686C94.8367 6.55276 94.5041 6.80538 94.2432 7.12415C93.9879 7.50513 93.8262 7.94105 93.7714 8.39638C93.7165 8.8517 93.7702 9.31354 93.9277 9.74422L102.061 37.6694C102.709 39.8899 105.119 41.7656 107.323 41.7656H151.603C152.015 41.7893 152.426 41.7151 152.803 41.5492C153.18 41.3832 153.513 41.1302 153.773 40.8109C154.026 40.4289 154.186 39.9931 154.241 39.5382C154.296 39.0833 154.244 38.622 154.089 38.1908L145.955 10.2657C145.307 8.04516 142.898 6.16947 140.69 6.16947H96.4132Z" fill="black"/>
<path d="M152.966 17.1546C152.764 17.1547 152.568 17.0896 152.407 16.9691C152.245 16.8486 152.127 16.6791 152.07 16.4859L151.393 14.1602C151.324 13.9232 151.351 13.6684 151.47 13.4519C151.589 13.2354 151.789 13.0749 152.026 13.0058C152.263 12.9366 152.517 12.9645 152.734 13.0832C152.95 13.2019 153.111 13.4017 153.18 13.6387L153.861 15.9644C153.929 16.2014 153.9 16.4556 153.781 16.6714C153.662 16.8873 153.463 17.0474 153.226 17.1167C153.142 17.1413 153.054 17.1541 152.966 17.1546Z" fill="black"/>
<path d="M98.1207 13.6345C97.9192 13.6341 97.7233 13.5683 97.5625 13.4469C97.4017 13.3256 97.2847 13.1552 97.2291 12.9616L95.1894 5.9635C94.9526 5.25466 94.8848 4.50029 94.9914 3.76059C95.098 3.0209 95.3761 2.31636 95.8034 1.70323C96.2364 1.15309 96.794 0.713694 97.4301 0.421223C98.0662 0.128753 98.7627 -0.00842532 99.4622 0.020994H143.743C146.809 0.020994 149.904 2.41398 150.796 5.46303L152.247 10.4509C152.316 10.6879 152.288 10.9427 152.169 11.1592C152.051 11.3757 151.851 11.5361 151.614 11.6053C151.377 11.6744 151.122 11.6466 150.905 11.5279C150.689 11.4092 150.528 11.2094 150.459 10.9724L149.008 5.98452C148.361 3.76397 145.947 1.88407 143.743 1.88407H99.4622C99.0505 1.86123 98.6392 1.93621 98.262 2.10287C97.8849 2.26953 97.5525 2.52315 97.2922 2.84295C97.0393 3.22502 96.8792 3.66081 96.8244 4.11567C96.7697 4.57053 96.8218 5.03188 96.9768 5.46303L99.0165 12.4611C99.0843 12.6987 99.0556 12.9534 98.9367 13.17C98.8178 13.3865 98.6182 13.5474 98.3814 13.6177C98.2957 13.6352 98.2079 13.6409 98.1207 13.6345Z" fill="black"/>
<path d="M101.405 24.9013C101.203 24.9012 101.007 24.8355 100.845 24.7142C100.684 24.5928 100.566 24.4224 100.509 24.2284L98.5959 17.6551C98.5267 17.4181 98.5545 17.1633 98.6732 16.9468C98.7919 16.7303 98.9918 16.5698 99.2288 16.5006C99.4658 16.4315 99.7206 16.4593 99.9371 16.578C100.154 16.6967 100.314 16.8966 100.383 17.1336L102.297 23.7069C102.332 23.8246 102.343 23.9479 102.329 24.0698C102.316 24.1918 102.279 24.3099 102.22 24.4174C102.161 24.5249 102.081 24.6197 101.985 24.6963C101.89 24.7728 101.78 24.8296 101.662 24.8635C101.579 24.8883 101.492 24.9011 101.405 24.9013Z" fill="black"/>
<path d="M186.278 58.2475C186.082 58.2481 185.891 58.1871 185.732 58.0731C185.573 57.9592 185.453 57.798 185.391 57.6125C181.164 44.9074 167.399 34.5701 154.715 34.5701H139.175C125.751 34.5701 111.196 23.6608 106.729 10.2533C106.662 10.0215 106.687 9.77269 106.799 9.55902C106.912 9.34535 107.102 9.18344 107.331 9.10727C107.56 9.03111 107.81 9.0466 108.028 9.1505C108.246 9.2544 108.415 9.43863 108.5 9.66455C112.731 22.3696 126.491 32.707 139.175 32.707H154.698C168.123 32.707 182.678 43.6163 187.144 57.0237C187.222 57.2585 187.203 57.5143 187.091 57.7351C186.98 57.9558 186.786 58.1235 186.551 58.2013C186.463 58.2312 186.371 58.2468 186.278 58.2475Z" fill="black"/>
<path d="M106.347 11.1447C107.823 12.255 109.619 12.255 110.359 11.1447C111.099 10.0345 110.502 8.24286 109.026 7.13679C107.55 6.03072 105.75 6.02652 105.014 7.13679C104.278 8.24707 104.871 10.0471 106.347 11.1447Z" fill="#F8F8F8"/>
<path d="M108.622 12.9194C107.592 12.892 106.599 12.5353 105.787 11.9017C103.895 10.4802 103.213 8.16293 104.235 6.62789C104.454 6.30843 104.736 6.03724 105.064 5.83107C105.391 5.62491 105.758 5.48815 106.14 5.42928C106.749 5.35171 107.368 5.39738 107.959 5.56355C108.55 5.72972 109.101 6.01302 109.581 6.39658C111.477 7.82228 112.159 10.1353 111.132 11.6704C110.915 11.9901 110.634 12.2615 110.307 12.4677C109.98 12.6739 109.614 12.8105 109.232 12.869C109.03 12.9028 108.826 12.9197 108.622 12.9194ZM106.746 7.24189C106.649 7.24156 106.552 7.25003 106.456 7.26715C106.323 7.283 106.195 7.32632 106.08 7.39439C105.965 7.46245 105.865 7.55373 105.787 7.66245C105.388 8.26385 105.749 9.53815 106.906 10.4087C107.468 10.872 108.19 11.0956 108.916 11.0311C109.049 11.016 109.177 10.9735 109.292 10.9061C109.407 10.8388 109.507 10.7481 109.585 10.64C109.984 10.0344 109.623 8.76012 108.462 7.88956C107.974 7.49648 107.372 7.26956 106.746 7.24189Z" fill="black"/>
<path d="M185.063 59.2022C186.539 60.3124 188.335 60.3124 189.075 59.2022C189.815 58.0919 189.214 56.3003 187.738 55.19C186.261 54.0797 184.466 54.0839 183.726 55.19C182.985 56.2961 183.587 58.0961 185.063 59.2022Z" fill="#F8F8F8"/>
<path d="M187.338 60.9643C186.308 60.9395 185.314 60.5825 184.503 59.9465C182.607 58.5293 181.925 56.212 182.951 54.6727C183.17 54.3537 183.452 54.0831 183.78 53.8776C184.108 53.6721 184.474 53.5362 184.857 53.4784C185.466 53.4008 186.084 53.4465 186.675 53.6126C187.266 53.7788 187.817 54.0621 188.297 54.4457C190.193 55.8671 190.875 58.1844 189.849 59.7195C189.631 60.0392 189.349 60.3103 189.021 60.5159C188.693 60.7214 188.326 60.8569 187.943 60.9139C187.743 60.9477 187.541 60.9646 187.338 60.9643ZM185.462 55.3036C185.364 55.3033 185.265 55.3118 185.168 55.3288C185.036 55.344 184.909 55.3866 184.794 55.454C184.68 55.5213 184.581 55.6119 184.503 55.7199C184.083 56.3213 184.461 57.5999 185.622 58.4704C186.183 58.9331 186.904 59.1566 187.628 59.0928C187.761 59.0775 187.889 59.0344 188.004 58.9663C188.12 58.8981 188.219 58.8066 188.297 58.6975C188.717 58.0961 188.339 56.8218 187.178 55.9512C186.689 55.5599 186.088 55.3333 185.462 55.3036Z" fill="black"/>
<path d="M140.925 32.2443L144.147 27.5214C144.714 26.6803 146.031 26.655 147.091 27.4373L153.142 31.9078C154.202 32.6858 154.606 34.0106 154.042 34.8181L150.817 39.5452C150.253 40.3863 148.937 40.4073 147.873 39.6251L141.825 35.1587C140.761 34.3765 140.362 33.0728 140.925 32.2443Z" fill="#F8F8F8"/>
<path d="M149.475 41.1222C148.697 41.1086 147.944 40.8463 147.326 40.3736L141.279 35.9072C139.798 34.8138 139.31 32.9633 140.164 31.7017L143.386 26.9788C143.573 26.7087 143.814 26.4798 144.093 26.3063C144.372 26.1327 144.684 26.0181 145.009 25.9694C145.474 25.9033 145.947 25.9314 146.401 26.0521C146.855 26.1728 147.279 26.3835 147.65 26.6718L153.706 31.1381C155.186 32.2316 155.674 34.082 154.821 35.3437L151.595 40.0666C151.408 40.3366 151.168 40.5658 150.89 40.74C150.611 40.9143 150.3 41.03 149.976 41.0801C149.81 41.1071 149.643 41.1212 149.475 41.1222ZM141.699 32.7699C141.455 33.1273 141.699 33.9012 142.38 34.4101L148.437 38.8764C148.78 39.1545 149.22 39.286 149.66 39.2423C149.737 39.2345 149.812 39.2106 149.88 39.1723C149.947 39.1339 150.005 39.0818 150.051 39.0194L153.277 34.2965C153.521 33.939 153.277 33.161 152.596 32.6563L146.54 28.19C146.196 27.9104 145.757 27.7774 145.316 27.8199C145.238 27.8284 145.163 27.8529 145.094 27.892C145.026 27.9311 144.967 27.9839 144.921 28.047L141.699 32.7699Z" fill="black"/>
<path d="M155.321 78.0136H168.615C168.89 78.036 169.162 77.9499 169.375 77.7739C169.587 77.5978 169.722 77.3458 169.75 77.0715L172.791 67.016C172.817 66.5275 172.649 66.0484 172.324 65.6828L148.849 34.3091C147.873 33.1105 146.17 33.1105 145.989 34.3091L143.381 65.666C143.359 65.905 143.385 66.1461 143.457 66.3751C143.529 66.604 143.646 66.8162 143.802 66.9991L153.538 77.0547C153.746 77.3366 154.013 77.5689 154.322 77.7347C154.63 77.9006 154.971 77.9958 155.321 78.0136ZM151.755 62.987C150.796 60.1104 152.352 57.7805 155.229 57.7805C158.105 57.7805 161.213 60.1104 162.172 62.987C163.131 65.8636 161.575 68.1977 158.698 68.1977C155.822 68.1977 152.714 65.8468 151.755 62.9702V62.987Z" fill="#F8F8F8"/>
<path d="M168.615 78.9306H155.325C154.847 78.9132 154.379 78.7912 153.953 78.5733C153.527 78.3553 153.154 78.0466 152.861 77.6689L143.158 67.647L143.091 67.5713C142.858 67.2885 142.684 66.962 142.579 66.6109C142.475 66.2599 142.441 65.8915 142.481 65.5274L145.068 34.2294C145.107 33.8364 145.266 33.4649 145.522 33.1644C145.778 32.8639 146.12 32.6485 146.502 32.5471C147.071 32.4294 147.663 32.476 148.207 32.6815C148.751 32.8871 149.226 33.243 149.576 33.7079L173.073 65.0942C173.541 65.648 173.772 66.3643 173.716 67.0876C173.711 67.1448 173.7 67.2013 173.682 67.2558L170.663 77.2399C170.59 77.7245 170.34 78.1651 169.962 78.4771C169.584 78.7891 169.104 78.9506 168.615 78.9306ZM144.533 66.3937L154.232 76.4072C154.256 76.4305 154.279 76.4559 154.299 76.4829C154.419 76.6472 154.572 76.7843 154.749 76.885C154.926 76.9858 155.122 77.048 155.325 77.0675H168.615C168.812 77.0675 168.821 77.0002 168.825 76.9497C168.832 76.8943 168.843 76.8395 168.859 76.7857L171.866 66.8395C171.842 66.6222 171.751 66.4178 171.605 66.2549L148.108 34.8644C147.981 34.6919 147.812 34.5546 147.617 34.4656C147.422 34.3766 147.207 34.3387 146.994 34.3555C146.931 34.3555 146.926 34.3808 146.918 34.4438L144.332 65.7418C144.31 65.9766 144.381 66.2105 144.529 66.3937H144.533ZM158.702 69.1105C155.405 69.1105 151.973 66.5451 150.875 63.2647C150.308 61.5573 150.484 59.8708 151.368 58.6386C151.817 58.0459 152.403 57.571 153.076 57.2546C153.75 56.9382 154.489 56.7897 155.232 56.8218C158.53 56.8218 161.961 59.3914 163.059 62.6676C163.631 64.3792 163.45 66.0615 162.567 67.2937C162.118 67.8878 161.531 68.3637 160.857 68.6802C160.183 68.9967 159.442 69.1444 158.698 69.1105H158.702ZM152.633 62.676C153.475 65.1573 156.233 67.2475 158.694 67.2475C159.141 67.2751 159.589 67.1947 159.998 67.0132C160.408 66.8317 160.769 66.5543 161.049 66.2044C161.583 65.4601 161.667 64.4171 161.284 63.2605C160.443 60.7834 157.684 58.6891 155.224 58.6891C154.777 58.6607 154.33 58.7407 153.921 58.9223C153.511 59.1039 153.152 59.3817 152.873 59.7321C152.339 60.4807 152.255 61.5236 152.633 62.676Z" fill="black"/>
<path d="M160.325 88.9483H170.907C172.845 88.9483 173.893 87.3754 173.249 85.4367L172.829 84.2128C172.181 82.2741 170.087 80.7012 168.148 80.7012H157.567C155.628 80.7012 154.581 82.2741 155.228 84.2128L155.649 85.4367C156.292 87.3881 158.387 88.9483 160.325 88.9483Z" fill="black"/>
<path d="M153.828 54.4875C153.633 54.4876 153.444 54.4263 153.286 54.3123C153.128 54.1982 153.01 54.0373 152.949 53.8525C146.523 34.9694 146.523 34.9694 146.893 34.4563L147.65 34.9988L148.563 34.8432C148.735 35.5876 152.348 46.2614 154.711 53.2553C154.79 53.489 154.774 53.7445 154.665 53.9659C154.556 54.1873 154.364 54.3567 154.131 54.4371C154.033 54.4701 153.931 54.4872 153.828 54.4875Z" fill="black"/>
</g>
<defs>
<clipPath id="clip0_72_73">
<rect width="190.324" height="118.808" fill="white"/>
</clipPath>
</defs>
</svg>
