<svg width="440" height="439" viewBox="0 0 440 439" fill="none" xmlns="http://www.w3.org/2000/svg">
<g clip-path="url(#clip0_17_5679)">
<path d="M295.92 30.1663C297.963 30.1663 297.968 26.9877 295.92 26.9877C293.873 26.9877 293.873 30.1663 295.92 30.1663Z" fill="black"/>
<path d="M120.427 251.804H108.753V382.074H120.427V251.804Z" fill="#F8F8F8"/>
<path d="M120.427 382.604H108.758C108.618 382.604 108.483 382.548 108.384 382.449C108.284 382.349 108.229 382.215 108.229 382.074V251.813C108.229 251.673 108.284 251.538 108.384 251.438C108.483 251.339 108.618 251.283 108.758 251.283H120.432C120.572 251.283 120.707 251.339 120.806 251.438C120.906 251.538 120.961 251.673 120.961 251.813V382.074C120.961 382.144 120.948 382.213 120.921 382.278C120.894 382.343 120.854 382.401 120.805 382.451C120.755 382.5 120.696 382.539 120.631 382.565C120.566 382.591 120.497 382.605 120.427 382.604ZM109.283 381.544H119.897V252.334H109.283V381.544Z" fill="black"/>
<path d="M164.849 372.641H65.2206C62.7313 372.641 60.7134 374.661 60.7134 377.151V377.564C60.7134 380.055 62.7313 382.074 65.2206 382.074H164.849C167.338 382.074 169.356 380.055 169.356 377.564V377.151C169.356 374.661 167.338 372.641 164.849 372.641Z" fill="#F8F8F8"/>
<path d="M164.858 382.604H65.2202C63.8849 382.604 62.6043 382.073 61.6602 381.129C60.716 380.184 60.1855 378.902 60.1855 377.566V377.154C60.1855 375.818 60.716 374.536 61.6602 373.592C62.6043 372.647 63.8849 372.116 65.2202 372.116H164.858C166.194 372.116 167.474 372.647 168.418 373.592C169.363 374.536 169.893 375.818 169.893 377.154V377.566C169.893 378.902 169.363 380.184 168.418 381.129C167.474 382.073 166.194 382.604 164.858 382.604ZM65.2202 373.172C64.1657 373.173 63.1548 373.593 62.4092 374.339C61.6635 375.085 61.2441 376.096 61.2428 377.151V377.564C61.2441 378.619 61.6635 379.631 62.4092 380.377C63.1548 381.123 64.1657 381.543 65.2202 381.544H164.858C165.913 381.543 166.924 381.123 167.669 380.377C168.415 379.631 168.834 378.619 168.836 377.564V377.151C168.834 376.096 168.415 375.085 167.669 374.339C166.924 373.593 165.913 373.173 164.858 373.172H65.2202Z" fill="black"/>
<path d="M142.172 249.11H87.0111C84.6397 249.11 82.7173 251.033 82.7173 253.406V253.797C82.7173 256.17 84.6397 258.094 87.0111 258.094H142.172C144.543 258.094 146.466 256.17 146.466 253.797V253.406C146.466 251.033 144.543 249.11 142.172 249.11Z" fill="#F8F8F8"/>
<path d="M142.174 258.624H87.0107C85.7332 258.622 84.5085 258.114 83.6045 257.21C82.7005 256.307 82.1908 255.083 82.187 253.804V253.411C82.1889 252.132 82.6978 250.905 83.6021 250.001C84.5064 249.097 85.7322 248.588 87.0107 248.587H142.174C143.452 248.588 144.678 249.097 145.581 250.001C146.485 250.906 146.994 252.132 146.995 253.411V253.804C146.992 255.082 146.483 256.307 145.579 257.21C144.675 258.114 143.451 258.622 142.174 258.624ZM87.0107 249.637C86.0128 249.639 85.0562 250.036 84.3505 250.742C83.6449 251.448 83.248 252.405 83.2467 253.404V253.804C83.2473 254.803 83.6441 255.761 84.3498 256.467C85.0556 257.173 86.0126 257.57 87.0107 257.571H142.174C143.171 257.569 144.128 257.172 144.833 256.466C145.538 255.76 145.935 254.803 145.935 253.804V253.411C145.934 252.413 145.537 251.456 144.832 250.75C144.127 250.044 143.171 249.647 142.174 249.645L87.0107 249.637Z" fill="black"/>
<path d="M108.401 249.501H124.677C132.589 245.264 138.146 238.226 138.146 229.172C138.143 226.232 137.549 223.323 136.4 220.618C135.25 217.912 133.569 215.466 131.455 213.424C126.42 208.602 123.44 201.858 123.44 194.892V194.412H123.711C126.128 194.412 128.089 192.858 128.089 190.44C128.089 188.022 126.128 186.465 123.711 186.465H109.37C106.951 186.465 104.992 188.019 104.992 190.44C104.992 192.86 106.951 194.412 109.37 194.412H109.147V194.892C109.165 198.323 108.485 201.721 107.15 204.881C105.815 208.04 103.851 210.896 101.379 213.272C97.2793 217.207 94.8291 223.041 94.8291 229.172C94.8291 238.231 100.501 245.264 108.401 249.501Z" fill="black"/>
<path d="M74.2063 296.186C77.3757 310.709 64.8107 350.435 62.1783 360.114C62.0097 360.735 61.6415 361.283 61.1305 361.673C60.6196 362.063 59.9944 362.274 59.3517 362.273H47.6449C47.2596 362.275 46.8776 362.201 46.5213 362.054C46.165 361.907 45.8413 361.691 45.569 361.418C45.2968 361.145 45.0813 360.821 44.9352 360.464C44.789 360.107 44.7151 359.725 44.7176 359.339C44.8255 347.853 46.9113 305.976 39.7549 293.919C35.6121 286.94 32.5481 284.578 27.4727 281.255C15.2937 273.283 24.5215 250.602 24.5215 250.602L61.3583 282.159C67.7284 283.114 72.8422 289.929 74.2063 296.186Z" fill="black"/>
<path d="M56.7576 259.403C56.7576 259.403 96.9174 259.761 109.581 274.86C120.961 288.428 104.091 348.163 100.557 360.119C100.376 360.724 100.005 361.254 99.4985 361.63C98.9921 362.006 98.3776 362.208 97.7469 362.206H82.6598C82.5845 362.206 82.5099 362.192 82.4403 362.163C82.3706 362.135 82.3073 362.093 82.2539 362.04C82.2004 361.987 82.158 361.924 82.1289 361.854C82.0998 361.785 82.0847 361.711 82.0844 361.635V298.34C82.0844 294.353 81.3028 296.491 77.9296 294.331C73.2018 291.302 57.7478 294.454 45.9283 294.543C8.3962 294.826 18.6142 256.501 18.6142 256.501L56.7576 259.403Z" fill="black"/>
<path d="M47.5393 362.321L46.7529 372.572L56.1342 372.62L58.0713 362.391L47.5393 362.321Z" fill="#F8F8F8"/>
<path d="M56.1341 373.148L46.7528 373.102C46.6801 373.101 46.6083 373.085 46.5419 373.056C46.4756 373.026 46.416 372.983 46.3668 372.929C46.3172 372.876 46.2791 372.814 46.2552 372.745C46.2312 372.676 46.2219 372.604 46.2278 372.531L47.0142 362.281C47.0267 362.149 47.088 362.027 47.1861 361.938C47.2841 361.849 47.4118 361.8 47.544 361.801L58.076 361.873C58.1535 361.873 58.23 361.89 58.3001 361.923C58.3701 361.956 58.432 362.005 58.4812 362.065C58.5307 362.125 58.5665 362.195 58.586 362.27C58.6054 362.346 58.6081 362.425 58.5939 362.501L56.6543 372.728C56.629 372.847 56.5634 372.954 56.4687 373.03C56.3739 373.107 56.2558 373.148 56.1341 373.148ZM47.3234 372.044L55.6953 372.087L57.4335 362.916L48.0307 362.854L47.3234 372.044Z" fill="black"/>
<path d="M84.6328 362.321L84.7767 372.572L94.448 372.62L96.1694 362.391L84.6328 362.321Z" fill="#F8F8F8"/>
<path d="M94.4477 373.148L84.7836 373.102C84.6449 373.101 84.5122 373.045 84.4137 372.948C84.3152 372.85 84.2586 372.718 84.2561 372.579L84.1123 362.329C84.1122 362.186 84.1672 362.05 84.2657 361.947C84.3137 361.894 84.3728 361.853 84.4388 361.826C84.5047 361.799 84.5758 361.787 84.6469 361.791L96.1811 361.863C96.2577 361.863 96.3335 361.88 96.403 361.912C96.4725 361.945 96.5342 361.992 96.5839 362.05C96.6326 362.11 96.6682 362.178 96.6885 362.252C96.7087 362.326 96.7131 362.404 96.7013 362.48L94.98 372.706C94.9592 372.832 94.894 372.945 94.7962 373.026C94.6984 373.107 94.5747 373.15 94.4477 373.148ZM85.299 372.044L94.0018 372.087L95.5434 362.919L85.1696 362.854L85.299 372.044Z" fill="black"/>
<path d="M94.3114 371.31H85.3161C85.006 371.308 84.7022 371.398 84.4432 371.569C84.1843 371.74 83.9816 371.984 83.8609 372.27C83.0625 374.189 81.437 378.701 81.6552 382.974C81.6872 383.538 81.9345 384.069 82.3463 384.457C82.7581 384.844 83.3028 385.059 83.8681 385.056H110.266C110.55 385.057 110.83 384.995 111.087 384.875C111.344 384.755 111.571 384.58 111.752 384.361C111.933 384.143 112.063 383.887 112.133 383.612C112.203 383.337 112.212 383.05 112.158 382.772C111.868 381.357 110.863 379.497 107.97 377.823C103.283 375.115 97.3945 372.406 95.5365 371.567C95.1507 371.396 94.7332 371.308 94.3114 371.31Z" fill="#F8F8F8"/>
<path d="M110.266 385.593H83.8678C83.1669 385.596 82.4916 385.33 81.9813 384.849C81.4709 384.368 81.1645 383.71 81.1252 383.009C80.8998 378.579 82.6212 373.894 83.3692 372.073C83.5292 371.689 83.7996 371.361 84.1462 371.13C84.4928 370.9 84.8999 370.778 85.3159 370.78H94.3112C94.8074 370.78 95.2978 370.886 95.7496 371.092C97.4782 371.871 103.493 374.635 108.216 377.372C111.362 379.19 112.369 381.258 112.661 382.674C112.734 383.025 112.727 383.387 112.641 383.735C112.555 384.083 112.393 384.407 112.165 384.684C111.935 384.967 111.646 385.195 111.318 385.352C110.989 385.509 110.63 385.592 110.266 385.593ZM85.3159 371.831C85.1109 371.831 84.9107 371.893 84.7402 372.007C84.5697 372.12 84.4364 372.282 84.3569 372.471C83.6377 374.215 81.9786 378.73 82.1992 382.945C82.2249 383.372 82.413 383.774 82.725 384.067C83.037 384.361 83.4492 384.524 83.8774 384.523H110.266C110.475 384.524 110.682 384.477 110.871 384.388C111.06 384.298 111.227 384.167 111.359 384.005C111.488 383.85 111.579 383.668 111.628 383.473C111.676 383.278 111.681 383.075 111.64 382.878C111.285 381.153 109.923 379.562 107.703 378.279C103.012 375.566 97.0371 372.824 95.3181 372.042C95.0017 371.899 94.6584 371.825 94.3112 371.826L85.3159 371.831Z" fill="black"/>
<path d="M55.8128 370.202H46.8176C46.5074 370.2 46.2035 370.29 45.9444 370.461C45.6854 370.631 45.4828 370.875 45.3623 371.161C44.564 373.08 42.9385 377.593 43.1567 381.865C43.1892 382.43 43.4368 382.96 43.8484 383.348C44.26 383.735 44.8044 383.95 45.3695 383.947H71.7679C72.0516 383.949 72.3321 383.888 72.5892 383.768C72.8463 383.648 73.0737 383.472 73.2548 383.254C73.436 383.035 73.5665 382.78 73.6368 382.505C73.7072 382.23 73.7158 381.942 73.6619 381.664C73.3694 380.248 72.3649 378.387 69.4711 376.715C64.7841 374.006 58.896 371.296 57.0379 370.458C56.6527 370.286 56.2349 370.198 55.8128 370.202Z" fill="#F8F8F8"/>
<path d="M71.7681 384.485H45.3698C44.6699 384.488 43.9955 384.222 43.4857 383.742C42.9758 383.262 42.6694 382.605 42.6295 381.906C42.4017 377.475 44.1231 372.79 44.8735 370.972C45.0331 370.588 45.3031 370.26 45.6493 370.03C45.9955 369.799 46.4022 369.677 46.8178 369.679H55.8131C56.3093 369.679 56.7997 369.785 57.2515 369.991C58.9825 370.77 64.9953 373.531 69.7327 376.271C72.8757 378.087 73.8827 380.157 74.1752 381.57C74.2473 381.921 74.2401 382.284 74.1543 382.633C74.0684 382.981 73.906 383.305 73.6789 383.583C73.4475 383.866 73.1559 384.094 72.8253 384.25C72.4948 384.406 72.1336 384.486 71.7681 384.485ZM46.8178 370.732C46.6129 370.732 46.4124 370.792 46.2418 370.906C46.0711 371.019 45.9379 371.181 45.8588 371.37C45.1396 373.116 43.4782 377.629 43.7011 381.846C43.7268 382.274 43.9149 382.675 44.2269 382.969C44.5389 383.262 44.9512 383.425 45.3794 383.424H71.7681C71.9777 383.425 72.1848 383.379 72.3743 383.289C72.5638 383.199 72.731 383.069 72.8638 382.906C72.991 382.751 73.082 382.569 73.1301 382.374C73.1782 382.179 73.1822 381.976 73.1419 381.779C72.787 380.054 71.4253 378.464 69.2077 377.18C64.5134 374.467 58.539 371.725 56.82 370.943C56.5036 370.8 56.1603 370.726 55.8131 370.727L46.8178 370.732Z" fill="black"/>
<path d="M93.8267 239.682L98.5856 237.904C100.6 237.145 102.827 237.177 104.819 237.993C107.308 239.013 110.686 240.666 113.002 242.858C113.582 243.407 113.224 244.415 112.443 244.415H94.0472L93.8267 239.682Z" fill="#F8F8F8"/>
<path d="M112.433 244.945H94.0473C93.9113 244.946 93.7803 244.894 93.6819 244.8C93.5835 244.706 93.5254 244.577 93.5198 244.441L93.2969 239.708C93.2921 239.596 93.3229 239.485 93.3849 239.391C93.4469 239.297 93.5369 239.225 93.6421 239.185L98.401 237.408C100.537 236.604 102.897 236.638 105.008 237.504C107.499 238.523 110.968 240.215 113.354 242.474C113.567 242.674 113.715 242.933 113.778 243.219C113.84 243.504 113.815 243.802 113.704 244.072C113.607 244.33 113.433 244.552 113.205 244.708C112.978 244.864 112.709 244.947 112.433 244.945ZM94.5531 243.887H112.433C112.497 243.887 112.559 243.867 112.61 243.829C112.661 243.792 112.699 243.739 112.719 243.679C112.75 243.605 112.758 243.524 112.741 243.446C112.725 243.368 112.685 243.297 112.628 243.242C110.36 241.083 107.015 239.468 104.608 238.483C102.742 237.72 100.657 237.691 98.7703 238.401L94.3733 240.044L94.5531 243.887Z" fill="black"/>
<path d="M94.1865 238.027C89.6865 236.875 72.5039 232.315 68.5122 228.805C63.909 224.761 62.3267 208.858 55.1272 202.657C47.146 195.784 38.4816 196.981 38.4816 196.981L25.0008 197.744C25.0008 197.764 25.0151 197.78 25.0199 197.799C12.2919 200.028 12.7929 218.49 12.7929 218.49L12.0449 263.232C12.0449 263.232 19.1893 265.014 28.8679 265.566C35.9547 265.969 45.4846 265.624 49.0952 265.463C57.9658 265.07 59.1885 259.305 59.1885 259.305C57.2705 258.381 55.4652 256.841 53.8661 255.124C50.0518 251.031 49.1 245.125 51.0923 239.912C51.8594 237.899 52.2377 235.758 52.2071 233.603C54.3648 235.87 56.3283 237.883 57.9178 239.521C59.2265 240.868 60.792 241.939 62.5216 242.67C64.2511 243.401 66.1096 243.777 67.9871 243.777H95.251L95.2653 239.418C95.2648 239.099 95.1586 238.79 94.9634 238.538C94.7681 238.286 94.4949 238.106 94.1865 238.027Z" fill="#F8F8F8"/>
<path d="M36.717 266.279C34.039 266.279 31.3083 266.226 28.8509 266.087C23.154 265.779 17.4929 264.994 11.9273 263.738C11.8116 263.71 11.709 263.642 11.6363 263.548C11.5636 263.453 11.525 263.337 11.5269 263.218L12.2773 218.473C12.2773 218.31 11.9057 199.762 24.7177 197.31C24.7894 197.252 24.8772 197.216 24.9694 197.209L38.4503 196.447C38.774 196.401 47.4024 195.297 55.4723 202.247C59.5887 205.793 61.8878 212.346 63.9185 218.13C65.4648 222.537 66.9249 226.697 68.862 228.398C71.9308 231.096 84.0235 234.875 94.3182 237.513C94.7435 237.622 95.1201 237.87 95.3878 238.218C95.6556 238.566 95.799 238.993 95.795 239.433L95.7807 243.794C95.7794 243.934 95.7231 244.068 95.6239 244.166C95.5248 244.265 95.3907 244.321 95.2508 244.322H68.0014C66.0525 244.316 64.1243 243.921 62.3299 243.16C60.5354 242.399 58.9107 241.288 57.5508 239.891L57.1409 239.469C55.8559 238.147 54.355 236.59 52.72 234.894C52.6117 236.677 52.2334 238.433 51.598 240.102C49.6273 245.264 50.639 250.883 54.2639 254.762C56.0333 256.659 57.7714 258.026 59.4305 258.84C59.5367 258.891 59.6228 258.977 59.6749 259.083C59.727 259.189 59.7423 259.309 59.7182 259.425C59.6654 259.665 58.3085 265.595 49.1286 266.003C46.6904 266.104 41.802 266.279 36.717 266.279ZM12.5938 262.807C17.9651 263.981 23.4214 264.724 28.9109 265.029C35.9881 265.432 45.3766 265.091 49.083 264.928C56.1843 264.611 58.1214 260.814 58.565 259.571C56.9131 258.696 55.2085 257.321 53.4896 255.476C49.5961 251.3 48.4909 245.259 50.6126 239.716C51.3583 237.766 51.7253 235.693 51.6939 233.606C51.6921 233.499 51.7226 233.394 51.7813 233.305C51.84 233.216 51.9242 233.147 52.0229 233.106C52.1215 233.066 52.2301 233.056 52.3344 233.079C52.4386 233.101 52.5338 233.154 52.6073 233.231C54.5852 235.304 56.3929 237.168 57.9057 238.725L58.3132 239.147C59.5748 240.44 61.0813 241.469 62.7447 242.174C64.4081 242.878 66.1951 243.244 68.0014 243.249H94.7234V239.411C94.7241 239.21 94.6575 239.014 94.5341 238.855C94.4107 238.695 94.2377 238.582 94.0425 238.533C88.9911 237.24 72.1897 232.747 68.15 229.196C66.0067 227.313 64.5706 223.221 62.9068 218.485C60.9217 212.826 58.6705 206.412 54.7698 203.053C47.0788 196.43 38.6253 197.49 38.5414 197.502L25.2715 198.255C25.2186 198.285 25.161 198.305 25.1013 198.315C12.963 200.441 13.3178 218.291 13.3226 218.466L12.5938 262.807Z" fill="black"/>
<path d="M52.8065 235.702C52.7337 235.703 52.6615 235.688 52.5947 235.659C52.5278 235.63 52.4677 235.588 52.4181 235.534C48.8105 231.656 45.98 227.12 44.0798 222.175C44.0359 222.045 44.0438 221.904 44.1018 221.78C44.1597 221.656 44.2633 221.559 44.3908 221.51C44.5184 221.461 44.66 221.463 44.7861 221.516C44.9122 221.568 45.013 221.668 45.0675 221.793C46.9202 226.612 49.6782 231.032 53.1925 234.812C53.288 234.915 53.3389 235.052 53.334 235.192C53.329 235.332 53.2687 235.465 53.1661 235.561C53.069 235.653 52.9401 235.703 52.8065 235.702Z" fill="black"/>
<path d="M46.5181 173.616C46.5181 173.616 47.024 178.126 49.2824 180.633C49.3683 180.724 49.4225 180.841 49.4368 180.965C49.451 181.09 49.4246 181.216 49.3615 181.324L48.4313 182.881C48.3496 183.015 48.2828 183.159 48.2323 183.308L46.6859 187.866C46.6169 188.071 46.4892 188.251 46.3188 188.385C46.1484 188.518 45.9426 188.599 45.7269 188.616C44.768 188.696 42.3082 188.321 42.1068 188.967C41.8838 189.686 42.0564 195.53 42.1427 198.083C42.1545 198.409 42.0483 198.73 41.8436 198.985C41.6389 199.24 41.3494 199.412 41.0279 199.472L35.7943 200.431C33.4477 200.864 31.0251 200.581 28.8417 199.618C28.6739 199.545 28.5225 199.439 28.3963 199.306C28.2701 199.174 28.1717 199.017 28.1069 198.846C28.0421 198.674 28.0122 198.492 28.019 198.309C28.0258 198.126 28.0691 197.946 28.1464 197.78C29.3451 195.221 31.9632 189.115 31.6155 185.378L29.29 178.867C29.3068 178.123 29.4704 177.39 29.7714 176.709C30.0725 176.028 30.5051 175.414 31.0442 174.901C31.5834 174.389 32.2186 173.988 32.9132 173.721C33.6079 173.455 34.3483 173.329 35.0918 173.35L46.5181 173.616Z" fill="#F8F8F8"/>
<path d="M33.6291 201.144C31.9066 201.144 30.2031 200.783 28.628 200.086C28.3958 199.984 28.1864 199.837 28.0119 199.652C27.8375 199.468 27.7016 199.251 27.6122 199.014C27.5229 198.777 27.4819 198.524 27.4916 198.27C27.5014 198.017 27.5617 197.768 27.669 197.538C28.803 195.113 31.3947 189.103 31.0974 185.476L28.7934 179.028C28.7724 178.968 28.7619 178.905 28.7623 178.841C28.78 178.027 28.9585 177.224 29.2875 176.479C29.6165 175.734 30.0896 175.062 30.6795 174.5C31.2693 173.939 31.9643 173.5 32.7244 173.209C33.4845 172.918 34.2947 172.78 35.1083 172.803L46.5346 173.086C46.6638 173.09 46.787 173.141 46.8814 173.229C46.9758 173.317 47.0349 173.437 47.0476 173.566C47.0476 173.609 47.5607 177.941 49.6848 180.283C49.8473 180.457 49.9489 180.68 49.9744 180.918C49.9999 181.155 49.948 181.394 49.8263 181.6L48.8937 183.157C48.8337 183.261 48.7832 183.37 48.7427 183.483L47.1963 188.041C47.0946 188.343 46.9067 188.609 46.6558 188.806C46.4049 189.003 46.1019 189.122 45.7842 189.149C45.3753 189.17 44.9656 189.17 44.5567 189.149C43.9789 189.125 42.9312 189.084 42.6124 189.216C42.5213 189.78 42.4925 192.371 42.6867 198.068C42.7019 198.521 42.5538 198.964 42.2694 199.316C41.9851 199.669 41.5834 199.907 41.1379 199.987L35.9043 200.947C35.1533 201.081 34.3919 201.147 33.6291 201.144ZM29.8219 178.764L32.1139 185.184C32.1297 185.225 32.1394 185.269 32.1427 185.313C32.5023 189.192 29.8028 195.47 28.6256 197.987C28.5776 198.089 28.5505 198.199 28.5462 198.312C28.5418 198.425 28.5602 198.537 28.6003 198.643C28.6404 198.748 28.7012 198.845 28.7793 198.926C28.8574 199.007 28.9511 199.072 29.0548 199.116C31.1421 200.039 33.4592 200.31 35.7029 199.894L40.9341 198.934C41.1313 198.899 41.3091 198.793 41.4349 198.637C41.5608 198.481 41.6265 198.285 41.6198 198.085C41.428 192.512 41.4232 189.391 41.6054 188.804C41.8668 187.964 43.1302 188.014 44.5879 188.07C44.9544 188.089 45.3218 188.089 45.6883 188.07C45.8004 188.061 45.9074 188.019 45.9957 187.949C46.0841 187.88 46.1498 187.785 46.1846 187.678L47.7309 183.121C47.7937 182.937 47.874 182.759 47.9707 182.59L48.9033 181.034C48.9033 181.017 48.9033 180.99 48.8841 180.971C46.947 178.812 46.2469 175.362 46.0503 174.117L35.0748 173.844C34.3948 173.828 33.7184 173.947 33.0846 174.194C32.4509 174.441 31.8724 174.811 31.3827 175.283C30.4265 176.194 29.866 177.444 29.8219 178.764Z" fill="black"/>
<path d="M47.5753 172.021C47.6843 172.188 47.7559 172.378 47.785 172.576C47.8142 172.774 47.8003 172.975 47.7443 173.167C47.6883 173.359 47.5915 173.537 47.4606 173.688C47.3296 173.839 47.1676 173.96 46.9855 174.043L46.506 174.257L37.5539 178.683C37.4422 178.738 37.3175 178.763 37.193 178.754C37.0685 178.744 36.9489 178.702 36.8467 178.63C36.4751 178.361 35.8062 178.03 35.1373 178.457C34.2047 179.052 34.0177 182.233 36.4127 183.077C36.4878 183.1 36.5573 183.139 36.6169 183.19C36.6765 183.241 36.7249 183.304 36.7591 183.375C36.7933 183.445 36.8126 183.522 36.8157 183.601C36.8188 183.679 36.8057 183.757 36.7772 183.831C36.5962 184.264 36.3871 184.684 36.1514 185.09C34.0369 188.732 28.8056 188.948 26.2859 185.57C24.4279 183.082 22.7281 178.992 24.821 173.4C28.0936 164.632 41.5073 162.744 47.5753 172.021Z" fill="black"/>
<path d="M25.7175 169.987C25.7175 169.987 21.8 165.335 16.0677 167.139C10.3354 168.943 10.0453 178.654 9.3812 184.697C7.04129 206.004 1.83162 213.759 0.153403 215.686C-1.70942 217.821 12.939 216.372 17.873 214.688C32.0995 209.837 24.6074 196.135 23.9409 193.666C23.2745 191.198 17.9689 177.39 24.5619 175.775L27.9039 172.928L25.7175 169.987Z" fill="black"/>
<path d="M23.9146 176.636L23.9865 176.663C24.135 176.718 24.293 176.743 24.4512 176.736C24.6095 176.73 24.7649 176.692 24.9084 176.625C25.052 176.558 25.1809 176.463 25.2876 176.346C25.3944 176.229 25.4769 176.092 25.5305 175.943L27.2782 171.22C27.3862 170.921 27.371 170.591 27.2362 170.303C27.1013 170.015 26.8577 169.793 26.559 169.684L26.487 169.658C26.3385 169.603 26.1805 169.578 26.0223 169.584C25.8641 169.591 25.7087 169.629 25.5651 169.696C25.4215 169.763 25.2927 169.857 25.1859 169.974C25.0791 170.091 24.9966 170.228 24.9431 170.378L23.1953 175.101C23.0874 175.4 23.1025 175.73 23.2374 176.018C23.3722 176.306 23.6158 176.528 23.9146 176.636Z" fill="#F8F8F8"/>
<path d="M24.399 177.279C24.1962 177.279 23.9949 177.244 23.8044 177.174L23.7325 177.147C23.5195 177.069 23.3238 176.95 23.1568 176.797C22.9898 176.643 22.8547 176.458 22.7592 176.252C22.6636 176.046 22.6096 175.824 22.6001 175.597C22.5907 175.37 22.626 175.144 22.704 174.931L24.4518 170.205C24.6125 169.775 24.9361 169.427 25.3523 169.235C25.7685 169.043 26.2436 169.024 26.6742 169.181L26.7461 169.207C26.9603 169.285 27.1569 169.405 27.3247 169.559C27.4926 169.714 27.6284 169.9 27.7243 170.106C27.8195 170.312 27.873 170.535 27.8816 170.761C27.8903 170.988 27.8539 171.214 27.7746 171.426L26.0269 176.149C25.9031 176.481 25.6808 176.768 25.3899 176.969C25.0989 177.171 24.7531 177.28 24.399 177.279ZM26.0772 170.135C25.9396 170.135 25.8053 170.177 25.6922 170.256C25.5791 170.334 25.4926 170.445 25.4443 170.574L23.6966 175.298C23.6657 175.379 23.6516 175.466 23.6548 175.553C23.6581 175.64 23.6788 175.725 23.7157 175.804C23.7532 175.884 23.8062 175.956 23.8716 176.016C23.937 176.076 24.0136 176.122 24.0969 176.152L24.1665 176.178C24.3343 176.24 24.52 176.233 24.6827 176.159C24.8453 176.084 24.9718 175.948 25.0343 175.78L26.7821 171.056C26.8128 170.976 26.827 170.889 26.8237 170.803C26.8204 170.716 26.7997 170.631 26.7629 170.553C26.7255 170.472 26.6725 170.4 26.6071 170.34C26.5417 170.28 26.4651 170.233 26.3817 170.202L26.3098 170.176C26.2357 170.146 26.1571 170.128 26.0772 170.123V170.135Z" fill="black"/>
<path d="M40.3419 384.672H50.416L50.416 302.43H40.3419L40.3419 384.672Z" fill="#F8F8F8"/>
<path d="M50.4185 385.202H40.3492C40.2086 385.202 40.0739 385.146 39.9745 385.047C39.8752 384.947 39.8193 384.813 39.8193 384.672V302.43C39.8193 302.29 39.8752 302.155 39.9745 302.055C40.0739 301.956 40.2086 301.9 40.3492 301.9H50.4185C50.4879 301.9 50.5567 301.914 50.6209 301.94C50.685 301.967 50.7433 302.006 50.7923 302.055C50.8413 302.105 50.8801 302.163 50.9065 302.227C50.9328 302.292 50.9462 302.361 50.9459 302.43V384.672C50.9462 384.741 50.9328 384.81 50.9065 384.875C50.8801 384.939 50.8413 384.997 50.7923 385.047C50.7433 385.096 50.685 385.135 50.6209 385.162C50.5567 385.188 50.4879 385.202 50.4185 385.202ZM40.8742 384.142H49.8886V302.96H40.8742V384.142Z" fill="black"/>
<path d="M80.3052 384.912H9.39326V384.432C9.39326 381.607 10.515 378.897 12.5117 376.899C14.5084 374.901 17.2166 373.779 20.0404 373.779H69.6485C72.4723 373.779 75.1804 374.901 77.1771 376.899C79.1738 378.897 80.2956 381.607 80.2956 384.432V384.912H80.3052Z" fill="#F8F8F8"/>
<path d="M80.3075 385.442H9.39556C9.25504 385.442 9.12028 385.386 9.02091 385.287C8.92155 385.187 8.86572 385.052 8.86572 384.912V384.432C8.86699 381.464 10.0461 378.618 12.1437 376.519C14.2414 374.421 17.086 373.242 20.0522 373.241H69.6796C72.6427 373.245 75.4834 374.424 77.5786 376.521C79.6739 378.618 80.8527 381.46 80.8565 384.425V384.905C80.8575 384.977 80.8439 385.048 80.8165 385.114C80.7892 385.181 80.7485 385.241 80.6972 385.291C80.6458 385.341 80.5848 385.381 80.5178 385.407C80.4508 385.433 80.3793 385.445 80.3075 385.442ZM9.923 384.384H79.7776C79.7618 381.708 78.6893 379.148 76.794 377.26C74.8987 375.373 72.3344 374.312 69.6604 374.309H20.0522C17.3763 374.309 14.8093 375.369 12.9116 377.257C11.0138 379.144 9.93946 381.707 9.923 384.384Z" fill="black"/>
<path d="M26.7771 305.717H64.832C67.6244 305.717 69.8882 303.452 69.8882 300.657V297.481C69.8882 294.687 67.6244 292.422 64.832 292.422H26.7771C23.9847 292.422 21.7209 294.687 21.7209 297.481V300.657C21.7209 303.452 23.9847 305.717 26.7771 305.717Z" fill="#F8F8F8"/>
<path d="M64.8323 306.247H26.7775C25.2963 306.246 23.8762 305.656 22.8289 304.608C21.7816 303.56 21.1927 302.139 21.1914 300.657V297.481C21.1927 295.999 21.7816 294.578 22.8289 293.53C23.8762 292.482 25.2963 291.893 26.7775 291.892H64.8323C66.3132 291.894 67.7329 292.483 68.7801 293.531C69.8273 294.579 70.4164 295.999 70.4183 297.481V300.657C70.4164 302.139 69.8273 303.56 68.7801 304.608C67.7329 305.655 66.3132 306.245 64.8323 306.247ZM26.7775 292.952C25.5774 292.953 24.4268 293.431 23.5782 294.28C22.7296 295.129 22.2524 296.28 22.2511 297.481V300.657C22.2524 301.858 22.7296 303.009 23.5782 303.859C24.4268 304.708 25.5774 305.185 26.7775 305.187H64.8323C66.0324 305.185 67.1829 304.708 68.0315 303.859C68.8801 303.009 69.3574 301.858 69.3587 300.657V297.481C69.3574 296.28 68.8801 295.129 68.0315 294.28C67.1829 293.431 66.0324 292.953 64.8323 292.952H26.7775Z" fill="black"/>
<path d="M370.355 389.31L383.758 388.13L375.028 288.885L361.625 290.065L370.355 389.31Z" fill="black"/>
<path d="M255.087 387.894L268.521 388.629L273.958 289.149L260.523 288.414L255.087 387.894Z" fill="black"/>
<path d="M136.603 386.866L149.683 390.018L172.995 293.158L159.914 290.006L136.603 386.866Z" fill="black"/>
<path d="M411.461 323.181C412.332 323.142 413.158 322.782 413.78 322.17C414.403 321.559 414.777 320.739 414.832 319.868L434.364 8.90955C434.498 6.80571 425.105 0.436601 423.002 0.530158L188.572 2.92907C186.769 3.01063 190.277 12.3952 190.164 14.2039L158.671 320.074C158.537 322.173 411.461 323.181 411.461 323.181Z" fill="#F8F8F8"/>
<path d="M411.458 323.709C410.833 323.709 348.031 323.454 285.798 322.953C159.668 321.931 158.733 320.94 158.294 320.463C158.191 320.347 158.136 320.196 158.141 320.041L189.636 14.1392C189.67 13.5922 189.214 11.8602 188.773 10.1858C187.723 6.20117 187.136 3.70871 187.814 2.78753C187.897 2.67204 188.004 2.57682 188.129 2.50908C188.253 2.44133 188.392 2.40284 188.533 2.39651L422.983 -0.00240135H423.043C424.961 -0.00240135 430.823 3.79507 433.417 6.43867C434.455 7.49658 434.92 8.29302 434.879 8.94072L415.347 319.899C415.285 320.901 414.854 321.844 414.138 322.546C413.423 323.249 412.472 323.662 411.47 323.706L411.458 323.709ZM159.246 319.722C167.913 321.278 327.181 322.315 411.458 322.651C412.197 322.614 412.896 322.307 413.422 321.787C413.949 321.268 414.265 320.573 414.311 319.834L433.836 8.87596C433.836 8.82558 433.836 8.36259 432.676 7.18473C429.955 4.41159 424.347 1.00035 423.026 1.06032L188.646 3.45923C188.277 4.14771 189.262 7.89001 189.797 9.91948C190.382 12.1361 190.737 13.5178 190.691 14.2375L159.246 319.722Z" fill="black"/>
<path d="M151.593 322.538H384.995C386.416 322.54 387.787 322.015 388.844 321.066C389.901 320.117 390.571 318.81 390.723 317.397L424.453 7.12955C424.541 6.32443 424.459 5.50964 424.212 4.73843C423.964 3.96721 423.557 3.25693 423.016 2.654C422.476 2.05107 421.814 1.56905 421.075 1.23945C420.335 0.909855 419.534 0.740094 418.725 0.74126H185.323C183.903 0.739602 182.532 1.26378 181.474 2.21288C180.417 3.16199 179.748 4.46892 179.596 5.88212L145.866 316.152C145.778 316.957 145.86 317.771 146.108 318.542C146.355 319.313 146.763 320.023 147.303 320.626C147.844 321.229 148.505 321.71 149.244 322.04C149.984 322.369 150.784 322.539 151.593 322.538Z" fill="#F8F8F8"/>
<path d="M384.995 323.068H151.593C150.71 323.068 149.837 322.881 149.03 322.521C148.224 322.161 147.502 321.635 146.912 320.977C146.323 320.319 145.878 319.544 145.607 318.703C145.336 317.862 145.246 316.973 145.341 316.094L179.071 5.82455C179.236 4.28179 179.967 2.85499 181.121 1.81901C182.276 0.783016 183.773 0.21113 185.323 0.213506H418.725C419.61 0.212164 420.485 0.397717 421.293 0.758041C422.101 1.11836 422.824 1.64533 423.415 2.30449C424.006 2.96364 424.45 3.74013 424.721 4.58317C424.991 5.42621 425.08 6.31681 424.982 7.19672L391.248 317.455C391.083 318.998 390.352 320.425 389.198 321.462C388.043 322.498 386.546 323.07 384.995 323.068ZM185.323 1.27142C184.033 1.26994 182.789 1.74597 181.829 2.60784C180.869 3.46971 180.261 4.6565 180.123 5.9397L146.398 316.21C146.319 316.94 146.395 317.679 146.62 318.379C146.845 319.078 147.215 319.722 147.706 320.269C148.196 320.816 148.796 321.254 149.467 321.553C150.138 321.853 150.864 322.008 151.598 322.008H385C386.29 322.01 387.535 321.534 388.495 320.672C389.455 319.81 390.063 318.623 390.2 317.339L423.925 7.07198C424.005 6.34118 423.929 5.60182 423.704 4.90206C423.479 4.2023 423.109 3.55783 422.619 3.01061C422.128 2.46339 421.528 2.02571 420.857 1.72605C420.186 1.4264 419.46 1.27149 418.725 1.27142H185.323Z" fill="black"/>
<path d="M376.554 312.35H164.051C163.247 312.346 162.454 312.173 161.721 311.842C160.989 311.512 160.334 311.031 159.8 310.431C159.242 309.805 158.821 309.069 158.564 308.271C158.308 307.473 158.222 306.63 158.311 305.796L189.02 16.3126C189.154 14.8778 189.815 13.5437 190.875 12.5687C191.935 11.5937 193.32 11.0472 194.76 11.035H407.263C408.066 11.0388 408.859 11.2117 409.591 11.5423C410.323 11.873 410.977 12.354 411.511 12.9541C412.068 13.5794 412.487 14.3144 412.743 15.1118C412.999 15.9092 413.084 16.7514 412.995 17.584L382.293 307.079C382.158 308.513 381.496 309.845 380.436 310.818C379.376 311.791 377.993 312.337 376.554 312.35ZM194.76 12.0977C193.583 12.1098 192.453 12.558 191.587 13.3555C190.721 14.153 190.182 15.2433 190.073 16.4157L159.364 305.916C159.289 306.602 159.359 307.297 159.57 307.954C159.782 308.612 160.128 309.218 160.589 309.732C161.022 310.223 161.555 310.616 162.152 310.885C162.749 311.153 163.396 311.291 164.051 311.289H376.554C377.731 311.277 378.861 310.829 379.727 310.032C380.594 309.234 381.134 308.144 381.243 306.971L411.95 17.4712C412.024 16.7847 411.953 16.0902 411.742 15.4328C411.531 14.7753 411.185 14.1695 410.725 13.6546C410.291 13.164 409.758 12.7714 409.161 12.5029C408.564 12.2345 407.917 12.0963 407.263 12.0977H194.76Z" fill="black"/>
<path d="M306.963 260.152C293.806 260.152 282.075 243.813 273.399 231.734C267.165 223.034 254.154 204.931 245.348 184.809C234.351 159.695 233.841 140.336 243.843 127.272C250.884 118.067 262.766 112.43 278.201 110.973C290.615 109.8 304.884 111.523 318.387 115.822C332.388 120.281 344.833 127.144 354.375 135.675C354.737 135.999 355.499 136.695 356.533 137.692C356.632 137.791 356.689 137.924 356.69 138.064C356.692 138.204 356.638 138.339 356.541 138.439C356.443 138.54 356.31 138.597 356.17 138.6C356.03 138.603 355.895 138.55 355.794 138.453C354.78 137.467 354.03 136.774 353.673 136.464C334.879 119.672 303.885 109.613 278.306 112.029C263.171 113.468 251.546 118.95 244.687 127.915C234.941 140.65 235.492 159.65 246.324 184.382C255.092 204.404 268.045 222.443 274.271 231.113C283.209 243.561 295.455 260.605 308.756 258.984C315.654 258.144 319.027 252.746 324.615 243.775C329.36 236.165 335.857 225.744 347.535 213.731C349.014 212.207 350.513 210.727 351.99 209.326C352.094 209.25 352.223 209.215 352.351 209.227C352.48 209.239 352.6 209.298 352.688 209.392C352.776 209.486 352.827 209.61 352.831 209.739C352.835 209.868 352.791 209.995 352.709 210.094C351.242 211.485 349.755 212.958 348.285 214.47C336.687 226.402 330.223 236.779 325.51 244.336C319.952 253.245 316.282 259.135 308.881 260.037C308.244 260.114 307.604 260.152 306.963 260.152Z" fill="black"/>
<path d="M340.036 114.253C341.695 114.619 343.183 115.531 344.262 116.844C345.34 118.156 345.948 119.793 345.986 121.493L346.706 153.137C346.729 154.133 346.556 155.124 346.196 156.054C345.836 156.983 345.297 157.832 344.609 158.553C343.921 159.274 343.098 159.852 342.186 160.254C341.275 160.656 340.293 160.875 339.298 160.897L316.186 161.427L316.776 187.335C316.821 189.348 316.066 191.296 314.677 192.751C313.287 194.207 311.376 195.05 309.365 195.096L275.921 195.861C274.919 195.895 273.92 195.729 272.982 195.373C272.044 195.018 271.186 194.48 270.458 193.791C269.729 193.102 269.144 192.275 268.737 191.358C268.329 190.441 268.108 189.452 268.085 188.449C268.062 187.446 268.238 186.448 268.603 185.514C268.968 184.579 269.514 183.726 270.21 183.004C270.907 182.282 271.739 181.706 272.66 181.308C273.58 180.91 274.571 180.698 275.573 180.686L301.437 180.093L300.845 154.185C300.799 152.173 301.554 150.224 302.944 148.769C304.334 147.314 306.244 146.47 308.255 146.424L331.367 145.897L330.818 121.838C330.792 120.688 331.028 119.548 331.507 118.503C331.986 117.458 332.696 116.535 333.583 115.804C334.471 115.074 335.513 114.555 336.63 114.286C337.747 114.017 338.911 114.006 340.034 114.253H340.036Z" fill="#F8F8F8"/>
<path d="M275.743 196.401C273.592 196.425 271.519 195.592 269.98 194.087C268.442 192.581 267.564 190.526 267.541 188.373C267.517 186.22 268.349 184.146 269.853 182.606C271.358 181.067 273.412 180.189 275.564 180.165L300.898 179.587L300.315 154.197C300.268 152.045 301.076 149.962 302.562 148.406C304.048 146.849 306.09 145.946 308.241 145.894L330.825 145.379L330.283 121.864C330.259 120.799 330.444 119.738 330.829 118.744C331.215 117.75 331.792 116.842 332.528 116.071C333.264 115.3 334.144 114.681 335.119 114.251C336.094 113.82 337.144 113.586 338.209 113.562C339.274 113.537 340.334 113.723 341.327 114.109C342.321 114.494 343.229 115.071 343.999 115.808C344.77 116.544 345.388 117.425 345.818 118.401C346.248 119.376 346.482 120.427 346.507 121.493L347.226 153.137C347.25 154.203 347.065 155.263 346.68 156.257C346.295 157.251 345.718 158.16 344.982 158.931C344.246 159.702 343.365 160.32 342.39 160.751C341.415 161.181 340.365 161.415 339.3 161.439L316.716 161.955L317.296 187.345C317.344 189.498 316.536 191.582 315.05 193.139C313.563 194.696 311.519 195.598 309.368 195.648L275.921 196.411L275.743 196.401ZM338.41 114.598H338.243C337.316 114.619 336.403 114.822 335.555 115.196C334.708 115.571 333.942 116.108 333.302 116.778C332.662 117.449 332.16 118.239 331.825 119.103C331.49 119.968 331.329 120.89 331.35 121.817L331.899 145.875C331.901 145.945 331.888 146.014 331.863 146.079C331.838 146.144 331.8 146.203 331.752 146.254C331.704 146.304 331.647 146.344 331.583 146.372C331.519 146.4 331.451 146.416 331.381 146.417L308.27 146.945C306.4 146.99 304.624 147.775 303.332 149.128C302.039 150.481 301.336 152.292 301.377 154.163L301.969 180.072C301.971 180.141 301.959 180.211 301.934 180.276C301.909 180.341 301.871 180.4 301.823 180.451C301.775 180.501 301.717 180.541 301.654 180.569C301.59 180.597 301.521 180.612 301.451 180.614L275.588 181.206C273.733 181.272 271.979 182.066 270.705 183.417C269.432 184.768 268.742 186.566 268.784 188.423C268.826 190.279 269.598 192.044 270.931 193.335C272.265 194.627 274.053 195.34 275.909 195.321L309.356 194.556C310.282 194.535 311.195 194.332 312.043 193.958C312.891 193.584 313.657 193.046 314.297 192.376C314.937 191.706 315.439 190.916 315.773 190.051C316.108 189.187 316.27 188.265 316.248 187.338L315.659 161.446C315.657 161.377 315.669 161.307 315.694 161.242C315.719 161.177 315.756 161.118 315.805 161.067C315.853 161.017 315.91 160.977 315.974 160.949C316.038 160.921 316.107 160.906 316.176 160.904L339.288 160.377C341.159 160.333 342.936 159.548 344.228 158.194C345.521 156.84 346.223 155.028 346.181 153.156L345.461 121.512C345.431 119.93 344.868 118.405 343.864 117.183C342.859 115.961 341.473 115.114 339.928 114.778C339.43 114.665 338.921 114.607 338.41 114.605V114.598Z" fill="black"/>
<path d="M204.97 251.669C199.431 251.669 194.016 250.026 189.411 246.946C184.805 243.867 181.215 239.49 179.095 234.37C176.976 229.249 176.421 223.614 177.502 218.178C178.582 212.742 181.25 207.749 185.166 203.829C189.083 199.91 194.074 197.241 199.507 196.16C204.939 195.078 210.571 195.633 215.688 197.754C220.806 199.876 225.18 203.467 228.257 208.076C231.335 212.685 232.978 218.103 232.978 223.645C232.969 231.075 230.016 238.198 224.765 243.452C219.515 248.706 212.396 251.661 204.97 251.669ZM204.97 196.684C199.641 196.684 194.431 198.265 189.999 201.228C185.568 204.191 182.114 208.403 180.074 213.33C178.035 218.257 177.501 223.678 178.541 228.909C179.581 234.139 182.148 238.944 185.917 242.715C189.686 246.486 194.487 249.053 199.715 250.094C204.942 251.134 210.36 250.599 215.284 248.558C220.208 246.517 224.417 243.061 227.378 238.626C230.338 234.192 231.918 228.978 231.918 223.645C231.91 216.497 229.068 209.644 224.016 204.589C218.964 199.535 212.115 196.692 204.97 196.684Z" fill="black"/>
<path d="M283.274 224.427V229.585H206.68V204.372H262.452L283.274 224.427Z" fill="#F8F8F8"/>
<path d="M283.274 230.115H206.682C206.542 230.115 206.407 230.059 206.308 229.96C206.208 229.86 206.152 229.726 206.152 229.585V204.372C206.152 204.232 206.208 204.097 206.308 203.998C206.407 203.898 206.542 203.842 206.682 203.842H252.845C252.986 203.842 253.12 203.898 253.22 203.998C253.319 204.097 253.375 204.232 253.375 204.372C253.375 204.513 253.319 204.648 253.22 204.747C253.12 204.847 252.986 204.903 252.845 204.903H207.21V229.055H282.744V224.427C282.744 224.287 282.8 224.152 282.899 224.052C282.998 223.953 283.133 223.897 283.274 223.897C283.414 223.897 283.549 223.953 283.648 224.052C283.748 224.152 283.804 224.287 283.804 224.427V229.575C283.805 229.646 283.792 229.716 283.766 229.781C283.74 229.847 283.701 229.906 283.652 229.956C283.602 230.007 283.544 230.047 283.479 230.074C283.414 230.101 283.344 230.115 283.274 230.115Z" fill="black"/>
<path d="M304.235 97.1126H274.085C274.015 97.1129 273.946 97.0995 273.882 97.0731C273.818 97.0467 273.759 97.0079 273.71 96.9588C273.661 96.9098 273.622 96.8515 273.595 96.7873C273.568 96.7231 273.555 96.6543 273.555 96.5848V66.4137C273.555 66.2736 273.611 66.1393 273.711 66.0404C273.81 65.9415 273.944 65.886 274.085 65.886H304.235C304.375 65.886 304.509 65.9415 304.609 66.0404C304.708 66.1393 304.764 66.2736 304.765 66.4137V96.5848C304.765 96.6543 304.751 96.7231 304.724 96.7873C304.698 96.8515 304.659 96.9098 304.609 96.9588C304.56 97.0079 304.502 97.0467 304.437 97.0731C304.373 97.0995 304.304 97.1129 304.235 97.1126ZM274.614 96.0546H303.707V66.9439H274.614V96.0546Z" fill="black"/>
<path d="M258.822 77.8613H215.27C215.201 77.8613 215.132 77.8476 215.068 77.8209C215.004 77.7943 214.945 77.7552 214.896 77.7059C214.847 77.6566 214.809 77.5982 214.782 77.5339C214.756 77.4696 214.742 77.4007 214.743 77.3312V33.755C214.742 33.6855 214.756 33.6166 214.782 33.5523C214.809 33.488 214.847 33.4295 214.896 33.3803C214.945 33.331 215.004 33.2919 215.068 33.2653C215.132 33.2386 215.201 33.2249 215.27 33.2249H258.822C258.963 33.2249 259.098 33.2807 259.197 33.3801C259.296 33.4796 259.352 33.6144 259.352 33.755V77.3312C259.352 77.4718 259.296 77.6066 259.197 77.7061C259.098 77.8055 258.963 77.8613 258.822 77.8613ZM215.8 76.8034H258.292V34.2852H215.8V76.8034Z" fill="black"/>
<path d="M388.491 28.7893H344.941V72.3654H388.491V28.7893Z" fill="black"/>
<path d="M247.218 256.724C238.244 256.734 229.402 258.9 221.439 263.04C218.013 264.806 215.466 268.042 214.416 271.954C213.101 276.822 212.47 281.849 212.542 286.89C212.64 295.766 214.678 299.218 212.542 301.394C210.173 303.793 204.124 303.162 198.435 300.535C194.088 298.53 189.051 300.873 187.63 305.707C185.448 313.161 184.347 320.89 184.359 328.657C184.359 368.386 212.506 400.591 247.226 400.591C281.945 400.591 310.092 368.386 310.092 328.657C310.092 288.929 281.938 256.724 247.218 256.724ZM227.399 330.305C223.347 332.205 218.176 329.286 215.852 323.783C213.529 318.28 214.927 312.282 218.969 310.383C223.011 308.483 228.19 311.402 230.515 316.905C232.841 322.408 231.45 328.41 227.399 330.305Z" fill="#F8F8F8"/>
<path d="M247.218 401.121C212.263 401.121 183.822 368.614 183.822 328.657C183.81 320.839 184.919 313.059 187.114 305.556C187.455 304.348 188.053 303.229 188.866 302.273C189.679 301.318 190.688 300.549 191.825 300.019C192.899 299.534 194.064 299.286 195.242 299.293C196.42 299.299 197.582 299.559 198.651 300.055C204.405 302.716 210.094 303.121 212.155 301.015C213.266 299.887 213.05 298.227 212.661 295.217C212.267 292.458 212.048 289.677 212.004 286.89C211.934 281.8 212.571 276.725 213.896 271.811C214.984 267.761 217.641 264.391 221.189 262.56C229.228 258.378 238.157 256.197 247.218 256.203C282.176 256.203 310.624 288.701 310.624 328.65C310.624 368.599 282.176 401.121 247.218 401.121ZM195.194 300.343C194.182 300.345 193.183 300.563 192.264 300.984C191.266 301.451 190.38 302.128 189.666 302.969C188.953 303.81 188.429 304.794 188.131 305.856C185.967 313.258 184.874 320.933 184.884 328.645C184.884 368.019 212.848 400.051 247.218 400.051C281.588 400.051 309.552 368.019 309.552 328.645C309.552 289.272 281.588 257.242 247.218 257.242C238.325 257.246 229.564 259.396 221.678 263.51C218.396 265.204 215.924 268.33 214.925 272.091C213.625 276.913 213 281.892 213.069 286.885C213.112 289.63 213.328 292.37 213.716 295.087C214.133 298.318 214.385 300.269 212.915 301.766C210.518 304.21 204.464 303.903 198.212 301.017C197.266 300.575 196.235 300.345 195.191 300.343H195.194ZM224.776 331.419C223.817 331.412 222.868 331.228 221.975 330.876C219.168 329.799 216.761 327.278 215.366 323.989C212.935 318.232 214.457 311.918 218.758 309.903C220.491 309.09 222.445 309.058 224.406 309.812C227.214 310.891 229.623 313.41 231.016 316.699C233.447 322.456 231.925 328.77 227.624 330.785C226.732 331.205 225.759 331.421 224.773 331.419H224.776ZM221.609 310.33C220.78 310.328 219.961 310.51 219.211 310.862C215.421 312.64 214.136 318.342 216.334 323.577C217.598 326.568 219.847 328.926 222.347 329.886C224.025 330.536 225.704 330.514 227.168 329.826C230.959 328.051 232.246 322.346 230.033 317.112C228.77 314.12 226.523 311.762 224.02 310.802C223.252 310.498 222.433 310.338 221.606 310.33H221.609Z" fill="black"/>
<path d="M219.26 367.513C218.564 367.513 217.859 366.963 217.071 366.349C215.872 365.416 214.234 364.14 211.751 363.787C209.08 363.408 207.196 364.356 205.517 365.193C203.983 365.963 202.535 366.69 200.837 366.179C197.68 365.219 195.443 360.661 194.623 356.545C193.643 351.61 194.547 347.443 197.045 345.397C201.84 341.477 210.82 345.778 215.203 350.252C219.919 355.05 221.456 362.007 221.007 365.174C220.851 366.28 220.48 367.009 219.9 367.333C219.706 367.448 219.485 367.51 219.26 367.513ZM210.557 362.643C211.006 362.643 211.455 362.675 211.899 362.739C214.664 363.13 216.431 364.507 217.72 365.512C218.456 366.085 219.094 366.582 219.384 366.414C219.485 366.359 219.816 366.092 219.967 365.025C220.384 362.057 218.921 355.547 214.453 350.994C210.257 346.714 201.861 342.825 197.721 346.217C195.141 348.328 194.969 352.829 195.669 356.336C196.563 360.832 198.816 364.461 201.147 365.164C202.439 365.553 203.59 364.977 205.047 364.245C206.505 363.514 208.253 362.65 210.557 362.65V362.643Z" fill="black"/>
<path d="M241.577 394.656C239.667 394.66 237.769 394.369 235.948 393.795C232.759 392.768 230.496 390.979 229.578 388.757C227.382 383.446 233.152 376.475 237.564 373.085C245.588 366.922 257.029 366.906 262.588 368.861C263.998 369.357 265.746 370.231 266.074 371.574C266.347 372.694 265.549 373.38 264.099 374.628C262.396 376.053 260.805 377.606 259.34 379.274C257.13 381.747 255.258 384.502 253.775 387.469C252.617 389.666 251.781 391.255 249.596 392.617C247.412 393.98 244.564 394.656 241.577 394.656ZM237.894 373.51L238.216 373.93C234.219 376.998 228.609 383.628 230.563 388.354C231.361 390.288 233.39 391.861 236.279 392.79C240.64 394.191 245.77 393.761 249.045 391.72C250.985 390.52 251.725 389.105 252.845 386.975C254.369 383.936 256.289 381.113 258.553 378.579C260.053 376.875 261.678 375.286 263.415 373.826C264.72 372.706 265.166 372.296 265.053 371.831C264.89 371.161 263.84 370.427 262.245 369.866C256.909 367.988 245.928 368.009 238.216 373.944L237.894 373.51Z" fill="black"/>
<path d="M278.201 342.804C272.535 343.718 268.268 352.21 270.38 359.056C272.38 365.533 280.051 370.41 285.419 368.086C289.696 366.234 291.044 360.45 290.833 356.65C290.442 349.533 284.182 341.844 278.201 342.804Z" fill="black"/>
<path d="M293.556 335.367C293.385 335.369 293.214 335.339 293.053 335.278C291.648 334.743 291.893 332.244 292.233 328.78C292.643 324.606 293.151 319.424 290.555 317.774C289.032 316.814 287.122 317.491 285.28 318.143C283.559 318.752 281.924 319.328 280.852 318.316C279.224 316.785 280.047 312.63 281.358 309.253C283.374 304.059 287.273 298.793 291.427 298.738C293.331 298.705 295.316 299.763 297.138 301.77C301.113 306.148 303.489 313.979 302.789 320.393C302.046 327.187 297.817 333.155 295.05 334.849C294.608 335.154 294.092 335.333 293.556 335.367ZM288.807 316.241C289.624 316.224 290.428 316.444 291.123 316.874C294.276 318.86 293.731 324.416 293.281 328.869C293.067 331.044 292.777 334.024 293.424 334.271C293.576 334.328 293.938 334.271 294.494 333.93C297.076 332.347 301.027 326.719 301.734 320.256C302.403 314.118 300.142 306.633 296.354 302.461C294.738 300.684 293.031 299.758 291.437 299.777C287.769 299.825 284.221 304.752 282.327 309.613C280.905 313.276 280.581 316.601 281.559 317.529C282.168 318.1 283.439 317.651 284.916 317.131C286.103 316.723 287.467 316.241 288.807 316.241Z" fill="black"/>
<path d="M271.759 296.229C267.302 296.229 262.689 293.35 259.503 290.232C254.679 285.508 252.375 279.856 253.631 275.838C255.331 270.386 263.077 267.509 269.239 268.248C274.918 268.927 281.624 272.931 282.933 280.116C284.242 287.3 279.673 294.111 274.76 295.761C273.792 296.079 272.778 296.237 271.759 296.229ZM267.23 269.179C261.497 269.179 255.885 272.173 254.648 276.136C253.526 279.734 255.777 285.088 260.246 289.466C264.883 294.005 270.45 296.075 274.427 294.744C278.929 293.23 283.103 286.924 281.895 280.291C280.687 273.658 274.424 269.92 269.119 269.284C268.492 269.212 267.861 269.177 267.23 269.179Z" fill="black"/>
<path d="M225.26 279.6C226.238 273.106 233.011 266.977 237.293 268.162C241.043 269.201 242.134 275.646 243.308 282.608C244.349 288.759 245.785 297.273 242.707 298.861C238.382 301.094 223.628 290.455 225.26 279.6Z" fill="black"/>
<path d="M381.085 410.338L381.9 423.11L371.946 422.428L367.858 409.385L381.085 410.338Z" fill="#F8F8F8"/>
<path d="M381.9 423.647H381.864L371.91 422.968C371.802 422.963 371.698 422.925 371.612 422.859C371.526 422.793 371.463 422.702 371.431 422.599L367.355 409.553C367.33 409.472 367.325 409.386 367.341 409.303C367.356 409.219 367.392 409.141 367.444 409.074C367.498 409.006 367.568 408.953 367.647 408.918C367.726 408.884 367.813 408.869 367.899 408.875L381.124 409.834C381.249 409.845 381.367 409.901 381.455 409.992C381.543 410.083 381.595 410.202 381.603 410.328L382.421 423.1C382.424 423.172 382.414 423.245 382.389 423.313C382.364 423.38 382.326 423.443 382.276 423.495C382.227 423.548 382.167 423.59 382.101 423.619C382.034 423.648 381.963 423.663 381.891 423.664L381.9 423.647ZM372.344 421.932L381.334 422.546L380.586 410.839L368.599 409.978L372.344 421.932Z" fill="black"/>
<path d="M421.106 387.791C422.626 388.956 431.338 402.553 431.338 402.553L422.983 411.576L411.557 397.05L421.106 387.791Z" fill="#F8F8F8"/>
<path d="M422.983 412.106H422.961C422.885 412.103 422.81 412.083 422.741 412.049C422.673 412.014 422.613 411.965 422.566 411.904L411.144 397.377C411.06 397.273 411.018 397.141 411.027 397.007C411.036 396.874 411.095 396.749 411.192 396.657L420.739 387.423C420.83 387.335 420.95 387.283 421.077 387.276C421.203 387.268 421.328 387.306 421.429 387.383C422.978 388.582 430.887 400.879 431.784 402.28C431.847 402.379 431.875 402.496 431.864 402.612C431.854 402.729 431.806 402.839 431.726 402.925L423.369 411.947C423.319 411.999 423.259 412.04 423.193 412.067C423.126 412.095 423.055 412.108 422.983 412.106ZM412.276 397.098L423.019 410.772L430.676 402.503C427.459 397.494 422.659 390.269 421.113 388.539L412.276 397.098Z" fill="black"/>
<path d="M428.929 394.661L438.022 404.497C438.926 405.475 439.442 406.749 439.474 408.08C439.506 409.412 439.051 410.709 438.195 411.729C431.207 420.058 414.482 439.453 411.104 438.415C403.147 435.968 417.076 405.79 417.076 405.79L422.429 408.056L428.929 394.661Z" fill="#F8F8F8"/>
<path d="M411.405 439C411.251 439.001 411.098 438.978 410.95 438.933C410.45 438.776 409.992 438.51 409.608 438.154C409.224 437.798 408.924 437.361 408.73 436.874C405.534 429.711 416.145 406.564 416.598 405.583C416.655 405.458 416.759 405.36 416.887 405.311C417.015 405.261 417.158 405.263 417.284 405.317L422.172 407.39L428.451 394.435C428.489 394.358 428.546 394.291 428.616 394.24C428.685 394.189 428.766 394.156 428.852 394.143C428.937 394.131 429.024 394.139 429.105 394.168C429.186 394.197 429.259 394.245 429.317 394.308L438.41 404.158C439.398 405.232 439.962 406.629 439.997 408.088C440.032 409.547 439.535 410.969 438.6 412.089C434.737 416.693 429.01 423.364 423.678 428.97C415.647 437.409 412.77 439 411.405 439ZM417.349 406.495C415.843 409.853 406.932 430.244 409.696 436.443C409.829 436.791 410.039 437.105 410.31 437.361C410.581 437.617 410.906 437.808 411.262 437.92C412.834 438.415 420.72 431.746 437.789 411.401C438.56 410.478 438.969 409.307 438.94 408.105C438.911 406.903 438.446 405.752 437.631 404.868L429.058 395.58L422.896 408.294C422.838 408.416 422.734 408.511 422.607 408.559C422.481 408.606 422.34 408.603 422.216 408.551L417.349 406.495Z" fill="black"/>
<path d="M412.213 434.701C412.113 434.7 412.015 434.67 411.93 434.615C411.846 434.561 411.779 434.483 411.736 434.392C411.694 434.3 411.679 434.199 411.692 434.099C411.705 433.999 411.746 433.905 411.811 433.828L435.898 405.367C435.991 405.269 436.118 405.209 436.253 405.202C436.389 405.194 436.522 405.239 436.625 405.326C436.729 405.414 436.795 405.538 436.81 405.673C436.825 405.807 436.788 405.943 436.706 406.051L412.619 434.514C412.568 434.573 412.506 434.62 412.436 434.652C412.366 434.684 412.29 434.701 412.213 434.701Z" fill="black"/>
<path d="M419.123 418.329C419.029 418.328 418.936 418.303 418.855 418.254L413.715 415.251C413.593 415.18 413.505 415.063 413.469 414.927C413.433 414.791 413.453 414.647 413.524 414.525C413.595 414.404 413.711 414.315 413.847 414.279C413.983 414.244 414.128 414.263 414.249 414.334L419.385 417.34C419.485 417.399 419.564 417.489 419.608 417.597C419.652 417.704 419.66 417.824 419.63 417.936C419.599 418.049 419.533 418.148 419.44 418.219C419.348 418.29 419.235 418.328 419.118 418.329H419.123Z" fill="black"/>
<path d="M414.952 423.287C414.842 423.287 414.735 423.254 414.645 423.191L411.842 421.205C411.785 421.165 411.735 421.114 411.698 421.055C411.66 420.996 411.634 420.93 411.622 420.861C411.61 420.792 411.611 420.722 411.627 420.653C411.642 420.585 411.67 420.52 411.711 420.463C411.751 420.406 411.803 420.357 411.862 420.32C411.921 420.283 411.987 420.258 412.056 420.246C412.125 420.235 412.196 420.237 412.264 420.253C412.332 420.269 412.397 420.298 412.453 420.339L415.258 422.325C415.349 422.391 415.416 422.483 415.451 422.589C415.486 422.695 415.486 422.81 415.452 422.916C415.418 423.023 415.352 423.116 415.262 423.182C415.172 423.248 415.063 423.284 414.952 423.285V423.287Z" fill="black"/>
<path d="M423.784 386.315L411.574 399.737C411.574 399.737 377.791 369.686 364.619 353.145C351.448 336.605 328.447 311.047 338.365 264.336L375.617 264.151C375.617 264.151 384.849 339.88 423.784 386.315Z" fill="black"/>
<path d="M383.075 419.247L385.566 432.396C385.409 433.811 384.742 435.12 383.689 436.078C382.636 437.036 381.271 437.577 379.848 437.599C368.227 437.777 340.856 437.839 339.331 434.37C335.735 426.214 369.862 416.378 369.862 416.378L371.78 422.294L383.075 419.247Z" fill="#F8F8F8"/>
<path d="M371.519 438.194C366.484 438.194 360.913 438.117 355.773 437.877C341.606 437.213 339.324 435.68 338.842 434.584C338.393 433.566 338.432 432.489 338.95 431.376C342.493 423.793 368.601 416.179 369.711 415.858C369.843 415.82 369.985 415.835 370.106 415.899C370.227 415.964 370.319 416.073 370.361 416.203L372.121 421.639L382.933 418.734C383.004 418.716 383.077 418.712 383.149 418.723C383.22 418.734 383.289 418.76 383.35 418.799C383.413 418.837 383.467 418.888 383.508 418.948C383.55 419.008 383.577 419.077 383.59 419.149L386.081 432.297C386.088 432.35 386.088 432.403 386.081 432.456C385.906 433.997 385.178 435.422 384.031 436.466C382.884 437.51 381.398 438.101 379.848 438.129C377.429 438.165 374.576 438.194 371.519 438.194ZM369.512 417.021C365.854 418.12 342.996 425.216 339.911 431.825C339.52 432.66 339.487 433.423 339.81 434.157C340.558 435.85 351.464 437.515 379.833 437.069C381.113 437.047 382.343 436.564 383.296 435.71C384.25 434.855 384.864 433.686 385.026 432.415L382.655 419.907L371.907 422.786C371.779 422.819 371.643 422.803 371.527 422.741C371.41 422.678 371.322 422.573 371.279 422.448L369.512 417.021Z" fill="black"/>
<path d="M343.545 432.816C343.405 432.816 343.27 432.76 343.171 432.66C343.071 432.561 343.016 432.426 343.016 432.285C343.016 432.145 343.071 432.01 343.171 431.911C343.27 431.811 343.405 431.755 343.545 431.755L383.394 431.316C383.534 431.316 383.669 431.372 383.768 431.472C383.868 431.571 383.923 431.706 383.923 431.846C383.923 431.987 383.868 432.122 383.768 432.221C383.669 432.321 383.534 432.377 383.394 432.377L343.543 432.816H343.545Z" fill="black"/>
<path d="M361.606 426.943C361.482 426.943 361.363 426.9 361.268 426.822C361.173 426.743 361.108 426.633 361.086 426.511L359.916 420.253C359.89 420.114 359.92 419.971 360 419.855C360.079 419.739 360.202 419.659 360.34 419.634C360.478 419.608 360.621 419.638 360.737 419.718C360.853 419.797 360.933 419.92 360.959 420.058L362.126 426.317C362.139 426.385 362.138 426.456 362.124 426.524C362.109 426.592 362.082 426.656 362.042 426.714C362.003 426.771 361.952 426.82 361.894 426.858C361.836 426.895 361.77 426.921 361.702 426.933C361.67 426.94 361.638 426.943 361.606 426.943Z" fill="black"/>
<path d="M354.68 427.041C354.548 427.041 354.421 426.992 354.324 426.903C354.226 426.814 354.165 426.693 354.152 426.562L353.795 422.903C353.781 422.763 353.824 422.624 353.913 422.515C354.002 422.406 354.131 422.338 354.271 422.324C354.411 422.31 354.55 422.353 354.659 422.442C354.768 422.531 354.836 422.66 354.85 422.8L355.207 426.458C355.214 426.528 355.207 426.598 355.186 426.665C355.165 426.732 355.132 426.793 355.087 426.847C355.043 426.901 354.988 426.945 354.926 426.978C354.865 427.01 354.797 427.03 354.728 427.037L354.68 427.041Z" fill="black"/>
<path d="M396.822 257.302C396.822 257.302 399.979 282.111 393.484 309.255C386.99 336.399 381.603 402.333 383.569 414.843L367.163 414.925C367.163 414.925 336.648 312.782 360.591 263.201L396.822 257.302Z" fill="black"/>
<path d="M385.825 376.715C385.689 376.715 385.559 376.663 385.461 376.57C385.363 376.476 385.304 376.349 385.297 376.213C384.887 368.674 386.844 351.704 386.865 351.533C386.873 351.464 386.895 351.398 386.928 351.337C386.962 351.276 387.008 351.223 387.062 351.18C387.117 351.137 387.179 351.105 387.246 351.086C387.313 351.067 387.382 351.061 387.451 351.069C387.52 351.077 387.587 351.099 387.648 351.133C387.708 351.166 387.762 351.212 387.805 351.266C387.848 351.321 387.88 351.383 387.899 351.45C387.918 351.517 387.923 351.587 387.915 351.656C387.896 351.826 385.949 368.705 386.352 376.156C386.356 376.225 386.347 376.295 386.324 376.36C386.301 376.426 386.265 376.487 386.219 376.538C386.173 376.59 386.116 376.632 386.054 376.662C385.991 376.692 385.923 376.709 385.853 376.712L385.825 376.715Z" fill="#F8F8F8"/>
<path d="M353.344 340.076C353.213 340.076 353.086 340.026 352.988 339.938C352.891 339.849 352.83 339.728 352.817 339.596C350.642 319.558 350.232 304.649 351.496 291.254C351.502 291.184 351.523 291.117 351.555 291.056C351.588 290.994 351.632 290.94 351.686 290.895C351.74 290.851 351.801 290.818 351.868 290.797C351.934 290.777 352.004 290.77 352.074 290.776C352.143 290.783 352.21 290.803 352.272 290.836C352.333 290.868 352.387 290.913 352.432 290.967C352.476 291.02 352.509 291.082 352.53 291.149C352.55 291.215 352.557 291.285 352.551 291.354C351.294 304.673 351.702 319.518 353.869 339.484C353.877 339.554 353.87 339.624 353.85 339.692C353.83 339.759 353.797 339.822 353.752 339.876C353.707 339.931 353.652 339.975 353.59 340.008C353.528 340.041 353.46 340.061 353.39 340.067L353.344 340.076Z" fill="#F8F8F8"/>
<path d="M340.633 186.635C322.031 197.883 294.578 200.597 263.653 199.963L271.747 207.988C271.747 207.988 288.713 225.74 352.342 211.879L340.633 186.635Z" fill="#F8F8F8"/>
<path d="M309.087 217.686C300.008 217.686 293.115 216.777 288.068 215.657C275.856 212.949 271.54 208.547 271.363 208.362L263.281 200.345C263.206 200.27 263.154 200.175 263.133 200.071C263.113 199.967 263.124 199.859 263.165 199.762C263.206 199.664 263.276 199.581 263.365 199.524C263.455 199.467 263.559 199.437 263.665 199.44C299.806 200.182 324.179 195.972 340.359 186.189C340.423 186.15 340.494 186.125 340.568 186.116C340.642 186.107 340.717 186.114 340.788 186.136C340.859 186.157 340.925 186.194 340.981 186.243C341.037 186.291 341.081 186.352 341.112 186.419L352.819 211.663C352.852 211.735 352.868 211.813 352.867 211.893C352.866 211.972 352.847 212.05 352.811 212.121C352.776 212.192 352.725 212.254 352.662 212.302C352.6 212.351 352.527 212.385 352.45 212.402C334.375 216.343 320.115 217.686 309.087 217.686ZM264.974 200.525L272.128 207.618C272.178 207.671 276.491 212.027 288.454 214.654C299.449 217.07 319.305 218.468 351.594 211.507L340.41 187.398C324.244 196.95 300.221 201.132 264.964 200.525H264.974Z" fill="black"/>
<path d="M399.401 274.073L336.022 259.42L343.162 217.015L335.603 216.854L325.603 185.891C325.603 185.891 369.476 178.999 399.303 179.808C406.494 180.005 413.328 182.987 418.365 188.125C425.368 195.261 434.908 206.172 437.504 215.009L406.114 226.865L403.127 222.458C403.127 222.458 408.68 252.204 399.401 274.073Z" fill="#F8F8F8"/>
<path d="M399.399 274.603C399.36 274.606 399.321 274.606 399.282 274.603L335.903 259.948C335.771 259.917 335.656 259.838 335.581 259.726C335.507 259.613 335.477 259.477 335.5 259.343L342.539 217.545L335.586 217.396C335.476 217.394 335.37 217.357 335.282 217.291C335.194 217.226 335.128 217.134 335.095 217.029L325.095 186.066C325.071 185.994 325.064 185.917 325.073 185.841C325.082 185.765 325.107 185.692 325.147 185.627C325.187 185.562 325.241 185.506 325.304 185.463C325.367 185.421 325.439 185.393 325.514 185.38C325.953 185.311 369.769 178.486 399.313 179.29C406.642 179.479 413.609 182.52 418.732 187.767C426.088 195.259 435.402 206.045 438.003 214.875C438.041 215.003 438.03 215.141 437.971 215.26C437.911 215.38 437.809 215.473 437.684 215.52L406.292 227.376C406.18 227.418 406.058 227.422 405.944 227.385C405.831 227.349 405.733 227.276 405.666 227.177L404.01 224.732C405.076 232.229 407.606 256.093 399.879 274.296C399.836 274.387 399.769 274.465 399.684 274.519C399.599 274.574 399.5 274.603 399.399 274.603ZM336.627 259.01L399.085 273.451C407.956 252.015 402.662 222.834 402.607 222.551C402.585 222.432 402.604 222.308 402.662 222.201C402.72 222.094 402.813 222.01 402.926 221.963C403.038 221.917 403.163 221.911 403.28 221.946C403.397 221.981 403.498 222.055 403.566 222.156L406.321 226.217L436.855 214.702C434.126 206.169 425.126 195.782 417.987 188.509C413.052 183.458 406.343 180.532 399.287 180.352C371.752 179.606 331.717 185.515 326.294 186.35L335.989 216.362L343.181 216.513C343.257 216.516 343.332 216.534 343.401 216.567C343.469 216.6 343.53 216.647 343.579 216.705C343.628 216.764 343.663 216.833 343.682 216.906C343.702 216.98 343.705 217.057 343.692 217.132L336.627 259.01Z" fill="black"/>
<path d="M403.127 222.988C403.027 222.988 402.928 222.96 402.843 222.906C402.758 222.852 402.69 222.775 402.648 222.683L397.115 210.83C397.056 210.703 397.049 210.557 397.098 210.425C397.146 210.293 397.244 210.185 397.371 210.125C397.434 210.095 397.502 210.078 397.572 210.075C397.641 210.072 397.711 210.082 397.776 210.106C397.841 210.13 397.901 210.167 397.952 210.214C398.003 210.261 398.045 210.318 398.074 210.382L403.607 222.235C403.636 222.298 403.653 222.366 403.656 222.435C403.659 222.505 403.648 222.574 403.625 222.64C403.601 222.705 403.564 222.765 403.517 222.816C403.47 222.867 403.413 222.908 403.35 222.938C403.281 222.972 403.205 222.989 403.127 222.988Z" fill="black"/>
<path d="M377.314 166.146C380.598 166.981 384.223 163.987 385.314 163.09C388.879 160.149 390.802 155.387 389.176 154.027C388.148 153.163 386.417 154.266 385.264 153.374C383.454 151.968 387.062 147.857 385.616 145.333C383.988 142.481 378.51 145.554 371.15 142.265C367.779 140.758 367.105 139.3 364.797 139.477C361.248 139.751 357.42 143.615 357.866 146.645C358.412 150.371 364.914 149.255 370.222 155.293C374.768 160.46 373.586 165.198 377.314 166.146Z" fill="black"/>
<path d="M361.584 161.897C363.114 159.989 364.267 157.806 364.979 155.466C365.938 152.369 366.897 150.145 366.897 150.145C380.227 151.952 376.084 160.199 376.084 160.199C376.084 160.199 379.769 158.549 379.785 161.924C379.785 163.154 378.208 164.908 377.218 165.424L384.516 180.405C372.871 185.316 366.005 181.703 366.005 181.703L368.417 171.08C366.928 171.281 365.415 171.219 363.948 170.898C363.351 169.624 363.094 168.072 363.066 166.398C363.047 165.652 362.818 164.926 362.405 164.304C361.992 163.683 361.411 163.191 360.73 162.886L361.584 161.897Z" fill="#F8F8F8"/>
<path d="M372.835 183.516C368.407 183.516 365.919 182.252 365.746 182.161C365.643 182.107 365.561 182.02 365.512 181.914C365.464 181.808 365.451 181.689 365.477 181.576L367.724 171.675C366.411 171.78 365.09 171.687 363.804 171.402C363.728 171.382 363.658 171.346 363.598 171.295C363.538 171.245 363.49 171.183 363.456 171.112C362.869 169.857 362.555 168.269 362.524 166.398C362.507 165.753 362.309 165.126 361.953 164.589C361.597 164.051 361.097 163.625 360.51 163.358C360.436 163.324 360.371 163.272 360.319 163.208C360.268 163.144 360.233 163.069 360.215 162.989C360.198 162.909 360.199 162.826 360.219 162.746C360.239 162.667 360.277 162.593 360.33 162.531L361.174 161.55C362.662 159.695 363.782 157.573 364.473 155.298C365.432 152.213 366.391 149.951 366.391 149.927C366.436 149.82 366.516 149.731 366.617 149.674C366.718 149.617 366.835 149.595 366.949 149.61C371.936 150.287 375.151 151.935 376.508 154.506C377.486 156.363 377.242 158.232 376.928 159.359C377.647 159.208 378.551 159.16 379.27 159.623C379.946 160.06 380.291 160.823 380.296 161.912C380.296 163.176 378.985 164.822 377.882 165.611L384.974 180.163C385.005 180.227 385.023 180.298 385.026 180.37C385.029 180.442 385.018 180.513 384.993 180.581C384.967 180.648 384.928 180.71 384.879 180.761C384.829 180.813 384.769 180.854 384.703 180.882C379.91 182.919 375.904 183.516 372.835 183.516ZM366.602 181.386C368.122 181.998 374.3 183.955 383.777 180.119L376.724 165.647C376.665 165.522 376.657 165.379 376.701 165.248C376.746 165.117 376.84 165.009 376.964 164.946C377.827 164.495 379.253 162.893 379.248 161.917C379.248 161.216 379.061 160.744 378.709 160.516C378.021 160.069 376.729 160.477 376.288 160.672C376.188 160.715 376.078 160.727 375.971 160.706C375.865 160.685 375.767 160.631 375.692 160.552C375.617 160.474 375.568 160.374 375.551 160.267C375.535 160.159 375.552 160.049 375.599 159.952C375.599 159.928 376.844 157.39 375.576 154.993C374.42 152.813 371.61 151.376 367.22 150.721C366.913 151.477 366.197 153.309 365.487 155.615C364.756 158.017 363.574 160.258 362.004 162.216L361.987 162.236L361.56 162.732C362.167 163.131 362.669 163.672 363.022 164.307C363.375 164.943 363.568 165.654 363.586 166.381C363.612 167.986 363.857 169.346 364.305 170.43C365.63 170.684 366.988 170.723 368.326 170.548C368.411 170.536 368.497 170.545 368.578 170.574C368.659 170.603 368.731 170.651 368.789 170.714C368.847 170.778 368.889 170.854 368.911 170.937C368.933 171.02 368.934 171.107 368.915 171.191L366.602 181.386Z" fill="black"/>
<path d="M368.403 171.611C368.274 171.61 368.15 171.562 368.053 171.477C367.957 171.391 367.895 171.274 367.88 171.146C367.864 171.018 367.895 170.889 367.967 170.782C368.04 170.676 368.148 170.599 368.273 170.567L369.661 170.21C369.796 170.178 369.938 170.2 370.057 170.272C370.176 170.344 370.261 170.459 370.296 170.594C370.33 170.728 370.311 170.871 370.242 170.991C370.172 171.111 370.058 171.199 369.925 171.236L368.534 171.594C368.491 171.604 368.447 171.61 368.403 171.611Z" fill="black"/>
<path d="M252.845 192.488L271.917 170.898L399.447 292.017L409.629 308.588C411.106 310.987 408.546 313.832 405.966 312.666C398.445 309.243 388.584 304.712 387.925 304.184L252.845 192.488Z" fill="#F8F8F8"/>
<path d="M407.193 313.465C406.697 313.461 406.206 313.353 405.755 313.146C388.44 305.268 387.81 304.762 387.601 304.594L252.507 192.896C252.452 192.851 252.407 192.795 252.374 192.732C252.341 192.669 252.321 192.6 252.315 192.529C252.309 192.458 252.318 192.387 252.341 192.32C252.363 192.253 252.4 192.191 252.447 192.138L271.519 170.548C271.565 170.494 271.622 170.451 271.686 170.421C271.75 170.39 271.82 170.373 271.891 170.37C272.034 170.365 272.173 170.417 272.279 170.514L399.809 291.638C399.843 291.668 399.872 291.704 399.895 291.743L410.077 308.315C410.463 308.925 410.639 309.645 410.576 310.364C410.514 311.083 410.217 311.762 409.732 312.297C409.418 312.663 409.028 312.956 408.59 313.158C408.152 313.36 407.675 313.464 407.193 313.465ZM253.603 192.428L388.258 303.774C388.498 303.956 390.742 305.155 406.184 312.17C406.644 312.386 407.163 312.446 407.66 312.339C408.157 312.233 408.606 311.967 408.939 311.582C409.274 311.218 409.48 310.754 409.524 310.26C409.567 309.767 409.446 309.274 409.178 308.857L399.032 292.345L271.95 171.651L253.603 192.428Z" fill="black"/>
<path d="M252.843 192.488L271.915 170.901L300.157 197.725L283.024 217.444L252.843 192.488Z" fill="#F8F8F8"/>
<path d="M283.024 217.972C282.901 217.973 282.781 217.93 282.686 217.852L252.507 192.903C252.452 192.858 252.407 192.802 252.374 192.739C252.341 192.676 252.321 192.607 252.315 192.536C252.309 192.466 252.318 192.394 252.341 192.327C252.363 192.26 252.4 192.198 252.447 192.145L271.519 170.555C271.565 170.502 271.622 170.458 271.686 170.428C271.75 170.397 271.82 170.38 271.89 170.378C272.034 170.372 272.173 170.424 272.279 170.521L300.521 197.346C300.616 197.439 300.673 197.565 300.68 197.699C300.687 197.832 300.643 197.963 300.557 198.066L283.425 217.785C283.375 217.843 283.314 217.89 283.245 217.922C283.176 217.954 283.101 217.971 283.024 217.972ZM253.603 192.428L282.962 216.705L299.425 197.754L271.948 171.659L253.603 192.428Z" fill="black"/>
<path d="M219.761 179.345C233.774 191.159 245.224 194.091 254.061 191.531L271.03 172.119V172.066C272.322 162.975 267.633 152.155 253.476 140.219C232.462 122.498 186.083 117.175 186.083 117.175C186.083 117.175 198.74 161.622 219.761 179.345Z" fill="black"/>
<path d="M271.375 208.758C271.375 208.758 253.183 202.151 266.34 190.787L271.375 208.758Z" fill="#F8F8F8"/>
<path d="M271.375 209.288C271.313 209.288 271.252 209.278 271.193 209.257C270.829 209.122 262.234 205.939 261.148 200.023C260.575 196.905 262.208 193.661 266 190.387C266.068 190.329 266.15 190.289 266.237 190.27C266.325 190.252 266.416 190.256 266.501 190.281C266.586 190.307 266.664 190.354 266.726 190.418C266.788 190.482 266.833 190.56 266.856 190.646L271.891 208.616C271.913 208.695 271.917 208.777 271.902 208.858C271.887 208.938 271.853 209.014 271.804 209.079C271.755 209.144 271.691 209.197 271.618 209.233C271.545 209.269 271.464 209.288 271.383 209.288H271.375ZM266.065 191.749C263.023 194.561 261.721 197.267 262.188 199.831C262.963 204.046 268.326 206.851 270.579 207.851L266.065 191.749Z" fill="black"/>
<path d="M434.045 216.513L410.72 225.125C410.72 225.125 414.661 261.589 389.474 274.123C389.474 274.123 375.823 272.444 371.095 280.547C371.095 280.547 380.651 280.116 388.649 282.318C396.647 284.52 444.303 270.772 434.045 216.513Z" fill="#F8F8F8"/>
<path d="M390.699 283.071C389.961 283.088 389.224 283.007 388.507 282.831C380.685 280.672 371.212 281.075 371.116 281.08C371.021 281.084 370.926 281.062 370.842 281.017C370.757 280.972 370.687 280.905 370.637 280.823C370.588 280.742 370.563 280.648 370.563 280.553C370.563 280.458 370.588 280.365 370.637 280.283C375.259 272.35 387.731 273.406 389.378 273.581C413.789 261.287 410.236 225.545 410.195 225.185C410.184 225.115 410.188 225.043 410.206 224.973C410.223 224.904 410.255 224.839 410.299 224.783C410.342 224.726 410.397 224.679 410.459 224.644C410.521 224.609 410.59 224.587 410.661 224.579C410.732 224.571 410.804 224.578 410.872 224.598C410.941 224.619 411.004 224.654 411.059 224.699C411.114 224.745 411.159 224.802 411.191 224.866C411.223 224.929 411.242 224.999 411.247 225.07C411.761 231.747 411.357 238.462 410.049 245.029C407.186 259.183 400.147 269.397 389.697 274.6C389.604 274.647 389.5 274.664 389.397 274.651C389.267 274.634 377 273.212 372.075 279.996C374.772 279.957 382.312 280.029 388.778 281.809C393.094 283.009 407.757 279.533 419.25 268.934C428.634 260.284 438.724 244.182 433.512 216.614C433.492 216.478 433.525 216.34 433.604 216.229C433.684 216.117 433.803 216.04 433.938 216.015C434.073 215.989 434.212 216.017 434.327 216.092C434.441 216.167 434.522 216.284 434.553 216.417C439.856 244.463 429.549 260.879 419.967 269.714C409.696 279.194 396.803 283.071 390.699 283.071Z" fill="black"/>
<path d="M133.068 27.2084H48.165V135.644H133.068V27.2084Z" fill="#F8F8F8"/>
<path d="M133.071 136.174H48.1651C48.0957 136.174 48.0269 136.16 47.9627 136.134C47.8986 136.107 47.8403 136.068 47.7913 136.019C47.7423 135.969 47.7035 135.911 47.6772 135.846C47.6508 135.782 47.6374 135.713 47.6377 135.644V27.2132C47.6374 27.1437 47.6508 27.0748 47.6772 27.0105C47.7035 26.9462 47.7423 26.8877 47.7913 26.8385C47.8403 26.7892 47.8986 26.7501 47.9627 26.7234C48.0269 26.6968 48.0957 26.683 48.1651 26.683H133.071C133.14 26.683 133.209 26.6968 133.273 26.7234C133.338 26.7501 133.396 26.7892 133.445 26.8385C133.494 26.8877 133.533 26.9462 133.559 27.0105C133.585 27.0748 133.599 27.1437 133.598 27.2132V135.644C133.599 135.713 133.585 135.782 133.559 135.846C133.533 135.911 133.494 135.969 133.445 136.019C133.396 136.068 133.338 136.107 133.273 136.134C133.209 136.16 133.14 136.174 133.071 136.174ZM48.695 135.116H132.541V27.7386H48.695V135.116Z" fill="black"/>
<path d="M128.137 131.239H53.0967C53.0271 131.24 52.958 131.226 52.8936 131.2C52.8292 131.173 52.7706 131.134 52.7214 131.085C52.6721 131.036 52.6331 130.977 52.6066 130.913C52.5801 130.848 52.5666 130.779 52.5669 130.709V32.1454C52.5666 32.0756 52.5801 32.0066 52.6066 31.9421C52.6331 31.8776 52.6721 31.8191 52.7214 31.7698C52.7706 31.7205 52.8292 31.6814 52.8936 31.6549C52.958 31.6284 53.0271 31.6149 53.0967 31.6152H128.137C128.276 31.6177 128.408 31.6747 128.506 31.7738C128.603 31.873 128.657 32.0064 128.657 32.1454V130.709C128.657 130.848 128.603 130.982 128.506 131.081C128.408 131.18 128.276 131.237 128.137 131.239ZM53.617 130.179H127.61V32.6731H53.617V130.179Z" fill="black"/>
<path d="M76.0162 94.848C70.212 94.848 65.7192 93.1928 62.5905 89.8895C59.1429 86.2407 57.5558 80.7736 57.9922 74.107C58.7378 62.8154 65.0287 50.5306 73.6475 43.5354C74.9709 42.4607 86.8335 33.1577 96.0254 37.1399C98.9023 38.3849 99.8997 40.2129 101.556 43.2403C103.082 46.1185 104.822 48.8771 106.764 51.4926C110.969 57.154 114.869 60.5628 117.718 63.0505C121.151 66.0491 123.416 68.0306 123.289 71.3483C123.049 77.5015 114.831 81.6084 108.828 84.6071C104.752 86.6485 96.2388 90.897 87.1572 93.2431C83.032 94.313 79.3183 94.848 76.0162 94.848ZM91.0171 37.2071C83.3956 37.2071 75.3785 43.5018 74.3236 44.3582C66.0524 51.0751 59.7759 63.3336 59.059 74.1766C58.6395 80.5505 60.1283 85.7321 63.3744 89.1626C66.2826 92.2452 70.4805 93.7973 75.9347 93.7973C84.0165 93.7973 94.853 90.4196 108.363 83.6715C114.117 80.7928 122.028 76.8466 122.239 71.3195C122.349 68.508 120.348 66.7616 117.032 63.8613C114.155 61.3401 110.197 57.888 105.922 52.1379C103.955 49.4828 102.192 46.6825 100.648 43.7609C99.0462 40.8366 98.1639 39.2245 95.613 38.1234C94.1603 37.5049 92.5958 37.193 91.0171 37.2071Z" fill="black"/>
<path d="M101.406 102.649C110.586 93.463 110.586 78.5702 101.406 69.3845C92.2254 60.1989 77.3416 60.1989 68.1615 69.3845C58.9815 78.5702 58.9815 93.463 68.1615 102.649C77.3416 111.834 92.2254 111.834 101.406 102.649Z" fill="black"/>
<path d="M118.803 55.4268C119.51 55.582 120.144 55.9703 120.603 56.5293C121.063 57.0883 121.322 57.7857 121.337 58.5094L121.644 71.9792C121.655 72.4035 121.581 72.8256 121.428 73.2214C121.275 73.6172 121.046 73.979 120.753 74.286C120.46 74.593 120.11 74.8393 119.722 75.0107C119.334 75.1821 118.916 75.2753 118.492 75.2849L108.662 75.508L108.914 86.543C108.933 87.3996 108.612 88.2289 108.02 88.8483C107.428 89.4678 106.615 89.8268 105.759 89.8463L91.5203 90.1725C91.0924 90.1887 90.6656 90.1196 90.2646 89.9692C89.8637 89.8188 89.4966 89.5901 89.1848 89.2964C88.873 89.0027 88.6227 88.6499 88.4485 88.2586C88.2742 87.8672 88.1795 87.445 88.1698 87.0167C88.1601 86.5883 88.2356 86.1623 88.392 85.7635C88.5484 85.3646 88.7825 85.0008 89.0806 84.6933C89.3788 84.3858 89.7352 84.1407 90.1289 83.9723C90.5226 83.8039 90.9459 83.7155 91.3741 83.7123L102.383 83.4604L102.143 72.4254C102.124 71.5688 102.446 70.7395 103.037 70.12C103.629 69.5006 104.442 69.1416 105.299 69.1221L115.128 68.899L114.888 58.6557C114.869 57.799 115.191 56.9698 115.782 56.3503C116.374 55.7308 117.187 55.3719 118.043 55.3524C118.299 55.3483 118.554 55.3733 118.803 55.4268Z" fill="#F8F8F8"/>
<path d="M91.434 90.7027C90.4519 90.6909 89.5134 90.2951 88.8193 89.5998C88.1252 88.9045 87.7306 87.965 87.7199 86.9823C87.7093 85.9996 88.0834 85.0517 88.7623 84.3415C89.4412 83.6313 90.3709 83.2152 91.3525 83.1821L101.832 82.9422L101.592 72.4398C101.573 71.4443 101.949 70.4819 102.637 69.7627C103.325 69.0435 104.27 68.6261 105.265 68.6015L114.574 68.3905L114.351 58.6797C114.331 57.6836 114.706 56.7201 115.394 56.0005C116.083 55.2809 117.029 54.8641 118.024 54.8414C118.325 54.8331 118.625 54.8621 118.918 54.9278C119.743 55.108 120.483 55.5613 121.018 56.2143C121.553 56.8673 121.852 57.6818 121.867 58.5261L122.184 71.9672C122.204 72.9629 121.829 73.926 121.141 74.6455C120.453 75.365 119.508 75.7822 118.513 75.8055L109.204 76.019L109.444 86.5238C109.464 87.5196 109.088 88.4828 108.4 89.2022C107.711 89.9217 106.766 90.3387 105.771 90.362L91.5323 90.6859L91.434 90.7027ZM118.108 55.8945H118.043C117.689 55.9023 117.339 55.9799 117.015 56.123C116.691 56.266 116.398 56.4716 116.153 56.7281C115.908 56.9845 115.716 57.2868 115.588 57.6175C115.46 57.9483 115.398 58.3011 115.406 58.6557L115.646 68.8966C115.648 69.0371 115.595 69.1728 115.498 69.2744C115.401 69.3759 115.268 69.435 115.128 69.4388L105.298 69.6643C104.583 69.6813 103.903 69.9818 103.408 70.5C102.914 71.0182 102.645 71.7115 102.661 72.4278L102.913 83.4628C102.915 83.5324 102.902 83.6017 102.877 83.6666C102.852 83.7315 102.814 83.7909 102.766 83.8412C102.718 83.8916 102.661 83.9319 102.597 83.96C102.533 83.9881 102.465 84.0034 102.395 84.0049L91.386 84.2448C90.6701 84.261 89.9899 84.5612 89.4951 85.0792C89.0003 85.5973 88.7314 86.2908 88.7476 87.0072C88.7638 87.7236 89.0638 88.4042 89.5815 88.8993C90.0993 89.3944 90.7923 89.6634 91.5083 89.6472L105.747 89.3209C106.101 89.3131 106.451 89.2355 106.775 89.0925C107.099 88.9495 107.393 88.7438 107.637 88.4874C107.882 88.2309 108.074 87.9287 108.202 87.5979C108.331 87.2672 108.392 86.9144 108.384 86.5598L108.144 75.5248C108.143 75.4553 108.155 75.3862 108.18 75.3214C108.205 75.2566 108.243 75.1974 108.291 75.1472C108.339 75.0971 108.397 75.0569 108.46 75.0291C108.524 75.0013 108.593 74.9863 108.662 74.985L118.492 74.7596C119.207 74.7426 119.887 74.442 120.382 73.9238C120.876 73.4056 121.145 72.7123 121.129 71.996L120.808 58.5333C120.796 57.9283 120.58 57.3449 120.196 56.8775C119.812 56.41 119.282 56.0857 118.691 55.9569C118.499 55.9154 118.304 55.8945 118.108 55.8945Z" fill="black"/>
<path d="M83.2901 116.378H63.2139L83.2901 96.2873V116.378Z" fill="#F8F8F8"/>
<path d="M83.2923 116.906H63.2064C63.1034 116.904 63.0031 116.873 62.9179 116.815C62.8327 116.757 62.7663 116.675 62.727 116.58C62.6871 116.483 62.6768 116.376 62.6973 116.273C62.7177 116.17 62.7681 116.076 62.842 116.002L82.9207 95.9131C82.9945 95.8389 83.0887 95.7883 83.1912 95.7677C83.2938 95.7472 83.4002 95.7576 83.4968 95.7978C83.5935 95.8379 83.676 95.9058 83.7339 95.993C83.7919 96.0802 83.8226 96.1826 83.8222 96.2873V116.378C83.8225 116.448 83.809 116.517 83.7824 116.581C83.7559 116.645 83.7168 116.704 83.6675 116.753C83.6182 116.802 83.5597 116.841 83.4953 116.867C83.4309 116.893 83.3619 116.907 83.2923 116.906ZM64.4915 115.848H82.7625V97.566L64.4915 115.848Z" fill="black"/>
<path d="M104.927 122.759C111.387 122.759 116.624 117.519 116.624 111.055C116.624 104.591 111.387 99.3507 104.927 99.3507C98.467 99.3507 93.23 104.591 93.23 111.055C93.23 117.519 98.467 122.759 104.927 122.759Z" fill="#F8F8F8"/>
<path d="M104.922 123.289C102.504 123.289 100.14 122.572 98.1294 121.228C96.1186 119.883 94.5515 117.972 93.626 115.737C92.7006 113.501 92.4585 111.041 92.9303 108.668C93.402 106.295 94.5665 104.115 96.2765 102.404C97.9865 100.693 100.165 99.5277 102.537 99.0556C104.909 98.5836 107.367 98.8259 109.601 99.7519C111.836 100.678 113.745 102.246 115.089 104.258C116.432 106.27 117.149 108.635 117.149 111.055C117.146 114.299 115.857 117.409 113.565 119.703C111.272 121.996 108.164 123.286 104.922 123.289ZM104.922 99.8833C102.714 99.8833 100.554 100.539 98.7178 101.767C96.8813 102.995 95.45 104.74 94.6048 106.782C93.7597 108.824 93.5386 111.071 93.9697 113.238C94.4008 115.406 95.4647 117.397 97.0267 118.96C98.5887 120.522 100.579 121.586 102.745 122.017C104.912 122.448 107.157 122.226 109.198 121.38C111.238 120.534 112.982 119.102 114.209 117.264C115.436 115.426 116.09 113.265 116.09 111.055C116.086 108.093 114.908 105.253 112.814 103.159C110.721 101.064 107.883 99.8865 104.922 99.8833Z" fill="black"/>
<path d="M97.1018 73.2914H86.3755C86.306 73.2914 86.2371 73.2777 86.1728 73.251C86.1085 73.2244 86.0501 73.1853 86.0009 73.1361C85.9517 73.0869 85.9127 73.0284 85.886 72.9641C85.8594 72.8998 85.8457 72.8309 85.8457 72.7612V40.1361C85.8457 40.0666 85.8594 39.9978 85.8861 39.9336C85.9127 39.8694 85.9518 39.8111 86.001 39.7621C86.0503 39.713 86.1087 39.6742 86.173 39.6478C86.2372 39.6215 86.3061 39.608 86.3755 39.6083H97.1018C97.1712 39.608 97.2401 39.6215 97.3043 39.6478C97.3686 39.6742 97.427 39.713 97.4763 39.7621C97.5255 39.8111 97.5646 39.8694 97.5912 39.9336C97.6179 39.9978 97.6316 40.0666 97.6316 40.1361V72.7612C97.6316 72.8309 97.6179 72.8998 97.5913 72.9641C97.5646 73.0284 97.5256 73.0869 97.4764 73.1361C97.4272 73.1853 97.3688 73.2244 97.3045 73.251C97.2402 73.2777 97.1713 73.2914 97.1018 73.2914ZM86.9054 72.2335H96.5719V40.6663H86.9054V72.2335Z" fill="black"/>
<path d="M159.462 21.5662C159.328 21.5571 159.202 21.4975 159.111 21.3993C159.019 21.3011 158.968 21.1717 158.968 21.0372C158.968 20.9028 159.019 20.7734 159.111 20.6752C159.202 20.577 159.328 20.5173 159.462 20.5083L163.058 20.4435C163.128 20.4424 163.197 20.455 163.262 20.4806C163.326 20.5063 163.385 20.5444 163.435 20.5928C163.485 20.6413 163.525 20.6991 163.553 20.763C163.581 20.8269 163.595 20.8956 163.596 20.9652C163.597 21.0349 163.585 21.104 163.559 21.1688C163.534 21.2335 163.496 21.2926 163.447 21.3426C163.399 21.3926 163.341 21.4326 163.277 21.4602C163.213 21.4879 163.145 21.5027 163.075 21.5038L159.479 21.5662H159.462Z" fill="black"/>
<path d="M146.844 21.7917C146.704 21.7917 146.569 21.7358 146.47 21.6364C146.37 21.537 146.314 21.4021 146.314 21.2615C146.314 21.1209 146.37 20.9861 146.47 20.8866C146.569 20.7872 146.704 20.7314 146.844 20.7314L150.44 20.6666C150.581 20.664 150.717 20.7175 150.818 20.8151C150.919 20.9127 150.977 21.0465 150.98 21.1871C150.982 21.3278 150.929 21.4636 150.831 21.5648C150.734 21.6661 150.6 21.7244 150.46 21.7269L146.863 21.7917H146.844Z" fill="black"/>
<path d="M154.943 17.205C154.802 17.205 154.668 17.1491 154.568 17.0497C154.469 16.9503 154.413 16.8154 154.413 16.6748V13.122C154.413 13.0524 154.426 12.9834 154.453 12.919C154.479 12.8545 154.518 12.7959 154.567 12.7464C154.616 12.697 154.674 12.6577 154.738 12.6307C154.802 12.6038 154.871 12.5898 154.941 12.5895C155.08 12.5901 155.214 12.6459 155.313 12.7447C155.412 12.8436 155.467 12.9774 155.468 13.1172L155.48 16.6724C155.48 16.8128 155.425 16.9476 155.326 17.0473C155.227 17.147 155.093 17.2037 154.953 17.205H154.943Z" fill="black"/>
<path d="M154.979 29.6457C154.838 29.6451 154.704 29.589 154.605 29.4897C154.505 29.3904 154.449 29.2559 154.449 29.1155V25.5628C154.448 25.4931 154.462 25.4241 154.488 25.3597C154.514 25.2952 154.553 25.2366 154.602 25.1872C154.651 25.1377 154.709 25.0984 154.774 25.0715C154.838 25.0445 154.907 25.0305 154.976 25.0302C155.116 25.0308 155.25 25.0865 155.349 25.1853C155.448 25.2841 155.505 25.418 155.506 25.558V29.1131C155.506 29.2535 155.451 29.3883 155.352 29.488C155.253 29.5878 155.119 29.6444 154.979 29.6457Z" fill="black"/>
<path d="M210.554 431.58H210.533C189.574 430.825 169.402 426.511 150.582 418.756C150.514 418.732 150.451 418.695 150.398 418.646C150.344 418.598 150.301 418.538 150.272 418.473C150.242 418.407 150.226 418.336 150.225 418.263C150.223 418.191 150.237 418.119 150.265 418.052C150.292 417.986 150.333 417.925 150.385 417.875C150.436 417.824 150.498 417.785 150.565 417.759C150.633 417.733 150.705 417.722 150.777 417.725C150.849 417.728 150.92 417.745 150.985 417.777C169.685 425.482 189.737 429.771 210.571 430.522C210.705 430.533 210.83 430.595 210.92 430.694C211.011 430.794 211.06 430.924 211.058 431.059C211.056 431.194 211.002 431.322 210.909 431.419C210.815 431.516 210.689 431.574 210.554 431.58Z" fill="black"/>
<path d="M220.043 431.679C219.903 431.679 219.768 431.623 219.668 431.523C219.569 431.424 219.513 431.289 219.513 431.148C219.513 431.008 219.569 430.873 219.668 430.773C219.768 430.674 219.903 430.618 220.043 430.618C222.824 430.575 225.643 430.467 228.434 430.299C228.572 430.296 228.705 430.346 228.806 430.439C228.908 430.532 228.969 430.661 228.977 430.798C228.985 430.935 228.939 431.07 228.85 431.175C228.76 431.279 228.633 431.344 228.496 431.357C225.696 431.527 222.86 431.633 220.065 431.679H220.043Z" fill="black"/>
<path d="M214.601 420.656C198.449 420.683 182.387 418.256 166.964 413.459C166.829 413.417 166.717 413.323 166.652 413.199C166.587 413.074 166.574 412.929 166.616 412.794C166.658 412.66 166.751 412.548 166.876 412.483C167.001 412.418 167.146 412.404 167.28 412.446C190.804 419.78 215.661 421.481 241.155 417.506C241.226 417.491 241.299 417.49 241.369 417.504C241.44 417.518 241.507 417.546 241.567 417.587C241.626 417.628 241.677 417.681 241.715 417.742C241.754 417.803 241.779 417.871 241.79 417.942C241.801 418.014 241.798 418.087 241.78 418.156C241.762 418.226 241.73 418.292 241.686 418.349C241.641 418.406 241.586 418.453 241.523 418.488C241.46 418.523 241.39 418.545 241.318 418.552C232.48 419.942 223.548 420.645 214.601 420.656Z" fill="black"/>
<path d="M141.666 419.972C140.618 419.97 139.612 419.567 138.852 418.846C138.092 418.125 137.636 417.14 137.578 416.094C137.52 415.048 137.864 414.019 138.54 413.219C139.216 412.418 140.172 411.907 141.213 411.789C142.253 411.671 143.3 411.956 144.137 412.585C144.974 413.214 145.54 414.14 145.717 415.173C145.894 416.206 145.67 417.267 145.09 418.14C144.51 419.013 143.618 419.63 142.598 419.866C142.292 419.937 141.979 419.972 141.666 419.972ZM138.686 416.544C138.823 417.133 139.131 417.669 139.573 418.083C140.014 418.497 140.568 418.771 141.165 418.87C141.762 418.969 142.375 418.889 142.926 418.639C143.477 418.39 143.942 417.982 144.262 417.468C144.582 416.954 144.742 416.357 144.723 415.752C144.703 415.147 144.505 414.561 144.153 414.069C143.801 413.577 143.311 413.2 142.745 412.986C142.179 412.773 141.562 412.732 140.973 412.869C140.183 413.053 139.498 413.544 139.069 414.233C138.64 414.922 138.502 415.753 138.686 416.544Z" fill="black"/>
</g>
<defs>
<clipPath id="clip0_17_5679">
<rect width="440" height="439" fill="white"/>
</clipPath>
</defs>
</svg>
