<svg width="313" height="38" viewBox="0 0 313 38" fill="none" xmlns="http://www.w3.org/2000/svg">
<path d="M64.573 14.0323C64.5727 13.8973 64.599 13.7635 64.6505 13.6386C64.702 13.5137 64.7777 13.4001 64.8732 13.3044C64.9688 13.2086 65.0823 13.1326 65.2074 13.0805C65.3324 13.0285 65.4666 13.0015 65.6021 13.0012C65.875 13.0001 66.1375 13.1055 66.3333 13.2949C66.5238 13.4886 66.6298 13.7494 66.6282 14.0206L66.637 23.9678C66.6368 24.1865 66.5666 24.3995 66.4366 24.5758C66.3066 24.752 66.1236 24.8824 65.9142 24.9479C65.7047 25.0134 65.4798 25.0107 65.272 24.9401C65.0642 24.8695 64.8844 24.7347 64.7588 24.5554L59.7197 17.3138V23.9708C59.7204 24.1903 59.6506 24.4043 59.5205 24.5814C59.3903 24.7585 59.2067 24.8895 58.9964 24.9552C58.7862 25.0208 58.5604 25.0177 58.352 24.9463C58.1437 24.8749 57.9638 24.739 57.8386 24.5583L50.9213 14.614C50.7649 14.39 50.7042 14.1133 50.7526 13.8447C50.801 13.5761 50.9544 13.3377 51.1793 13.1818C51.4041 13.026 51.6818 12.9655 51.9514 13.0137C52.221 13.062 52.4603 13.2149 52.6167 13.4389L57.6558 20.6775V14.0294C57.656 13.8107 57.7262 13.5977 57.8562 13.4215C57.9861 13.2452 58.1692 13.1149 58.3786 13.0493C58.588 12.9838 58.813 12.9865 59.0208 13.0571C59.2286 13.1277 59.4083 13.2625 59.534 13.4418L64.573 20.6746V14.0323Z" fill="#111111"/>
<path d="M73.9819 24.9902C72.791 24.9902 71.627 24.6384 70.6368 23.9792C69.6467 23.32 68.875 22.3831 68.4193 21.287C67.9635 20.1908 67.8443 18.9846 68.0766 17.8209C68.309 16.6573 68.8824 15.5884 69.7244 14.7494C70.5665 13.9104 71.6393 13.3391 72.8072 13.1076C73.9752 12.8762 75.1858 12.995 76.286 13.449C77.3862 13.903 78.3265 14.6719 78.9881 15.6585C79.6497 16.645 80.0028 17.8048 80.0028 18.9913V23.9708C80.0028 24.2435 79.8941 24.505 79.7005 24.6978C79.507 24.8907 79.2445 24.999 78.9708 24.999C78.6971 24.999 78.4346 24.8907 78.2411 24.6978C78.0475 24.505 77.9388 24.2435 77.9388 23.9708V23.5213C76.8422 24.4727 75.436 24.9947 73.9819 24.9902ZM70.0249 19.0001C70.0249 19.7798 70.257 20.5421 70.6918 21.1904C71.1266 21.8387 71.7446 22.3441 72.4676 22.6425C73.1906 22.9409 73.9863 23.0189 74.7538 22.8668C75.5214 22.7147 76.2265 22.3392 76.7799 21.7878C77.3332 21.2365 77.7101 20.534 77.8628 19.7692C78.0155 19.0045 77.9371 18.2118 77.6376 17.4914C77.3381 16.771 76.8309 16.1552 76.1802 15.722C75.5295 15.2888 74.7645 15.0576 73.9819 15.0576C72.9324 15.0576 71.926 15.473 71.1839 16.2123C70.4418 16.9517 70.0249 17.9545 70.0249 19.0001Z" fill="#111111"/>
<path d="M96.5204 20.1693C96.5499 20.7569 96.6177 24.9961 92.2745 24.9961C91.7251 25.024 91.1757 24.9394 90.6605 24.7474C90.1452 24.5553 89.6749 24.26 89.2788 23.8797C89.211 23.8121 89.149 23.7416 89.0871 23.6711C88.4561 24.4232 87.4536 24.9902 85.8555 24.9902C85.3055 25.0199 84.7553 24.9367 84.2389 24.7456C83.7226 24.5546 83.2511 24.2599 82.8539 23.8797C81.5831 22.6135 81.6155 20.5953 81.6361 20.1781V14.0294C81.6361 13.7567 81.7449 13.4952 81.9384 13.3023C82.1319 13.1095 82.3944 13.0012 82.6681 13.0012C82.9418 13.0012 83.2043 13.1095 83.3979 13.3023C83.5914 13.4952 83.7001 13.7567 83.7001 14.0294V20.1987C83.7001 20.2339 83.5232 21.6353 84.3164 22.4255C84.524 22.6097 84.7669 22.7501 85.0303 22.8385C85.2938 22.9268 85.5725 22.9612 85.8496 22.9396C87.6541 22.9396 88.002 21.5412 88.0581 20.7774C88.0433 20.4837 88.0581 14.0206 88.0581 14.0206C88.0581 13.7479 88.1668 13.4863 88.3603 13.2935C88.5539 13.1007 88.8164 12.9924 89.0901 12.9924C89.3638 12.9924 89.6263 13.1007 89.8198 13.2935C90.0133 13.4863 90.1221 13.7479 90.1221 14.0206C90.1221 14.0206 90.1221 20.5277 90.1073 20.8538C90.1246 21.4332 90.3471 21.9879 90.7354 22.4196C90.9463 22.6051 91.1927 22.7462 91.4597 22.8346C91.7267 22.9229 92.0088 22.9566 92.2892 22.9337C94.6481 22.9337 94.4948 20.5307 94.4771 20.3074C94.4771 20.2692 94.4771 14.0206 94.4771 14.0206C94.4967 13.7613 94.614 13.519 94.8054 13.3422C94.9967 13.1654 95.2481 13.0672 95.5091 13.0672C95.77 13.0672 96.0213 13.1654 96.2127 13.3422C96.4041 13.519 96.5214 13.7613 96.541 14.0206V20.1722L96.5204 20.1693Z" fill="#111111"/>
<path d="M128.103 14.802C128.951 15.6254 129.531 16.6842 129.767 17.8405C130.002 18.9968 129.883 20.1971 129.425 21.285C128.966 22.3729 128.19 23.2981 127.196 23.9401C126.202 24.5821 125.038 24.9112 123.854 24.8844H103.901C102.335 24.8844 100.832 24.2645 99.7249 23.1609C98.6173 22.0574 97.9951 20.5607 97.9951 19.0001C97.9951 17.4395 98.6173 15.9427 99.7249 14.8392C100.832 13.7357 102.335 13.1157 103.901 13.1157H123.854C124.639 13.1021 125.419 13.2441 126.148 13.5336C126.878 13.8231 127.542 14.2543 128.103 14.802ZM103.901 15.1722C102.882 15.1722 101.905 15.5755 101.184 16.2933C100.464 17.0112 100.059 17.9849 100.059 19.0001C100.059 20.0153 100.464 20.9889 101.184 21.7068C101.905 22.4247 102.882 22.828 103.901 22.828H123.854C124.873 22.828 125.85 22.4247 126.571 21.7068C127.291 20.9889 127.696 20.0153 127.696 19.0001C127.696 17.9849 127.291 17.0112 126.571 16.2933C125.85 15.5755 124.873 15.1722 123.854 15.1722H103.901Z" fill="#111111"/>
<path d="M132.617 21.9114C132.923 21.9114 133.222 22.0019 133.477 22.1713C133.731 22.3408 133.93 22.5817 134.047 22.8635C134.164 23.1453 134.195 23.4554 134.135 23.7546C134.075 24.0538 133.928 24.3286 133.711 24.5443C133.495 24.76 133.219 24.9069 132.919 24.9664C132.619 25.0259 132.307 24.9954 132.024 24.8787C131.742 24.7619 131.5 24.5642 131.33 24.3106C131.16 24.057 131.069 23.7588 131.069 23.4537C131.069 23.0447 131.232 22.6524 131.522 22.3631C131.813 22.0739 132.206 21.9114 132.617 21.9114Z" fill="#111111"/>
<path d="M141.389 24.9902C140.198 24.9902 139.034 24.6384 138.044 23.9792C137.053 23.32 136.282 22.3831 135.826 21.287C135.37 20.1908 135.251 18.9846 135.483 17.8209C135.716 16.6573 136.289 15.5884 137.131 14.7494C137.973 13.9104 139.046 13.3391 140.214 13.1076C141.382 12.8762 142.593 12.995 143.693 13.449C144.793 13.903 145.733 14.6719 146.395 15.6585C147.056 16.645 147.41 17.8048 147.41 18.9913V23.9708C147.41 24.2435 147.301 24.505 147.107 24.6978C146.914 24.8907 146.651 24.999 146.378 24.999C146.104 24.999 145.841 24.8907 145.648 24.6978C145.454 24.505 145.346 24.2435 145.346 23.9708V23.5213C144.249 24.4736 142.843 24.9958 141.389 24.9902ZM137.432 19.0001C137.432 19.7798 137.664 20.5421 138.099 21.1904C138.533 21.8387 139.151 22.3441 139.874 22.6425C140.597 22.9409 141.393 23.0189 142.161 22.8668C142.928 22.7147 143.633 22.3392 144.187 21.7878C144.74 21.2365 145.117 20.534 145.27 19.7692C145.422 19.0045 145.344 18.2118 145.044 17.4914C144.745 16.771 144.238 16.1552 143.587 15.722C142.936 15.2888 142.171 15.0576 141.389 15.0576C140.339 15.0584 139.333 15.474 138.591 16.2132C137.85 16.9524 137.432 17.9547 137.432 19.0001Z" fill="#111111"/>
<path d="M150.299 7.86008C150.605 7.86008 150.904 7.95053 151.159 8.12001C151.414 8.28948 151.612 8.53036 151.729 8.81218C151.846 9.094 151.877 9.40411 151.817 9.7033C151.757 10.0025 151.61 10.2773 151.394 10.493C151.177 10.7087 150.901 10.8556 150.601 10.9151C150.301 10.9746 149.989 10.9441 149.707 10.8273C149.424 10.7106 149.182 10.5129 149.012 10.2593C148.842 10.0056 148.751 9.70745 148.751 9.4024C148.751 8.99335 148.914 8.60106 149.204 8.31181C149.495 8.02257 149.888 7.86008 150.299 7.86008ZM150.299 24.999C150.025 24.999 149.763 24.8907 149.569 24.6978C149.376 24.505 149.267 24.2435 149.267 23.9708V14.0294C149.267 13.7567 149.376 13.4951 149.569 13.3023C149.763 13.1095 150.025 13.0012 150.299 13.0012C150.573 13.0012 150.835 13.1095 151.029 13.3023C151.222 13.4951 151.331 13.7567 151.331 14.0294V23.9708C151.329 24.2419 151.219 24.5012 151.026 24.6921C150.832 24.8831 150.571 24.9902 150.299 24.9902V24.999Z" fill="#111111"/>
<path d="M33.2095 14.1263H4.89164C2.19006 14.1263 0 16.3084 0 19.0001C0 21.6918 2.19006 23.8738 4.89164 23.8738H33.2095C35.911 23.8738 38.1011 21.6918 38.1011 19.0001C38.1011 16.3084 35.911 14.1263 33.2095 14.1263Z" fill="#111111"/>
<path d="M17.2873 0.0191956H4.89164C2.19006 0.0191956 0 2.20125 0 4.89295C0 7.58464 2.19006 9.7667 4.89164 9.7667H17.2873C19.9889 9.7667 22.179 7.58464 22.179 4.89295C22.179 2.20125 19.9889 0.0191956 17.2873 0.0191956Z" fill="#111111"/>
<path d="M33.2092 28.2335H20.8077C18.1061 28.2335 15.916 30.4155 15.916 33.1072C15.916 35.7989 18.1061 37.981 20.8077 37.981H33.2092C35.9108 37.981 38.1009 35.7989 38.1009 33.1072C38.1009 30.4155 35.9108 28.2335 33.2092 28.2335Z" fill="#111111"/>
<path d="M6.93498 28.2335H4.89164C2.19006 28.2335 0 30.4155 0 33.1072C0 35.7989 2.19006 37.981 4.89164 37.981H6.93498C9.63655 37.981 11.8266 35.7989 11.8266 33.1072C11.8266 30.4155 9.63655 28.2335 6.93498 28.2335Z" fill="#111111"/>
<path d="M33.2094 0.0191956H31.166C28.4645 0.0191956 26.2744 2.20125 26.2744 4.89295C26.2744 7.58464 28.4645 9.7667 31.166 9.7667H33.2094C35.911 9.7667 38.101 7.58464 38.101 4.89295C38.101 2.20125 35.911 0.0191956 33.2094 0.0191956Z" fill="#111111"/>
<path d="M213 14.0337V0.2013H215.614V14.0589C215.614 14.8355 215.934 15.4119 216.797 15.4119C217.66 15.4119 217.981 14.84 217.981 14.0589V3.90931C217.981 1.42854 219.633 0 221.828 0C224.022 0 225.576 1.42854 225.576 3.90931V14.0589C225.576 14.8355 225.897 15.4119 226.76 15.4119C227.623 15.4119 227.943 14.84 227.943 14.0589V3.90931C227.943 1.42854 229.595 0 231.791 0C233.986 0 235.538 1.42854 235.538 3.90931V14.0589C235.538 14.8355 235.859 15.4119 236.722 15.4119C237.585 15.4119 237.906 14.84 237.906 14.0589V0.2013H240.519V14.0406C240.519 16.5213 238.867 17.9499 236.673 17.9499C234.478 17.9499 232.924 16.5213 232.924 14.0406V3.88415C232.924 3.10755 232.604 2.5311 231.741 2.5311C230.878 2.5311 230.557 3.10297 230.557 3.88415V14.0337C230.557 16.5145 228.905 17.943 226.711 17.943C224.516 17.943 222.962 16.5145 222.962 14.0337V3.88415C222.962 3.10755 222.641 2.5311 221.778 2.5311C220.915 2.5311 220.595 3.10297 220.595 3.88415V14.0337C220.595 16.5145 218.943 17.943 216.748 17.943C214.552 17.943 213 16.5145 213 14.0337Z" fill="#111111"/>
<path d="M248.114 12.3799H245.499V17.7429H242.886V0.201324H245.499V9.84992H248.114V0.201324H250.728V17.7429H248.114V12.3799Z" fill="#111111"/>
<path d="M253.488 0.201324H259.903L260.865 17.744H258.401L258.154 12.3559H255.24L254.993 17.744H252.527L253.488 0.201324ZM258.026 9.87509L257.681 2.63177H255.708L255.362 9.87395L258.026 9.87509Z" fill="#111111"/>
<path d="M263.672 14.0841V2.73128H261.453V0.201324H269.738V2.73242H266.287V13.9091C266.287 14.6868 266.607 15.2633 267.47 15.2633H269.738V17.744H267.179C265.103 17.7429 263.672 16.4425 263.672 14.0841Z" fill="#111111"/>
<path d="M270.798 13.8118C270.798 11.5816 272.204 10.0524 274.645 10.0524H276.199C276.841 10.0524 277.456 9.85221 277.456 8.97496C277.456 8.09771 276.841 7.89756 276.199 7.89756H274.645C272.204 7.89756 270.798 6.36838 270.798 4.13809C270.798 1.90779 272.204 0.203613 274.645 0.203613H279.874V2.68439H274.67C274.029 2.68439 273.413 3.21051 273.413 4.08776C273.413 4.96501 274.029 5.41564 274.67 5.41564H276.224C278.665 5.41564 280.071 6.79499 280.071 9.02529C280.071 11.2556 278.665 12.5331 276.224 12.5331H274.67C274.029 12.5331 273.413 12.9849 273.413 13.8622C273.413 14.7394 274.029 15.2655 274.67 15.2655H279.874V17.7463H274.645C272.204 17.7429 270.798 16.0387 270.798 13.8118Z" fill="#111111"/>
<path d="M288.627 17.7429H282.709L281.5 0.201324H284.041L284.903 15.3136H286.432L287.295 0.201324H289.835L288.627 17.7429Z" fill="#111111"/>
<path d="M291.093 13.8118C291.093 11.5815 292.498 10.0524 294.939 10.0524H296.492C297.134 10.0524 297.751 9.85221 297.751 8.97496C297.751 8.09771 297.134 7.89756 296.492 7.89756H294.939C292.498 7.89756 291.093 6.36838 291.093 4.13808C291.093 1.90779 292.501 0.201324 294.939 0.201324H300.167V2.6821H294.964C294.323 2.6821 293.706 3.20822 293.706 4.08547C293.706 4.96272 294.323 5.41335 294.964 5.41335H296.517C298.959 5.41335 300.364 6.79271 300.364 9.023C300.364 11.2533 298.959 12.5309 296.517 12.5309H294.964C294.323 12.5309 293.706 12.9826 293.706 13.8599C293.706 14.7371 294.323 15.2633 294.964 15.2633H300.167V17.744H294.939C292.501 17.7429 291.093 16.0387 291.093 13.8118Z" fill="#111111"/>
<path d="M305.893 0.201324H308.803C310.997 0.201324 312.649 1.62986 312.649 4.11063V6.46674C312.649 8.57122 311.565 9.84992 309.198 9.84992H308.778C308.285 9.84992 307.915 10.2011 307.915 10.8015C307.915 11.402 308.285 11.7543 308.778 11.7543H309.198C311.561 11.7543 312.649 13.033 312.649 15.1374V17.744H310.035V15.1363C310.035 14.3357 309.691 14.1069 309.198 14.1069H308.778C306.752 14.1069 305.402 12.8488 305.402 10.8484C305.402 8.84801 306.752 7.49039 308.778 7.49039H309.198C309.716 7.49039 310.035 7.29023 310.035 6.46102V4.034C310.035 3.2574 309.716 2.68095 308.852 2.68095H305.843C304.981 2.68095 304.66 3.25283 304.66 4.034V17.7429H302.046V4.10949C302.04 1.62872 303.692 0.201324 305.893 0.201324Z" fill="#111111"/>
<path d="M213 34.0492V20.2168H215.614V34.0743C215.614 34.8509 215.934 35.4274 216.797 35.4274C217.66 35.4274 217.981 34.8555 217.981 34.0743V23.9248C217.981 21.444 219.633 20.0155 221.828 20.0155C224.022 20.0155 225.576 21.444 225.576 23.9248V34.0743C225.576 34.8509 225.897 35.4274 226.76 35.4274C227.623 35.4274 227.943 34.8555 227.943 34.0743V23.9248C227.943 21.444 229.595 20.0155 231.791 20.0155C233.986 20.0155 235.538 21.444 235.538 23.9248V34.0743C235.538 34.8509 235.859 35.4274 236.722 35.4274C237.585 35.4274 237.906 34.8555 237.906 34.0743V20.2168H240.519V34.056C240.519 36.5368 238.867 37.9653 236.673 37.9653C234.478 37.9653 232.924 36.5368 232.924 34.056V23.8996C232.924 23.123 232.604 22.5466 231.741 22.5466C230.878 22.5466 230.557 23.1184 230.557 23.8996V34.0492C230.557 36.53 228.905 37.9585 226.711 37.9585C224.516 37.9585 222.962 36.53 222.962 34.0492V23.8996C222.962 23.123 222.641 22.5466 221.778 22.5466C220.915 22.5466 220.595 23.1184 220.595 23.8996V34.0492C220.595 36.53 218.943 37.9585 216.748 37.9585C214.552 37.9585 213 36.53 213 34.0492Z" fill="#111111"/>
<path d="M242.886 34.0492V23.9248C242.886 21.444 244.538 20.0155 246.733 20.0155C248.927 20.0155 250.482 21.444 250.482 23.9248V34.0492C250.482 36.53 248.828 37.9585 246.634 37.9585C244.439 37.9585 242.886 36.53 242.886 34.0492ZM246.683 35.528C247.571 35.528 247.921 34.9562 247.921 34.1555V23.8241C247.921 23.0235 247.576 22.4516 246.683 22.4516C245.791 22.4516 245.445 23.0235 245.445 23.8241V34.1498C245.451 34.9516 245.797 35.528 246.683 35.528Z" fill="#111111"/>
<path d="M256.695 20.2168H259.604C261.8 20.2168 263.452 21.6453 263.452 24.1261V26.4822C263.452 28.5867 262.367 29.8654 259.999 29.8654H259.58C259.086 29.8654 258.717 30.2165 258.717 30.817C258.717 31.4174 259.086 31.7697 259.58 31.7697H259.999C262.362 31.7697 263.452 33.0484 263.452 35.1529V37.7595H260.837V35.1517C260.837 34.3511 260.492 34.1224 259.999 34.1224H259.58C257.555 34.1224 256.204 32.8643 256.204 30.8639C256.204 28.8635 257.555 27.5058 259.58 27.5058H259.999C260.517 27.5058 260.837 27.3057 260.837 26.4765V24.0494C260.837 23.2728 260.517 22.6964 259.653 22.6964H256.645C255.782 22.6964 255.461 23.2683 255.461 24.0494V37.7583H252.848V24.1249C252.848 21.6442 254.5 20.2168 256.695 20.2168Z" fill="#111111"/>
<path d="M265.818 20.2168H268.432V37.7583H265.818V20.2168ZM273.462 34.1704H272.796C270.651 34.1704 269.42 32.9924 269.42 30.8616C269.42 28.7308 270.652 27.4532 272.796 27.4532H273.462C273.98 27.4532 274.301 27.2531 274.301 26.4239V20.2168H276.915V26.4822C276.915 28.5867 275.83 29.8905 273.462 29.8905H272.796C272.427 29.8905 271.934 30.0907 271.934 30.817C271.934 31.5432 272.427 31.7445 272.796 31.7445H273.462C275.825 31.7445 276.915 33.0484 276.915 35.1529V37.7595H274.301V35.1998C274.301 34.3992 273.955 34.1704 273.462 34.1704Z" fill="#111111"/>
<path d="M279.282 34.0492V30.6912H281.847V34.1704C281.847 34.947 282.216 35.5235 283.084 35.5235C283.953 35.5235 284.322 34.9516 284.322 34.1704V32.9924C284.322 30.1856 279.292 29.3324 279.292 25.4231V23.9248C279.292 21.444 280.944 20.0155 283.138 20.0155C285.333 20.0155 286.874 21.444 286.874 23.9248V27.308H284.309V23.799C284.309 23.0224 283.939 22.4459 283.071 22.4459C282.203 22.4459 281.833 23.0178 281.833 23.799V24.977C281.833 27.7838 286.864 28.637 286.864 32.5452V34.0492C286.864 36.53 285.21 37.9585 283.016 37.9585C280.821 37.9585 279.282 36.53 279.282 34.0492Z" fill="#111111"/>
<path d="M187.021 14L177 24.0208" stroke="black" stroke-width="1.5" stroke-linecap="round"/>
<path d="M187.021 24.0208L177 14" stroke="black" stroke-width="1.5" stroke-linecap="round"/>
</svg>
