<svg width="155" height="130" viewBox="0 0 155 130" fill="none" xmlns="http://www.w3.org/2000/svg">
<g clip-path="url(#clip0_75_282)">
<path d="M20.9103 61.4468C15.9336 61.4468 10.9978 57.3071 9.90063 52.2174L0.723053 9.54657C0.196668 7.09946 0.668365 4.80498 2.04927 3.08669C3.38404 1.42842 5.41268 0.514404 7.76433 0.514404H49.2941C54.1529 0.514404 59.0544 4.48945 60.22 9.37679L70.4042 52.0476C71.0194 54.6199 70.5751 57.0396 69.1686 58.8368C67.844 60.5207 65.812 61.4468 63.445 61.4468H20.9103Z" fill="#F8F8F8"/>
<path d="M85.7323 120.086C86.3476 122.659 85.9032 125.078 84.4967 126.876C83.1739 128.558 81.1418 129.486 78.7748 129.486H36.2452C31.2685 129.486 26.3328 125.344 25.2356 120.256L16.058 77.5854C15.5316 75.1366 16.0033 72.8421 17.3842 71.1238C18.719 69.4655 20.7493 68.5515 23.0993 68.5515H64.629C69.4879 68.5515 74.3894 72.5283 75.5567 77.4156L85.7323 120.086Z" fill="#F8F8F8"/>
<path d="M69.206 9.54657C68.6796 7.09946 69.1513 4.80498 70.5322 3.08669C71.8669 1.42842 73.8973 0.514404 76.2472 0.514404H117.777C122.636 0.514404 127.537 4.48945 128.703 9.37679L138.887 52.0476C139.502 54.6199 139.058 57.0396 137.651 58.8368C136.329 60.5207 134.295 61.4468 131.93 61.4468H89.3932C84.4165 61.4468 79.4807 57.3071 78.3835 52.2174L69.206 9.54657Z" fill="#F8F8F8"/>
<path d="M152.98 126.876C151.657 128.558 149.625 129.486 147.258 129.486H104.729C99.7519 129.486 94.8162 125.344 93.7189 120.256L84.5414 77.5854C84.015 75.1366 84.4867 72.8421 85.8693 71.1238C87.2024 69.4655 89.2327 68.5515 91.5826 68.5515H133.112C137.971 68.5515 142.874 72.5283 144.04 77.4156L154.223 120.086C154.831 122.667 154.393 125.078 152.98 126.876Z" fill="#F8F8F8"/>
<path d="M55.6364 117.631C52.8719 117.636 50.1542 116.916 47.7525 115.542C45.3189 114.17 43.2031 112.184 41.4616 109.653C39.72 107.122 38.4451 104.203 37.6213 100.907L36.8369 97.608C36.0439 94.2383 35.9157 91.2219 36.4592 88.6393C37.0146 86.0173 38.24 83.9646 40.1063 82.5395C41.9726 81.1145 44.3481 80.4062 47.1954 80.4062C50.9878 80.4062 54.3512 81.49 57.1899 83.6268C60.0286 85.7635 62.1461 88.8279 63.4877 92.7395L63.7201 93.4255H56.8139L56.6925 93.0825C55.838 90.6697 54.7391 88.9154 53.4214 87.871C52.1038 86.8267 50.4221 86.3157 48.3678 86.3157C46.0264 86.3157 44.4934 87.1731 43.6799 88.9119C42.8254 90.728 42.8254 93.482 43.6491 97.1004L44.3926 100.218C45.2761 103.941 46.5989 106.812 48.3234 108.753C50.0478 110.694 52.0251 111.612 54.4264 111.612C56.5695 111.612 58.0581 111.125 58.8511 110.162C59.6441 109.2 59.9124 107.494 59.6253 105.119L59.5672 104.533H66.4375L66.5042 104.968C67.1143 108.89 66.4597 112.011 64.5593 114.247C62.6588 116.483 59.6458 117.631 55.6364 117.631Z" fill="black"/>
<path d="M65.9928 105.047H60.141C60.4464 107.578 60.1501 109.389 59.2523 110.48C58.3545 111.57 56.748 112.116 54.4328 112.116C51.9012 112.116 49.7364 111.106 47.9385 109.085C46.1405 107.065 44.7915 104.146 43.8914 100.328L43.16 97.2101C42.3009 93.458 42.3225 90.6176 43.2249 88.689C44.1273 86.7603 45.8449 85.796 48.3777 85.796C50.5596 85.796 52.3501 86.3516 53.7492 87.4628C55.1483 88.5741 56.294 90.3884 57.1861 92.9058H63.0122C61.702 89.0748 59.6619 86.119 56.8921 84.0383C54.1223 81.9576 50.8934 80.9184 47.2053 80.9207C44.4594 80.9207 42.2001 81.5969 40.4272 82.9493C38.6544 84.3018 37.5025 86.2339 36.9715 88.7456C36.4417 91.2607 36.5665 94.1759 37.3458 97.4913L38.12 100.782C38.9324 104.034 40.1857 106.892 41.8799 109.356C43.5741 111.821 45.6142 113.732 48 115.089C50.3245 116.424 52.9577 117.123 55.636 117.116C59.5098 117.116 62.3531 116.05 64.1658 113.918C65.9785 111.786 66.5875 108.829 65.9928 105.047Z" fill="black"/>
<path d="M36.2453 130C31.0396 130 25.8766 125.677 24.7349 120.364L15.5574 77.6935C14.9968 75.0903 15.5044 72.6432 16.9844 70.8015C18.42 69.018 20.5905 68.0371 23.0994 68.0371H64.6291C69.7101 68.0371 74.8355 72.1905 76.0558 77.2973L86.228 119.966C86.8809 122.71 86.4075 125.271 84.8967 127.195C83.473 129.004 81.2974 130 78.7715 130H36.2453ZM23.0994 69.8343C21.1408 69.8343 19.4642 70.5785 18.3773 71.9281C17.2442 73.3395 16.8631 75.2532 17.3057 77.3162L26.4833 119.987C27.4574 124.518 31.836 128.205 36.2453 128.205H78.7749C80.742 128.205 82.4186 127.45 83.4936 126.082C84.6591 124.6 85.0129 122.576 84.4899 120.385L74.3074 77.7141C73.2718 73.3686 68.9257 69.8257 64.6223 69.8257L23.0994 69.8343Z" fill="black"/>
<path d="M85.7323 120.086L75.5498 77.4156C74.3825 72.5283 69.481 68.5515 64.6222 68.5515H23.0924C20.7425 68.5515 18.7122 69.4655 17.3774 71.1238C15.9965 72.8387 15.5248 75.1366 16.0512 77.5854L25.2287 120.256C26.3225 125.344 31.2617 129.486 36.2384 129.486H78.7679C81.135 129.486 83.167 128.558 84.4898 126.876C85.9083 125.078 86.3476 122.667 85.7323 120.086ZM83.8968 126.401C82.721 127.896 80.9025 128.719 78.7697 128.719H36.2452C31.6086 128.719 27.0044 124.85 25.991 120.095L16.8134 77.4242C16.3366 75.2052 16.7536 73.137 17.9875 71.6057C19.1736 70.1309 20.992 69.3198 23.1147 69.3198H64.6444C69.1717 69.3198 73.7399 73.0307 74.8286 77.594L85.0111 120.265C85.5443 122.612 85.1615 124.792 83.8968 126.401Z" fill="black"/>
<path d="M104.729 130C99.5229 130 94.3599 125.677 93.2183 120.364L84.0407 77.6935C83.4801 75.0903 83.9877 72.6432 85.4712 70.8015C86.9033 69.018 89.0738 68.0371 91.5827 68.0371H133.112C138.195 68.0371 143.321 72.1905 144.539 77.2973L154.715 119.966C155.368 122.71 154.894 125.272 153.383 127.195C151.96 129.004 149.784 130 147.258 130H104.729ZM91.5827 69.8343C89.6258 69.8343 87.9493 70.5785 86.8606 71.9298C85.7275 73.3395 85.3464 75.2532 85.789 77.3162L94.9666 119.987C95.9408 124.518 100.319 128.205 104.729 128.205H147.258C149.225 128.205 150.902 127.45 151.977 126.082C153.142 124.6 153.496 122.576 152.973 120.385L142.798 77.7141C141.762 73.3686 137.416 69.8257 133.112 69.8257L91.5827 69.8343Z" fill="black"/>
<path d="M154.216 120.086L144.033 77.4156C142.868 72.5283 137.964 68.5515 133.106 68.5515H91.5758C89.2259 68.5515 87.1955 69.4655 85.8625 71.1238C84.4798 72.8387 84.0082 75.1366 84.5345 77.5854L93.7121 120.256C94.8059 125.344 99.745 129.486 104.722 129.486H147.258C149.625 129.486 151.657 128.558 152.98 126.876C154.393 125.078 154.831 122.667 154.216 120.086ZM152.38 126.401C151.204 127.896 149.386 128.719 147.253 128.719H104.729C100.092 128.719 95.4878 124.85 94.4743 120.095L85.2968 77.4242C84.8199 75.2052 85.237 73.137 86.4709 71.6057C87.6672 70.1309 89.4771 69.3198 91.598 69.3198H133.128C137.655 69.3198 142.223 73.0307 143.312 77.594L153.494 120.265C154.033 122.612 153.645 124.792 152.38 126.401Z" fill="black"/>
<path d="M20.9099 61.9613C15.7041 61.9613 10.5411 57.6381 9.39947 52.3255L0.221912 9.65466C-0.338655 7.05322 0.168927 4.60611 1.64896 2.76435C3.08456 0.980898 5.25505 0 7.76392 0H49.2937C54.3764 0 59.5001 4.15339 60.7186 9.26024L70.9028 51.9311C71.554 54.6748 71.0823 57.2351 69.5715 59.1592C68.1478 60.9684 65.9722 61.9647 63.4446 61.9647L20.9099 61.9613ZM7.76392 1.79546C5.80707 1.79546 4.13049 2.53971 3.04183 3.89101C1.90703 5.30234 1.52762 7.21441 1.97026 9.27739L11.1478 51.9482C12.122 56.4789 16.5006 60.1658 20.9099 60.1658H63.4377C65.4065 60.1658 67.0831 59.4113 68.1564 58.0428C69.3237 56.5612 69.6791 54.5376 69.1545 52.3461L58.9703 9.67523C57.9346 5.32978 53.5902 1.78688 49.2868 1.78688L7.76392 1.79546Z" fill="black"/>
<path d="M70.3973 52.0476L60.2132 9.37679C59.0476 4.48945 54.146 0.514404 49.2872 0.514404H7.75747C5.40582 0.514404 3.3772 1.42842 2.04244 3.08669C0.661529 4.80155 0.189832 7.09946 0.716217 9.54657L9.89377 52.2174C10.9876 57.3071 15.9267 61.4468 20.9034 61.4468H63.4313C65.7983 61.4468 67.8303 60.5207 69.1549 58.8368C70.5734 57.0396 71.0177 54.6302 70.3973 52.0476ZM68.5601 58.3617C67.386 59.8571 65.5676 60.6802 63.433 60.6802H20.9103C16.2736 60.6802 11.6695 56.8115 10.656 52.0562L1.47844 9.38537C1.00162 7.16806 1.41863 5.09822 2.65256 3.56857C3.83863 2.09379 5.65705 1.28095 7.77969 1.28095H49.3094C53.8367 1.28095 58.4033 4.99362 59.4919 9.55514L69.6505 52.2294C70.2145 54.5736 69.8214 56.7532 68.5601 58.3617Z" fill="black"/>
<path d="M48.2106 49.1993L43.7106 41.3555H31.7097L30.792 49.1993H23.7729L28.8744 14.825H34.6852L55.4073 49.1993H48.2106ZM40.4413 35.6313L33.7606 23.9463L32.378 35.6313H40.4413Z" fill="black"/>
<path d="M34.3946 15.3394H29.3171L24.3608 48.6848H30.3288L31.2466 40.841H44.0148L48.5148 48.6848H54.5049L34.3946 15.3394ZM31.7969 36.1457L33.4307 22.3428L41.3265 36.1457H31.7969Z" fill="black"/>
<path d="M89.3933 61.9613C84.1875 61.9613 79.0245 57.6381 77.8829 52.3255L68.7053 9.65466C68.1447 7.05322 68.6523 4.60611 70.1324 2.76435C71.568 0.980898 73.7384 0 76.2473 0H117.777C122.86 0 127.983 4.15339 129.202 9.26024L139.379 51.9276C140.031 54.6714 139.559 57.2317 138.048 59.1558C136.626 60.9649 134.459 61.9613 131.923 61.9613H89.3933ZM76.2473 1.79546C74.2905 1.79546 72.6139 2.53971 71.5252 3.89101C70.3904 5.30234 70.011 7.21441 70.4537 9.27739L79.6312 51.9482C80.6054 56.4789 84.984 60.1658 89.3933 60.1658H131.923C133.89 60.1658 135.567 59.4113 136.642 58.0428C137.807 56.5612 138.161 54.5376 137.638 52.3461L127.455 9.67523C126.42 5.32978 122.074 1.78688 117.77 1.78688L76.2473 1.79546Z" fill="black"/>
<path d="M138.88 52.0476L128.696 9.37679C127.53 4.48945 122.629 0.514404 117.77 0.514404H76.2404C73.8905 0.514404 71.8601 1.42842 70.5253 3.08669C69.1444 4.80155 68.6727 7.09946 69.1991 9.54657L78.3767 52.2174C79.4705 57.3071 84.4096 61.4468 89.3863 61.4468H131.916C134.281 61.4468 136.315 60.5207 137.638 58.8368C139.056 57.0396 139.496 54.6302 138.88 52.0476ZM137.045 58.3617C135.869 59.8571 134.05 60.6802 131.918 60.6802H89.3932C84.7566 60.6802 80.1524 56.8115 79.1389 52.0562L69.9614 9.38537C69.4845 7.16806 69.9015 5.09822 71.1355 3.56857C72.3216 2.09379 74.14 1.28095 76.2626 1.28095H117.792C122.32 1.28095 126.888 4.99362 127.977 9.55514L138.137 52.2294C138.696 54.5736 138.309 56.7532 137.045 58.3617Z" fill="black"/>
<path d="M95.6638 50.1408L88.1235 13.8835H100.242C104.12 13.8835 107.299 14.7084 109.692 16.3375C112.117 17.9855 113.704 20.472 114.412 23.7268C114.781 25.4314 114.667 26.9954 114.07 28.3758C113.599 29.457 112.828 30.3793 111.848 31.0321C113.369 31.6059 114.733 32.5319 115.829 33.7347C117.205 35.257 118.15 37.1218 118.563 39.1348C119.322 42.6246 118.809 45.3649 117.044 47.2804C115.279 49.1959 112.407 50.1408 108.466 50.1408H95.6638ZM107.487 44.1697C109.17 44.1697 110.392 43.7444 111.122 42.9058C111.852 42.0672 112.04 40.9063 111.707 39.356C110.967 35.9143 108.972 34.2115 105.607 34.1292H99.2494L101.358 44.1697H107.487ZM103.411 28.6022C105.081 28.6022 106.301 28.2198 107.039 27.4652C107.778 26.7107 107.96 25.6903 107.658 24.2842C107.316 22.6962 106.641 21.5404 105.646 20.8544C104.652 20.1685 103.158 19.7947 101.275 19.7947H96.2346L98.0855 28.6022H103.411Z" fill="black"/>
<path d="M118.064 39.2445C117.672 37.3197 116.77 35.5366 115.453 34.0828C114.15 32.6572 112.462 31.6441 110.594 31.1675C112.046 30.4587 113.05 29.4607 113.605 28.1734C114.16 26.8861 114.263 25.4411 113.914 23.8382C113.231 20.7001 111.729 18.3421 109.408 16.7645C107.087 15.1868 104.032 14.3979 100.242 14.3979H88.7573L96.084 49.6263H108.471C112.282 49.6263 115.017 48.7277 116.675 46.9305C118.332 45.1334 118.795 42.5714 118.064 39.2445ZM95.602 19.2767H101.268C103.266 19.2767 104.82 19.6603 105.93 20.4274C107.04 21.1945 107.78 22.4429 108.152 24.1726C108.493 25.7446 108.242 26.961 107.398 27.8219C106.554 28.6827 105.222 29.1131 103.404 29.1131H97.6785L95.602 19.2767ZM111.508 43.2402C110.674 44.2005 109.334 44.6806 107.487 44.6806H100.943L98.6168 33.6112H105.624C109.227 33.6924 111.423 35.5702 112.212 39.2445C112.577 40.9491 112.342 42.281 111.508 43.2402Z" fill="black"/>
<path d="M110.73 115.004L104.081 81.2637H116.117C118.862 81.2637 121.022 81.4797 122.538 81.9067C124.597 82.5035 126.497 83.5546 128.099 84.9832C129.842 86.5339 131.3 88.379 132.408 90.4347C133.594 92.5852 134.544 95.2861 135.231 98.4603C135.833 101.243 136.012 103.672 135.763 105.675C135.457 108.117 134.683 110.118 133.462 111.622C132.548 112.754 131.148 113.65 129.299 114.29C127.911 114.762 125.934 115.002 123.422 115.002L110.73 115.004ZM121.439 109.888C123.412 109.888 124.782 109.777 125.628 109.545C126.734 109.252 127.612 108.744 128.241 108.036C128.87 107.328 129.267 106.174 129.409 104.558C129.549 102.989 129.333 100.834 128.764 98.1533C128.188 95.4318 127.525 93.3912 126.736 91.9164C125.946 90.4416 125.027 89.2755 123.982 88.4404C122.913 87.5897 121.658 87.005 120.32 86.7341C119.294 86.5077 117.428 86.3911 114.603 86.3911H111.216L115.945 109.885L121.439 109.888Z" fill="black"/>
<path d="M132.106 90.6027C131.039 88.618 129.634 86.8362 127.954 85.3381C126.429 83.9745 124.619 82.9708 122.656 82.4006C121.188 81.9873 119.078 81.7781 116.381 81.7781H104.845L111.252 114.489H123.434C125.893 114.489 127.821 114.258 129.161 113.803C130.938 113.189 132.282 112.333 133.152 111.256C134.327 109.809 135.076 107.877 135.373 105.512C135.618 103.56 135.445 101.189 134.861 98.4636C134.184 95.346 133.259 92.7 132.106 90.6027ZM130.055 104.711C129.899 106.426 129.484 107.626 128.787 108.42C128.089 109.214 127.16 109.734 125.977 110.048C125.093 110.286 123.682 110.402 121.663 110.402H115.654L110.763 85.88H114.65C117.505 85.88 119.411 85.9932 120.471 86.223C121.907 86.5143 123.254 87.1431 124.401 88.0579C125.512 88.9513 126.498 90.1929 127.327 91.7465C128.142 93.2728 128.824 95.3649 129.411 98.1447C129.98 100.89 130.193 103.095 130.048 104.704L130.055 104.711Z" fill="black"/>
</g>
<defs>
<clipPath id="clip0_75_282">
<rect width="155" height="130" fill="white"/>
</clipPath>
</defs>
</svg>
