<svg width="269" height="275" viewBox="0 0 269 275" fill="none" xmlns="http://www.w3.org/2000/svg">
<g clip-path="url(#clip0_17_10663)">
<path d="M150.295 40.2807L151.838 36.5469L148.236 34.0062C148.437 33.0878 148.561 32.154 148.607 31.2149L152.741 29.6901L152.211 25.6847L147.816 25.287C147.529 24.3927 147.169 23.5238 146.738 22.6893L149.56 19.2962L147.098 16.0937L143.091 17.9441C142.395 17.313 141.646 16.7417 140.854 16.2363L141.604 11.8842L137.87 10.34L135.328 13.9417C134.41 13.7402 133.477 13.6162 132.538 13.571L131.012 9.43652L127.007 9.96627L126.609 14.3619C125.716 14.6493 124.847 15.0096 124.013 15.4394L120.62 12.618L117.416 15.0792L119.266 19.0801C118.635 19.7763 118.064 20.5242 117.558 21.3162L113.206 20.5658L111.668 24.3116L115.27 26.8538C115.069 27.7717 114.945 28.705 114.901 29.6436L110.766 31.1698L111.296 35.1752L115.691 35.5729C115.978 36.4668 116.338 37.3352 116.769 38.1692L113.952 41.5698L116.413 44.7738L120.413 42.9204C121.109 43.5515 121.858 44.1228 122.65 44.6282L121.9 48.9803L125.634 50.523L128.176 46.9213C129.094 47.1232 130.027 47.2467 130.966 47.2905L132.492 51.4265L136.496 50.8952L136.894 46.4996C137.788 46.2132 138.657 45.8527 139.491 45.4221L142.884 48.2449L146.093 45.7718L144.241 41.7724C144.87 41.075 145.439 40.326 145.943 39.5333L150.295 40.2807ZM127.784 40.0406C125.883 39.2547 124.258 37.9229 123.114 36.2134C121.97 34.504 121.359 32.4937 121.358 30.4368C121.356 28.3799 121.965 26.3688 123.106 24.6577C124.248 22.9467 125.871 21.6125 127.771 20.8241C129.67 20.0356 131.761 19.8281 133.779 20.228C135.797 20.6278 137.651 21.617 139.106 23.0704C140.561 24.5237 141.553 26.3761 141.956 28.3932C142.359 30.4103 142.154 32.5015 141.369 34.4024C140.847 35.6646 140.082 36.8116 139.117 37.7781C138.152 38.7445 137.006 39.5114 135.744 40.035C134.483 40.5585 133.131 40.8285 131.765 40.8295C130.399 40.8304 129.046 40.5623 127.784 40.0406Z" fill="#F8F8F8"/>
<path d="M132.495 51.749C132.426 51.7493 132.359 51.7284 132.303 51.6892C132.246 51.65 132.203 51.5944 132.18 51.5299L130.73 47.6026C129.923 47.5526 129.121 47.4458 128.329 47.2829L125.914 50.709C125.871 50.7714 125.807 50.817 125.734 50.8383C125.661 50.8596 125.582 50.8553 125.512 50.8261L121.781 49.2834C121.711 49.2542 121.652 49.2019 121.616 49.135C121.579 49.0682 121.566 48.9909 121.579 48.9157L122.289 44.7842C121.611 44.3407 120.967 43.8487 120.36 43.312L116.56 45.0709C116.491 45.1029 116.413 45.1104 116.339 45.0921C116.265 45.0738 116.2 45.0309 116.154 44.9703L113.691 41.7678C113.645 41.7071 113.62 41.6324 113.622 41.5561C113.624 41.4798 113.651 41.4063 113.7 41.3476L116.379 38.1181C116.018 37.3946 115.707 36.647 115.45 35.8805L111.276 35.5098C111.201 35.5021 111.13 35.4691 111.076 35.4163C111.021 35.3635 110.986 35.2939 110.976 35.2187L110.437 31.2148C110.428 31.1394 110.444 31.0628 110.483 30.9977C110.522 30.9326 110.582 30.8826 110.654 30.8561L114.578 29.4139C114.628 28.6071 114.735 27.8047 114.898 27.0128L111.471 24.5981C111.409 24.5543 111.364 24.4906 111.343 24.4175C111.321 24.3445 111.325 24.2664 111.354 24.196L112.899 20.4622C112.928 20.3922 112.98 20.3341 113.046 20.2973C113.113 20.2606 113.19 20.2473 113.265 20.2596L117.396 20.9694C117.84 20.2924 118.332 19.648 118.868 19.041L117.11 15.2412C117.078 15.1721 117.07 15.0941 117.088 15.0202C117.107 14.9462 117.15 14.8807 117.21 14.8345L120.414 12.3733C120.474 12.3268 120.549 12.3021 120.625 12.3035C120.701 12.3049 120.774 12.3322 120.833 12.3808L124.056 15.0626C124.78 14.7008 125.527 14.3904 126.294 14.1337L126.672 9.9572C126.679 9.88158 126.711 9.81052 126.764 9.7559C126.817 9.70127 126.886 9.66638 126.962 9.65706L130.967 9.1258C131.043 9.11631 131.119 9.13264 131.184 9.17215C131.249 9.21165 131.299 9.272 131.326 9.34341L132.776 13.2708C133.582 13.32 134.385 13.4268 135.177 13.5904L137.591 10.1643C137.635 10.1019 137.699 10.0563 137.772 10.0351C137.845 10.0138 137.923 10.0181 137.993 10.0472L141.741 11.5765C141.811 11.6057 141.87 11.658 141.907 11.7248C141.943 11.7916 141.956 11.869 141.943 11.9441L141.234 16.0741C141.91 16.5188 142.555 17.0108 143.162 17.5463L146.962 15.789C147.031 15.7573 147.109 15.7499 147.182 15.7679C147.256 15.7858 147.322 15.8282 147.368 15.888L149.83 19.092C149.877 19.1514 149.903 19.2253 149.903 19.3014C149.903 19.3775 149.877 19.4513 149.83 19.5107L147.149 22.7343C147.51 23.458 147.82 24.2056 148.078 24.9718L152.253 25.35C152.329 25.3577 152.399 25.3904 152.453 25.4429C152.508 25.4955 152.543 25.5647 152.553 25.6396L153.083 29.645C153.093 29.7207 153.078 29.7976 153.038 29.8629C152.998 29.9282 152.937 29.9779 152.866 30.0037L148.94 31.4534C148.889 32.2603 148.783 33.0626 148.62 33.8545L152.046 36.2677C152.108 36.3122 152.153 36.3762 152.174 36.4493C152.196 36.5225 152.192 36.6007 152.163 36.6714L150.619 40.4037C150.59 40.4742 150.538 40.5328 150.472 40.5696C150.405 40.6065 150.328 40.6194 150.253 40.6063L146.121 39.8964C145.677 40.5735 145.185 41.2184 144.649 41.8263L146.393 45.6306C146.425 45.6996 146.433 45.7774 146.415 45.8514C146.397 45.9253 146.354 45.9909 146.294 46.0373L143.091 48.4985C143.032 48.5459 142.958 48.5716 142.882 48.5716C142.806 48.5716 142.732 48.5459 142.673 48.4985L139.449 45.8167C138.726 46.1779 137.978 46.4883 137.212 46.7457L136.833 50.9206C136.826 50.9961 136.794 51.0668 136.741 51.1214C136.688 51.1759 136.619 51.2109 136.544 51.2208L132.538 51.7505C132.524 51.7515 132.509 51.751 132.495 51.749ZM128.179 46.5731C128.202 46.5709 128.226 46.5709 128.249 46.5731C129.149 46.7709 130.064 46.8924 130.984 46.9363C131.05 46.9392 131.113 46.9616 131.167 47.0006C131.22 47.0395 131.261 47.0934 131.284 47.1554L132.717 51.0392L136.19 50.5785L136.563 46.45C136.569 46.3845 136.595 46.3221 136.636 46.2707C136.677 46.2192 136.732 46.1809 136.794 46.1604C137.673 45.8816 138.526 45.5303 139.346 45.1099C139.404 45.0792 139.47 45.0666 139.536 45.0735C139.602 45.0805 139.664 45.1067 139.715 45.1489L142.901 47.8007L145.68 45.6651L143.942 41.9134C143.915 41.8536 143.905 41.787 143.915 41.7219C143.925 41.6568 143.954 41.596 143.998 41.5472C144.616 40.8646 145.176 40.1312 145.671 39.3547C145.707 39.299 145.758 39.255 145.818 39.2283C145.878 39.2016 145.945 39.1934 146.01 39.2046L150.095 39.9054L151.434 36.6684L148.044 34.2792C147.99 34.2414 147.948 34.1885 147.924 34.1271C147.9 34.0657 147.895 33.9985 147.909 33.9341C148.106 33.0343 148.227 32.1197 148.272 31.1998C148.275 31.1338 148.297 31.0702 148.336 31.0169C148.375 30.9635 148.429 30.9228 148.491 30.8996L152.373 29.468L151.914 25.9938L147.786 25.6201C147.72 25.6142 147.658 25.5892 147.606 25.5481C147.555 25.507 147.516 25.4517 147.496 25.389C147.217 24.5112 146.865 23.6579 146.446 22.8378C146.416 22.7793 146.403 22.7133 146.411 22.6479C146.418 22.5826 146.444 22.5207 146.486 22.4701L149.136 19.2826L146.993 16.5078L143.241 18.2456C143.182 18.2731 143.115 18.2823 143.05 18.2721C142.985 18.262 142.924 18.233 142.875 18.1886C142.193 17.5703 141.459 17.0105 140.683 16.5153C140.627 16.4797 140.583 16.4286 140.557 16.3683C140.53 16.308 140.522 16.2412 140.533 16.1762L141.234 12.0912L137.989 10.7556L135.603 14.1442C135.565 14.1979 135.512 14.2393 135.45 14.263C135.389 14.2868 135.322 14.2919 135.258 14.2778C134.357 14.0813 133.442 13.9599 132.522 13.9146C132.456 13.9119 132.392 13.8898 132.339 13.8511C132.286 13.8124 132.245 13.7588 132.222 13.697L130.786 9.81313L127.313 10.2723L126.945 14.4068C126.939 14.4722 126.914 14.5344 126.873 14.5857C126.832 14.6369 126.777 14.6749 126.714 14.6949C125.836 14.9741 124.983 15.3255 124.163 15.7454C124.104 15.7757 124.038 15.788 123.972 15.7808C123.907 15.7736 123.845 15.7472 123.794 15.7049L120.612 13.0562L117.834 15.1917L119.572 18.9435C119.6 19.0032 119.609 19.0698 119.599 19.1349C119.59 19.2 119.561 19.2607 119.517 19.3096C118.898 19.9918 118.338 20.7253 117.843 21.5022C117.808 21.5578 117.756 21.6017 117.696 21.6284C117.635 21.6551 117.568 21.6634 117.503 21.6522L113.419 20.9499L112.081 24.1885L115.468 26.5746C115.522 26.6127 115.564 26.6659 115.588 26.7275C115.612 26.7892 115.617 26.8566 115.603 26.9213C115.405 27.8208 115.284 28.7355 115.24 29.6555C115.237 29.7216 115.215 29.7854 115.176 29.8388C115.137 29.8922 115.083 29.9329 115.021 29.9557L111.138 31.3889L111.597 34.8615L115.726 35.2352C115.792 35.2412 115.854 35.2665 115.906 35.3079C115.957 35.3492 115.995 35.4049 116.016 35.4678C116.294 36.3459 116.646 37.1993 117.066 38.019C117.096 38.0776 117.108 38.1436 117.101 38.2089C117.094 38.2743 117.068 38.3361 117.026 38.3867L114.381 41.5697L116.515 44.3475L120.267 42.6097C120.327 42.582 120.394 42.5724 120.459 42.5823C120.525 42.5922 120.586 42.621 120.635 42.6652C121.316 43.2844 122.049 43.8446 122.826 44.34C122.881 44.3755 122.925 44.4266 122.952 44.4869C122.979 44.5473 122.987 44.6141 122.976 44.6792L122.28 48.7731L125.517 50.1103L127.904 46.7232C127.934 46.6777 127.975 46.6404 128.023 46.6142C128.071 46.5881 128.124 46.574 128.179 46.5731ZM131.74 41.1705C129.437 41.168 127.196 40.4252 125.348 39.0517C123.499 37.6783 122.142 35.747 121.475 33.5429C120.808 31.3388 120.867 28.9787 121.644 26.8109C122.42 24.6431 123.874 22.7824 125.789 21.5035C127.704 20.2246 129.979 19.5952 132.279 19.7083C134.579 19.8213 136.782 20.6708 138.562 22.1314C140.343 23.5919 141.606 25.5861 142.167 27.8197C142.727 30.0533 142.555 32.4078 141.675 34.5359C140.867 36.5048 139.49 38.1877 137.72 39.3689C135.95 40.5502 133.868 41.176 131.74 41.166V41.1705ZM131.754 20.3631C129.247 20.3582 126.829 21.2859 124.969 22.9655C123.11 24.6452 121.941 26.9567 121.692 29.4503C121.442 31.9439 122.129 34.4412 123.619 36.4561C125.109 38.4711 127.296 39.8596 129.753 40.3514C132.21 40.8433 134.763 40.4033 136.913 39.1171C139.064 37.8309 140.66 35.7904 141.389 33.3929C142.118 30.9953 141.93 28.4122 140.86 26.1461C139.79 23.88 137.915 22.093 135.6 21.133C134.381 20.6251 133.074 20.362 131.754 20.3586V20.3631Z" fill="black"/>
<path d="M227.881 59.7509L230.548 53.2979L224.316 48.9053C224.664 47.3188 224.877 45.7058 224.955 44.0835L232.1 41.4482L231.185 34.5269L223.588 33.8381C223.094 32.2939 222.472 30.7935 221.729 29.3525L226.606 23.4877L222.351 17.9516L215.439 21.1496C214.235 20.0591 212.942 19.0716 211.573 18.1977L212.864 10.6821L206.411 8.01536L202.021 14.2568C200.435 13.9078 198.822 13.6935 197.199 13.616L194.566 6.46362L187.644 7.38056L186.957 14.9757C185.413 15.4724 183.912 16.0953 182.47 16.838L176.605 11.9622L171.07 16.2153L174.268 23.1275C173.178 24.3317 172.19 25.6254 171.317 26.9949L163.801 25.7028L161.134 32.1558L167.367 36.5469C167.019 38.1335 166.805 39.7464 166.727 41.3687L159.583 44.0054L160.498 50.9267L168.095 51.6141C168.589 53.159 169.212 54.6599 169.957 56.1012L165.08 61.966L169.334 67.5021L176.246 64.3041C177.45 65.3946 178.743 66.3821 180.112 67.256L178.822 74.7716L185.275 77.4383L189.667 71.2044C191.254 71.5536 192.867 71.7675 194.489 71.8437L197.117 78.9901L204.038 78.0731L204.725 70.4765C206.27 69.9811 207.771 69.3582 209.213 68.6141L215.077 73.4915L220.612 69.2369L217.414 62.3261C218.51 61.1232 219.501 59.8295 220.378 58.4588L227.881 59.7509ZM188.971 59.3367C185.686 57.9788 182.877 55.6772 180.9 52.7231C178.924 49.769 177.867 46.295 177.864 42.7404C177.862 39.1858 178.913 35.7102 180.886 32.7533C182.859 29.7963 185.664 27.4907 188.947 26.128C192.23 24.7653 195.843 24.4067 199.33 25.0976C202.817 25.7885 206.021 27.4978 208.536 30.0094C211.051 32.521 212.765 35.7221 213.462 39.2079C214.158 42.6936 213.804 46.3076 212.447 49.5926C210.626 53.9968 207.13 57.4974 202.729 59.3247C198.327 61.152 193.38 61.1564 188.975 59.3367H188.971Z" fill="#F8F8F8"/>
<path d="M197.117 79.3247C197.048 79.3249 196.981 79.304 196.925 79.2648C196.869 79.2256 196.826 79.17 196.802 79.1056L194.242 72.1678C192.751 72.0861 191.269 71.8909 189.809 71.584L185.545 77.6364C185.501 77.6985 185.437 77.7437 185.364 77.7648C185.291 77.7858 185.213 77.7812 185.143 77.7519L178.69 75.0852C178.62 75.0558 178.562 75.0037 178.525 74.9372C178.488 74.8708 178.475 74.7939 178.487 74.719L179.742 67.421C178.488 66.6085 177.299 65.7009 176.184 64.7062L169.473 67.8112C169.403 67.8429 169.325 67.8503 169.252 67.832C169.178 67.8138 169.112 67.771 169.066 67.7106L164.811 62.1745C164.765 62.1141 164.741 62.0397 164.742 61.9636C164.744 61.8875 164.771 61.8142 164.82 61.7558L169.555 56.0621C168.881 54.728 168.308 53.3449 167.841 51.9246L160.465 51.2568C160.39 51.2494 160.319 51.2168 160.265 51.1642C160.21 51.1116 160.175 51.0422 160.165 50.9672L159.248 44.0459C159.238 43.9702 159.254 43.8933 159.293 43.828C159.333 43.7627 159.394 43.713 159.466 43.6872L166.402 41.127C166.485 39.635 166.683 38.1514 166.992 36.6894L160.939 32.4244C160.877 32.3805 160.832 32.3168 160.811 32.2438C160.789 32.1707 160.794 32.0926 160.822 32.0222L163.489 25.5691C163.518 25.4985 163.57 25.4399 163.637 25.403C163.704 25.3662 163.782 25.3533 163.857 25.3665L171.153 26.6196C171.967 25.366 172.875 24.1765 173.87 23.0614L170.763 16.3578C170.731 16.2888 170.724 16.211 170.742 16.1371C170.76 16.0633 170.802 15.9977 170.862 15.9511L176.398 11.6965C176.459 11.6505 176.533 11.6262 176.609 11.6279C176.685 11.6295 176.759 11.6569 176.817 11.7056L182.52 16.4403C183.851 15.7665 185.231 15.1936 186.648 14.7265L187.315 7.35198C187.322 7.27643 187.355 7.20563 187.408 7.15114C187.461 7.09664 187.53 7.06164 187.606 7.05184L194.527 6.13641C194.602 6.12626 194.679 6.14214 194.744 6.18143C194.809 6.22072 194.859 6.28106 194.886 6.35251L197.446 13.2903C198.937 13.373 200.42 13.5697 201.882 13.8786L206.147 7.82621C206.191 7.76427 206.255 7.71902 206.328 7.69778C206.401 7.67654 206.479 7.68054 206.549 7.70915L213.002 10.3774C213.072 10.4068 213.13 10.4589 213.167 10.5253C213.204 10.5918 213.217 10.6687 213.205 10.7436L211.95 18.0401C213.203 18.854 214.393 19.762 215.508 20.7563L222.22 17.6514C222.289 17.6193 222.367 17.6119 222.441 17.6301C222.515 17.6484 222.58 17.6914 222.626 17.7519L226.881 23.288C226.928 23.3476 226.954 23.4214 226.954 23.4974C226.954 23.5735 226.928 23.6472 226.881 23.7068L222.145 29.4004C222.818 30.7317 223.391 32.1117 223.858 33.5289L231.234 34.1967C231.31 34.2036 231.381 34.2361 231.435 34.2888C231.49 34.3414 231.525 34.4111 231.535 34.4864L232.451 41.4077C232.462 41.4831 232.446 41.5598 232.406 41.625C232.367 41.6902 232.307 41.74 232.235 41.7663L225.298 44.3265C225.214 45.8186 225.017 47.3021 224.708 48.7641L230.76 53.0277C230.823 53.0716 230.868 53.1356 230.89 53.209C230.911 53.2823 230.906 53.3608 230.877 53.4314L228.21 59.8844C228.181 59.9549 228.129 60.0134 228.062 60.0502C227.995 60.087 227.918 60.1 227.843 60.087L220.528 58.8279C219.715 60.0813 218.807 61.2708 217.812 62.3861L220.917 69.0973C220.949 69.1663 220.957 69.2441 220.939 69.3181C220.921 69.392 220.878 69.4576 220.818 69.504L215.282 73.757C215.222 73.8036 215.147 73.8282 215.071 73.8269C214.995 73.8255 214.922 73.7982 214.863 73.7495L209.16 69.0148C207.829 69.6887 206.449 70.2616 205.032 70.7286L204.366 78.1031C204.358 78.1785 204.325 78.2492 204.272 78.3036C204.219 78.3581 204.15 78.3932 204.074 78.4032L197.153 79.3187C197.141 79.3217 197.129 79.3237 197.117 79.3247ZM189.659 70.8696C189.682 70.8666 189.706 70.8666 189.729 70.8696C191.298 71.2133 192.893 71.4247 194.497 71.5014C194.563 71.5044 194.627 71.5268 194.68 71.5658C194.733 71.6047 194.774 71.6586 194.797 71.7205L197.348 78.6148L203.737 77.7684L204.4 70.4389C204.406 70.3735 204.431 70.3113 204.472 70.2601C204.513 70.2089 204.569 70.1709 204.631 70.1508C206.158 69.6605 207.642 69.0446 209.067 68.3094C209.126 68.279 209.192 68.2666 209.258 68.2738C209.324 68.281 209.386 68.3075 209.437 68.35L215.094 73.0547L220.206 69.1273L217.12 62.4582C217.092 62.3985 217.082 62.3318 217.092 62.2666C217.102 62.2015 217.131 62.1407 217.176 62.092C218.253 60.9023 219.229 59.6242 220.093 58.2712C220.129 58.2155 220.18 58.1716 220.24 58.1448C220.3 58.1181 220.367 58.1099 220.432 58.1211L227.684 59.3667L230.142 53.4254L224.13 49.1799C224.076 49.1419 224.035 49.0889 224.011 49.0276C223.987 48.9662 223.981 48.8991 223.995 48.8347C224.339 47.2665 224.551 45.6721 224.628 44.0684C224.631 44.0023 224.653 43.9386 224.692 43.8851C224.731 43.8317 224.785 43.7911 224.847 43.7683L231.74 41.2246L230.894 34.8345L223.566 34.1712C223.5 34.1653 223.438 34.1403 223.386 34.0992C223.335 34.0581 223.296 34.0028 223.276 33.9401C222.785 32.4131 222.167 30.9298 221.429 29.5055C221.399 29.447 221.387 29.3809 221.394 29.3156C221.401 29.2502 221.427 29.1884 221.469 29.1378L226.175 23.4786L222.248 18.3687L215.576 21.4602C215.516 21.488 215.45 21.4976 215.384 21.4877C215.319 21.4778 215.259 21.4489 215.21 21.4047C214.02 20.3257 212.742 19.3492 211.387 18.4858C211.332 18.4505 211.288 18.3994 211.261 18.339C211.234 18.2786 211.226 18.2117 211.237 18.1466L212.483 10.8967L206.527 8.434L202.289 14.4474C202.251 14.5015 202.197 14.5432 202.136 14.5672C202.074 14.5912 202.007 14.5965 201.942 14.5824C200.374 14.2386 198.78 14.0272 197.177 13.9506C197.111 13.9473 197.048 13.9247 196.994 13.8858C196.941 13.8469 196.9 13.7933 196.877 13.7315L194.335 6.83724L187.945 7.68364L187.289 15.0071C187.283 15.0728 187.258 15.1352 187.216 15.1865C187.175 15.2378 187.119 15.2756 187.056 15.2953C185.53 15.7863 184.047 16.4021 182.622 17.1366C182.563 17.1669 182.497 17.1792 182.431 17.172C182.365 17.1648 182.303 17.1384 182.253 17.0961L176.595 12.3914L171.492 16.3187L174.578 22.9864C174.606 23.0465 174.615 23.1134 174.605 23.1788C174.595 23.2442 174.565 23.3051 174.521 23.3541C173.443 24.5438 172.467 25.8219 171.604 27.1749C171.568 27.2306 171.517 27.2745 171.457 27.3012C171.396 27.3279 171.329 27.3362 171.264 27.325L164.013 26.0794L161.55 32.0357L167.553 36.2737C167.607 36.3117 167.649 36.3646 167.673 36.426C167.697 36.4874 167.702 36.5544 167.688 36.6189C167.344 38.1871 167.132 39.7815 167.055 41.3851C167.053 41.4513 167.03 41.5153 166.991 41.5688C166.952 41.6223 166.898 41.6629 166.836 41.6853L159.943 44.2365L160.789 50.6265L168.117 51.2899C168.183 51.2958 168.245 51.3208 168.297 51.3619C168.348 51.403 168.387 51.4583 168.407 51.521C168.9 53.0451 169.518 54.5258 170.254 55.9481C170.284 56.0066 170.296 56.0726 170.289 56.138C170.282 56.2033 170.256 56.2651 170.214 56.3157L165.508 61.9794L169.434 67.0818L176.107 63.9994C176.167 63.9716 176.234 63.962 176.299 63.9719C176.364 63.9818 176.425 64.0106 176.473 64.0549C177.663 65.1333 178.942 66.1092 180.296 66.9723C180.351 67.0079 180.395 67.059 180.422 67.1193C180.448 67.1796 180.457 67.2464 180.446 67.3115L179.2 74.5629L185.158 77.0256L189.394 71.0107C189.425 70.9678 189.465 70.9327 189.512 70.9081C189.559 70.8836 189.61 70.8705 189.663 70.8696H189.659ZM195.812 61.0355C191.885 61.0306 188.065 59.7637 184.913 57.4218C181.762 55.0798 179.447 51.7868 178.31 48.0287C177.173 44.2707 177.274 40.2466 178.599 36.5505C179.923 32.8544 182.401 29.6819 185.666 27.5013C188.931 25.3208 192.811 24.2476 196.732 24.4401C200.654 24.6327 204.409 26.0808 207.445 28.5708C210.481 31.0608 212.636 34.4607 213.592 38.2688C214.548 42.0769 214.254 46.0915 212.755 49.7201C211.38 53.0787 209.034 55.9502 206.016 57.9663C202.999 59.9823 199.448 61.0511 195.819 61.0355H195.812ZM195.858 25.0889C191.478 25.0824 187.251 26.706 184.002 29.6438C180.753 32.5816 178.713 36.6233 178.279 40.9823C177.845 45.3413 179.049 49.7057 181.656 53.226C184.263 56.7463 188.087 59.1707 192.383 60.0272C196.679 60.8837 201.14 60.1111 204.897 57.8597C208.655 55.6084 211.441 52.0394 212.712 47.8474C213.983 43.6554 213.649 39.1403 211.775 35.181C209.901 31.2217 206.62 28.1015 202.572 26.4275C200.445 25.5488 198.167 25.0941 195.866 25.0889H195.858Z" fill="black"/>
<path d="M257.83 102.361L259.716 98.2816L255.823 95.2952C256.09 94.2843 256.27 93.2526 256.362 92.2113L261.026 90.7L260.62 86.2264L255.754 85.5871C255.477 84.5809 255.116 83.5996 254.675 82.6532L257.965 79.008L255.376 75.3357L250.842 77.2146C250.1 76.4826 249.296 75.8145 248.441 75.2172L249.469 70.4149L245.392 68.5315L242.402 72.4334C241.392 72.1678 240.361 71.9886 239.32 71.8976L237.819 67.2334L233.344 67.6431L232.702 72.5099C231.696 72.7886 230.714 73.1505 229.768 73.5919L226.126 70.3039L222.453 72.8956L224.328 77.4232C223.595 78.1691 222.925 78.9753 222.327 79.8334L217.525 78.8069L215.64 82.8873L219.532 85.8737C219.266 86.8848 219.086 87.9164 218.993 88.9577L214.329 90.4674L214.735 94.9426L219.602 95.5819C219.88 96.5881 220.241 97.5695 220.681 98.5158L217.39 102.161L219.979 105.83L224.508 103.953C225.251 104.686 226.054 105.354 226.909 105.952L225.88 110.754L229.959 112.637L232.946 108.736C233.958 109 234.989 109.179 236.03 109.271L237.531 113.936L242.005 113.526L242.647 108.659C243.654 108.38 244.636 108.018 245.582 107.577L249.223 110.865L252.895 108.273L251.023 103.746C251.756 103 252.424 102.194 253.022 101.336L257.83 102.361ZM232.823 101.085C230.745 100.126 228.998 98.5731 227.803 96.6214C226.607 94.6697 226.018 92.4074 226.108 90.1205C226.199 87.8337 226.965 85.6251 228.311 83.774C229.657 81.9229 231.522 80.5126 233.669 79.7213C235.817 78.93 238.151 78.7934 240.376 79.3287C242.601 79.8639 244.617 81.0471 246.17 82.7285C247.723 84.4099 248.742 86.514 249.099 88.7746C249.455 91.0353 249.134 93.351 248.174 95.4288C247.539 96.8092 246.638 98.0508 245.522 99.0825C244.406 100.114 243.098 100.916 241.672 101.441C240.246 101.966 238.731 102.205 237.212 102.144C235.694 102.083 234.202 101.723 232.823 101.085Z" fill="black"/>
<path d="M126.884 36.3322C127.056 36.2452 133.506 30.8892 133.506 30.8892L135.195 33.0427C135.195 33.0427 136.191 38.1451 136.017 38.1451C135.843 38.1451 126.884 36.3322 126.884 36.3322Z" fill="black"/>
<path d="M235.949 269.828H56.8332C54.1049 269.828 51.9154 268.191 51.3271 265.713L0.152776 51.1263C-0.354465 48.9878 0.407895 46.7667 1.8906 45.1039C3.31628 43.5042 7.45374 38.7784 7.45374 38.7784L186.789 42.4192C189.519 42.4192 191.707 44.0564 192.295 46.5341L246.471 262.164C246.471 262.164 243.123 265.709 241.49 267.395C240.084 268.862 238.095 269.828 235.949 269.828Z" fill="black"/>
<path d="M241.311 263.441H62.2027C59.4729 263.441 57.2848 261.805 56.6966 259.326L5.97247 45.344C4.9775 41.142 8.87185 36.6399 13.494 36.6399H192.595C195.323 36.6399 197.513 38.2757 198.101 40.7548L248.825 254.735C249.828 258.933 245.933 263.441 241.311 263.441Z" fill="#F8F8F8"/>
<path d="M241.31 263.776H62.2029C59.3336 263.776 56.991 262.018 56.3697 259.404L5.62606 45.4221C5.15634 43.4396 5.69959 41.2756 7.11777 39.4808C8.69202 37.4908 11.0676 36.3022 13.4733 36.3022H192.595C195.463 36.3022 197.807 38.0596 198.427 40.6753L249.151 254.656C249.621 256.638 249.078 258.804 247.66 260.597C246.093 262.589 243.717 263.776 241.31 263.776ZM13.4793 36.9731C11.2777 36.9731 9.09721 38.0671 7.65052 39.8979C6.35991 41.5292 5.86167 43.4862 6.28487 45.2675L57.009 259.248C57.5657 261.592 59.5977 263.105 62.1894 263.105H241.31C243.513 263.105 245.692 262.012 247.14 260.182C248.431 258.549 248.928 256.592 248.506 254.812L197.782 40.8299C197.225 38.4873 195.193 36.9731 192.601 36.9731H13.4793Z" fill="black"/>
<path d="M228.602 250.717H70.7838C68.2325 250.717 66.1556 249.156 65.6048 246.833L20.9061 58.2952C20.4889 56.5364 20.9706 54.6169 22.2282 53.0262C23.6224 51.2629 25.7279 50.2094 27.8604 50.2094H185.678C188.23 50.2094 190.305 51.7701 190.856 54.0932L235.555 242.632C235.972 244.39 235.49 246.31 234.232 247.9C232.834 249.665 230.733 250.717 228.602 250.717ZM27.8604 50.8817C25.932 50.8817 24.0231 51.8391 22.758 53.4419C21.6294 54.8706 21.1927 56.5829 21.5574 58.1391L66.2546 246.678C66.7408 248.724 68.5162 250.046 70.7807 250.046H228.602C230.53 250.046 232.439 249.088 233.704 247.484C234.833 246.057 235.268 244.345 234.905 242.787L190.203 54.2493C189.718 52.2023 187.943 50.8817 185.678 50.8817H27.8604Z" fill="black"/>
<path d="M88.299 250.679H70.7781C68.2269 250.679 66.1514 249.118 65.6007 246.795L54.5134 200.027C54.5029 199.984 54.5011 199.94 54.508 199.896C54.5149 199.852 54.5304 199.811 54.5535 199.773C54.5767 199.736 54.6071 199.703 54.643 199.677C54.6789 199.652 54.7195 199.633 54.7625 199.623C54.849 199.603 54.9399 199.618 55.0155 199.665C55.091 199.712 55.1452 199.786 55.1662 199.872L66.255 246.641C66.7397 248.686 68.5166 250.008 70.7796 250.008H88.299C88.384 250.014 88.4638 250.052 88.522 250.114C88.5802 250.176 88.6127 250.258 88.6127 250.344C88.6127 250.429 88.5802 250.511 88.522 250.573C88.4638 250.636 88.384 250.673 88.299 250.679Z" fill="black"/>
<path d="M180.324 76.3982L161.815 64.4841L144.383 76.3982C144.132 76.4091 143.885 76.3329 143.684 76.1825C143.482 76.0321 143.339 75.8167 143.279 75.5729L133.098 32.636C132.898 31.7926 133.68 30.8891 134.607 30.8891H170.554C170.805 30.878 171.052 30.9541 171.254 31.1045C171.455 31.255 171.598 31.4705 171.659 31.7145L181.838 74.6514C182.033 75.4933 181.251 76.3982 180.324 76.3982Z" fill="black"/>
<path d="M180.324 76.733C180.26 76.7331 180.197 76.7149 180.142 76.6805L161.822 64.8863L144.572 76.6744C144.517 76.713 144.451 76.7335 144.383 76.733C144.057 76.7436 143.736 76.6418 143.476 76.4446C143.215 76.2473 143.03 75.9667 142.952 75.6495L132.772 32.7156C132.719 32.4679 132.723 32.2114 132.783 31.9654C132.844 31.7194 132.96 31.4904 133.122 31.2959C133.298 31.0692 133.524 30.885 133.781 30.7569C134.038 30.6289 134.32 30.5602 134.608 30.556H170.554C170.881 30.5454 171.201 30.6473 171.462 30.8445C171.722 31.0417 171.907 31.3223 171.986 31.6396L182.165 74.5765C182.218 74.8241 182.214 75.0805 182.153 75.3264C182.093 75.5722 181.977 75.8012 181.816 75.9961C181.638 76.2231 181.412 76.4072 181.154 76.5347C180.896 76.6623 180.612 76.73 180.324 76.733ZM161.816 64.1495C161.88 64.1489 161.943 64.1671 161.997 64.202L180.415 76.0577C180.585 76.0401 180.749 75.9884 180.898 75.9056C181.048 75.8228 181.178 75.7107 181.283 75.5759C181.381 75.4617 181.452 75.3269 181.492 75.1814C181.531 75.036 181.537 74.8836 181.509 74.7355L171.33 31.7986C171.286 31.6284 171.185 31.4788 171.042 31.3753C170.9 31.2718 170.727 31.2209 170.551 31.2314H134.608C134.422 31.2355 134.239 31.2811 134.073 31.365C133.907 31.4489 133.762 31.5689 133.649 31.7161C133.55 31.8315 133.478 31.9679 133.439 32.1151C133.4 32.2622 133.396 32.4162 133.425 32.5655L143.604 75.5024C143.644 75.6562 143.731 75.7936 143.854 75.8947C143.976 75.9958 144.127 76.0555 144.286 76.0652L161.627 64.2095C161.682 64.1709 161.748 64.1499 161.816 64.1495Z" fill="#F8F8F8"/>
<path d="M128.032 198.367H89.6343C85.1426 198.367 80.7185 194.542 79.7701 189.84L71.8163 150.388C71.3541 148.095 71.8163 145.958 73.1159 144.37C74.33 142.886 76.1459 142.069 78.2274 142.069H115.693C120.075 142.069 124.466 145.739 125.482 150.248L134.369 189.699C134.906 192.085 134.462 194.392 133.152 196.032C131.947 197.537 130.13 198.367 128.032 198.367ZM78.2274 142.74C76.3515 142.74 74.7202 143.47 73.6352 144.795C72.4646 146.225 72.0534 148.164 72.4751 150.256L80.4289 189.707C81.3158 194.113 85.4458 197.696 89.6343 197.696H128.032C129.921 197.696 131.552 196.955 132.628 195.612C133.811 194.134 134.207 192.033 133.715 189.848L124.827 150.395C123.876 146.174 119.779 142.742 115.693 142.742L78.2274 142.74Z" fill="black"/>
<path d="M95.5068 186.579L89.0747 155.75H99.158C102.486 155.75 105.167 156.44 107.203 157.819C109.239 159.199 110.558 161.263 111.161 164.01C111.467 165.411 111.376 166.675 110.889 167.804C110.402 168.932 109.52 169.806 108.245 170.425C109.886 170.842 111.369 171.729 112.513 172.977C113.671 174.248 114.465 175.808 114.81 177.492C115.446 180.407 115.038 182.649 113.586 184.22C112.134 185.791 109.733 186.577 106.382 186.578L95.5068 186.579ZM96.9039 168.628H101.943C103.544 168.628 104.713 168.251 105.45 167.498C106.188 166.744 106.409 165.68 106.114 164.304C105.787 162.79 105.136 161.698 104.163 161.027C103.189 160.355 101.825 160.02 100.069 160.02H95.0881L96.9039 168.628ZM97.7338 172.564L99.7778 182.253H105.523C107.144 182.253 108.321 181.832 109.054 180.99C109.786 180.149 109.991 178.984 109.669 177.494C108.975 174.276 107.046 172.633 103.882 172.564H97.7338Z" fill="black"/>
<path d="M191.963 198.367H153.566C149.079 198.367 144.553 194.545 143.474 189.849L134.419 150.397C133.889 148.095 134.297 145.949 135.565 144.358C136.74 142.881 138.531 142.069 140.606 142.069H178.07C182.449 142.069 186.939 145.734 188.08 150.239L198.068 189.69C198.669 192.091 198.289 194.401 197.018 196.044C195.846 197.542 194.054 198.367 191.963 198.367ZM140.606 142.74C138.739 142.74 137.135 143.462 136.089 144.775C134.951 146.204 134.588 148.147 135.073 150.247L144.128 189.698C145.14 194.108 149.381 197.696 153.566 197.696H191.963C193.842 197.696 195.447 196.964 196.481 195.633C197.632 194.155 197.981 192.049 197.417 189.855L187.428 150.404C186.358 146.178 182.161 142.74 178.07 142.74H140.606Z" fill="black"/>
<path d="M179.38 176.451C179.896 179.76 179.361 182.347 177.774 184.211C176.188 186.075 173.691 187.007 170.284 187.008C167.934 187.015 165.623 186.405 163.582 185.239C161.493 184.061 159.702 182.389 158.208 180.222C156.714 178.055 155.614 175.554 154.907 172.719L154.227 169.839C153.54 166.937 153.431 164.386 153.898 162.185C154.365 159.984 155.377 158.293 156.933 157.113C158.49 155.928 160.474 155.336 162.884 155.337C166.129 155.337 168.964 156.247 171.39 158.066C173.817 159.884 175.608 162.471 176.764 165.826H171.649C170.866 163.625 169.861 162.037 168.632 161.063C167.404 160.088 165.831 159.602 163.914 159.604C161.687 159.604 160.179 160.448 159.389 162.136C158.6 163.823 158.581 166.309 159.332 169.593L159.985 172.327C160.785 175.668 161.97 178.223 163.539 179.989C165.107 181.756 167.008 182.64 169.241 182.641C171.273 182.641 172.684 182.164 173.473 181.21C174.263 180.255 174.523 178.67 174.254 176.455L179.38 176.451Z" fill="black"/>
<path d="M145.682 135.6H108.336C103.966 135.6 99.6322 131.977 98.6688 127.523L90.6114 90.1809C90.1477 88.0393 90.5619 86.0314 91.776 84.5277C92.9465 83.0765 94.7294 82.2766 96.7929 82.2766H133.26C137.528 82.2766 141.832 85.7553 142.856 90.0323L151.795 127.375C152.336 129.626 151.946 131.743 150.71 133.316C149.544 134.79 147.76 135.6 145.682 135.6ZM96.7929 82.9474C94.9365 82.9474 93.3412 83.6588 92.2907 84.9494C91.2057 86.291 90.841 88.1009 91.2597 90.0398L99.3171 127.382C100.217 131.544 104.257 134.929 108.329 134.929H145.674C147.542 134.929 149.139 134.209 150.176 132.9C151.287 131.492 151.627 129.585 151.135 127.531L142.191 90.1929C141.235 86.201 137.224 82.9519 133.248 82.9519L96.7929 82.9474Z" fill="black"/>
<path d="M128.618 117.567H117.414L116.608 124.432H111.368L115.72 95.2502H120.184L137.836 124.432H132.574L128.618 117.567ZM117.897 113.454H126.264L119.332 101.375L117.897 113.454Z" fill="black"/>
<path d="M186.139 222.916C186.717 225.281 185.389 227.202 183.16 227.202H111.704C109.481 227.202 107.275 225.281 106.778 222.916L104.911 214.039C104.419 211.697 105.812 209.801 108.015 209.801H178.936C181.142 209.801 183.394 211.697 183.967 214.039L186.139 222.916Z" fill="black"/>
<path d="M121.08 241.798C118.509 236.508 118.265 231.176 121.08 225.791L119.059 223.368L63.792 225.185L65.6979 242.743L119.195 243.36L121.08 241.798Z" fill="#F8F8F8"/>
<path d="M119.195 243.695L65.6979 243.078C65.6158 243.077 65.537 243.045 65.4762 242.99C65.4155 242.935 65.3769 242.859 65.3678 242.778L63.4634 225.219C63.4584 225.174 63.463 225.127 63.4768 225.083C63.4906 225.039 63.5133 224.998 63.5437 224.964C63.574 224.929 63.6111 224.901 63.6528 224.881C63.6946 224.861 63.7399 224.85 63.786 224.849L119.053 223.031C119.104 223.03 119.154 223.04 119.201 223.061C119.247 223.081 119.289 223.112 119.321 223.151L121.343 225.575C121.385 225.626 121.411 225.689 121.418 225.755C121.425 225.82 121.412 225.887 121.382 225.946C118.723 231.033 118.723 236.17 121.382 241.649C121.415 241.717 121.424 241.794 121.408 241.867C121.392 241.941 121.352 242.007 121.293 242.054L119.408 243.615C119.349 243.666 119.273 243.694 119.195 243.695ZM65.9981 242.41L119.075 243.022L120.665 241.706C118.089 236.254 118.094 230.918 120.68 225.835L118.907 223.708L64.1642 225.509L65.9981 242.41Z" fill="black"/>
<path d="M19.527 221.435H122.105C122.395 221.427 122.684 221.477 122.954 221.583C123.224 221.689 123.47 221.847 123.678 222.05C123.885 222.252 124.05 222.494 124.163 222.761C124.276 223.028 124.334 223.315 124.334 223.605C124.334 223.895 124.276 224.182 124.163 224.45C124.05 224.717 123.885 224.959 123.678 225.161C123.47 225.363 123.224 225.522 122.954 225.628C122.684 225.733 122.395 225.784 122.105 225.776H74.9468C73.2883 225.776 71.6977 226.435 70.525 227.608C69.3522 228.781 68.6934 230.371 68.6934 232.03V235.544C68.6934 237.203 69.3522 238.793 70.525 239.966C71.6977 241.139 73.2883 241.798 74.9468 241.798H122.105C122.395 241.79 122.684 241.841 122.954 241.946C123.224 242.052 123.47 242.211 123.678 242.413C123.885 242.615 124.05 242.857 124.163 243.124C124.276 243.392 124.334 243.679 124.334 243.969C124.334 244.259 124.276 244.546 124.163 244.813C124.05 245.08 123.885 245.322 123.678 245.524C123.47 245.726 123.224 245.885 122.954 245.991C122.684 246.096 122.395 246.147 122.105 246.139H19.527C16.4695 246.139 13.5372 244.925 11.3751 242.763C9.21314 240.601 7.99854 237.668 7.99854 234.611V232.96C7.99933 229.903 9.21429 226.971 11.3762 224.81C13.5381 222.649 16.47 221.435 19.527 221.435Z" fill="#F8F8F8"/>
<path d="M122.105 246.476H19.5272C16.3816 246.472 13.3659 245.221 11.1416 242.996C8.91734 240.772 7.66617 237.756 7.6626 234.611V232.96C7.66617 229.814 8.91734 226.799 11.1416 224.574C13.3659 222.35 16.3816 221.099 19.5272 221.095H122.105C122.77 221.095 123.408 221.36 123.878 221.83C124.348 222.3 124.612 222.937 124.612 223.602C124.612 224.266 124.348 224.904 123.878 225.374C123.408 225.844 122.77 226.108 122.105 226.108H74.947C73.3782 226.109 71.874 226.733 70.7646 227.843C69.6553 228.952 69.0313 230.456 69.0297 232.025V235.54C69.0289 237.11 69.6519 238.616 70.7615 239.728C71.8712 240.839 73.3767 241.463 74.947 241.465H122.105C122.76 241.481 123.382 241.752 123.839 242.22C124.296 242.689 124.552 243.317 124.552 243.972C124.552 244.626 124.296 245.255 123.839 245.723C123.382 246.191 122.76 246.463 122.105 246.479V246.476ZM19.5272 221.771C16.5584 221.772 13.7115 222.952 11.6116 225.051C9.51178 227.149 8.33059 229.996 8.32741 232.965V234.615C8.33099 237.583 9.51153 240.428 11.61 242.526C13.7086 244.624 16.5537 245.805 19.5212 245.808H122.099C122.586 245.808 123.053 245.614 123.397 245.27C123.741 244.926 123.935 244.459 123.935 243.972C123.935 243.486 123.741 243.019 123.397 242.675C123.053 242.33 122.586 242.137 122.099 242.137H74.947C73.201 242.133 71.5276 241.438 70.2929 240.203C69.0583 238.968 68.3629 237.295 68.3589 235.549V232.034C68.3629 230.288 69.0583 228.615 70.2929 227.38C71.5276 226.145 73.201 225.45 74.947 225.446H122.105C122.592 225.446 123.059 225.253 123.403 224.908C123.747 224.564 123.941 224.097 123.941 223.611C123.941 223.124 123.747 222.657 123.403 222.313C123.059 221.969 122.592 221.775 122.105 221.775L19.5272 221.771Z" fill="black"/>
<path d="M95.3429 230.768H91.3029C91.257 230.771 91.2109 230.764 91.1676 230.749C91.1242 230.733 91.0845 230.709 91.0509 230.678C91.0172 230.646 90.9904 230.608 90.9721 230.566C90.9538 230.524 90.9443 230.478 90.9443 230.432C90.9443 230.386 90.9538 230.341 90.9721 230.298C90.9904 230.256 91.0172 230.218 91.0509 230.187C91.0845 230.155 91.1242 230.131 91.1676 230.115C91.2109 230.1 91.257 230.094 91.3029 230.097H95.3429C95.4279 230.102 95.5077 230.14 95.5659 230.202C95.6242 230.265 95.6566 230.347 95.6566 230.432C95.6566 230.517 95.6242 230.599 95.5659 230.662C95.5077 230.724 95.4279 230.762 95.3429 230.768Z" fill="black"/>
<path d="M119.252 230.768H97.8703C97.8244 230.771 97.7783 230.764 97.735 230.749C97.6916 230.733 97.6519 230.709 97.6183 230.678C97.5846 230.646 97.5578 230.608 97.5395 230.566C97.5212 230.524 97.5117 230.478 97.5117 230.432C97.5117 230.386 97.5212 230.341 97.5395 230.298C97.5578 230.256 97.5846 230.218 97.6183 230.187C97.6519 230.155 97.6916 230.131 97.735 230.115C97.7783 230.1 97.8244 230.094 97.8703 230.097H119.252C119.298 230.094 119.344 230.1 119.388 230.115C119.431 230.131 119.471 230.155 119.505 230.187C119.538 230.218 119.565 230.256 119.583 230.298C119.602 230.341 119.611 230.386 119.611 230.432C119.611 230.478 119.602 230.524 119.583 230.566C119.565 230.608 119.538 230.646 119.505 230.678C119.471 230.709 119.431 230.733 119.388 230.749C119.344 230.764 119.298 230.771 119.252 230.768Z" fill="black"/>
<path d="M119.056 233.383H93.7585C93.7126 233.386 93.6665 233.38 93.6231 233.365C93.5798 233.349 93.5401 233.325 93.5064 233.293C93.4728 233.262 93.446 233.224 93.4277 233.182C93.4094 233.14 93.3999 233.094 93.3999 233.048C93.3999 233.002 93.4094 232.956 93.4277 232.914C93.446 232.872 93.4728 232.834 93.5064 232.802C93.5401 232.771 93.5798 232.747 93.6231 232.731C93.6665 232.716 93.7126 232.709 93.7585 232.713H119.056C119.102 232.709 119.148 232.716 119.191 232.731C119.235 232.747 119.274 232.771 119.308 232.802C119.342 232.834 119.369 232.872 119.387 232.914C119.405 232.956 119.415 233.002 119.415 233.048C119.415 233.094 119.405 233.14 119.387 233.182C119.369 233.224 119.342 233.262 119.308 233.293C119.274 233.325 119.235 233.349 119.191 233.365C119.148 233.38 119.102 233.386 119.056 233.383Z" fill="black"/>
<path d="M91.992 238.072H87.3938C87.3087 238.066 87.229 238.028 87.1707 237.966C87.1125 237.904 87.0801 237.821 87.0801 237.736C87.0801 237.651 87.1125 237.569 87.1707 237.507C87.229 237.444 87.3087 237.406 87.3938 237.401H91.992C92.0771 237.406 92.1568 237.444 92.215 237.507C92.2733 237.569 92.3057 237.651 92.3057 237.736C92.3057 237.821 92.2733 237.904 92.215 237.966C92.1568 238.028 92.0771 238.066 91.992 238.072Z" fill="black"/>
<path d="M119.252 238.071H93.9548C93.9089 238.075 93.8628 238.068 93.8194 238.053C93.7761 238.037 93.7363 238.013 93.7027 237.982C93.6691 237.95 93.6423 237.912 93.624 237.87C93.6056 237.828 93.5962 237.782 93.5962 237.736C93.5962 237.69 93.6056 237.644 93.624 237.602C93.6423 237.56 93.6691 237.522 93.7027 237.491C93.7363 237.459 93.7761 237.435 93.8194 237.419C93.8628 237.404 93.9089 237.398 93.9548 237.401H119.252C119.298 237.398 119.344 237.404 119.388 237.419C119.431 237.435 119.471 237.459 119.504 237.491C119.538 237.522 119.565 237.56 119.583 237.602C119.601 237.644 119.611 237.69 119.611 237.736C119.611 237.782 119.601 237.828 119.583 237.87C119.565 237.912 119.538 237.95 119.504 237.982C119.471 238.013 119.431 238.037 119.388 238.053C119.344 238.068 119.298 238.075 119.252 238.071Z" fill="black"/>
<path d="M119.484 271.377H26.8296V248.677H119.484C116.749 256.344 116.679 263.914 119.484 271.377Z" fill="#F8F8F8"/>
<path d="M119.483 271.712H26.8293C26.7852 271.712 26.7416 271.703 26.7008 271.686C26.66 271.67 26.6229 271.645 26.5917 271.614C26.5605 271.583 26.5357 271.546 26.5188 271.505C26.5019 271.465 26.4932 271.421 26.4932 271.377V248.677C26.4932 248.588 26.5286 248.502 26.5916 248.439C26.6547 248.376 26.7402 248.341 26.8293 248.341H119.483C119.537 248.341 119.591 248.354 119.638 248.379C119.686 248.404 119.728 248.44 119.759 248.484C119.79 248.528 119.81 248.579 119.817 248.632C119.824 248.686 119.818 248.74 119.8 248.791C117.069 256.445 117.067 264.008 119.8 271.26C119.818 271.311 119.824 271.365 119.817 271.418C119.81 271.472 119.79 271.523 119.759 271.567C119.728 271.611 119.687 271.647 119.639 271.672C119.592 271.697 119.539 271.71 119.485 271.71L119.483 271.712ZM27.164 271.041H119.008C116.438 263.917 116.441 256.512 119.008 249.012H27.164V271.041Z" fill="black"/>
<path d="M37.9842 249.797H120.121C120.596 249.797 121.051 249.608 121.386 249.273C121.722 248.937 121.91 248.482 121.91 248.008C121.91 247.533 121.722 247.078 121.386 246.743C121.051 246.407 120.596 246.219 120.121 246.219H13.5346C11.4498 246.219 9.45036 247.047 7.97618 248.521C6.50201 249.995 5.67383 251.995 5.67383 254.08V266.435C5.67383 267.467 5.87716 268.489 6.27222 269.443C6.66727 270.397 7.24632 271.263 7.97627 271.993C8.70623 272.723 9.5728 273.301 10.5265 273.696C11.4802 274.091 12.5023 274.294 13.5346 274.294H120.121C120.36 274.301 120.599 274.26 120.822 274.173C121.045 274.087 121.248 273.956 121.419 273.789C121.591 273.622 121.728 273.423 121.821 273.203C121.914 272.982 121.962 272.745 121.962 272.506C121.962 272.267 121.914 272.03 121.821 271.81C121.728 271.589 121.591 271.39 121.419 271.223C121.248 271.056 121.045 270.926 120.822 270.839C120.599 270.752 120.36 270.711 120.121 270.718H37.9842C36.5115 270.718 35.0992 270.133 34.0579 269.092C33.0165 268.05 32.4315 266.638 32.4315 265.165V255.349C32.4315 253.877 33.0165 252.464 34.0579 251.423C35.0992 250.382 36.5115 249.797 37.9842 249.797Z" fill="black"/>
<path d="M120.121 274.63H13.5347C11.3619 274.628 9.27878 273.764 7.74236 272.227C6.20595 270.691 5.34174 268.608 5.33936 266.435V254.08C5.34174 251.907 6.20595 249.824 7.74236 248.287C9.27878 246.751 11.3619 245.887 13.5347 245.884H120.121C120.685 245.884 121.225 246.108 121.623 246.506C122.021 246.904 122.245 247.445 122.245 248.008C122.245 248.571 122.021 249.111 121.623 249.509C121.225 249.908 120.685 250.131 120.121 250.131H37.9844C36.601 250.133 35.2747 250.683 34.2964 251.661C33.3182 252.64 32.768 253.966 32.7664 255.349V265.165C32.768 266.549 33.3183 267.875 34.2965 268.853C35.2748 269.831 36.6011 270.381 37.9844 270.382H120.121C120.675 270.397 121.201 270.627 121.587 271.024C121.974 271.42 122.19 271.952 122.19 272.506C122.19 273.06 121.974 273.592 121.587 273.989C121.201 274.385 120.675 274.616 120.121 274.63ZM13.5347 246.555C11.5397 246.557 9.62697 247.35 8.21627 248.761C6.80556 250.172 6.01216 252.085 6.01017 254.08V266.435C6.01216 268.43 6.80556 270.343 8.21627 271.754C9.62697 273.164 11.5397 273.958 13.5347 273.96H120.121C120.499 273.947 120.857 273.789 121.119 273.518C121.382 273.247 121.529 272.884 121.529 272.506C121.529 272.129 121.382 271.766 121.119 271.495C120.857 271.223 120.499 271.065 120.121 271.053H37.9844C36.4233 271.051 34.9266 270.43 33.8226 269.327C32.7187 268.223 32.0976 266.726 32.0956 265.165V255.349C32.0972 253.788 32.7181 252.291 33.8221 251.187C34.9261 250.083 36.423 249.462 37.9844 249.46H120.121C120.507 249.46 120.876 249.307 121.149 249.035C121.421 248.763 121.574 248.393 121.574 248.008C121.574 247.623 121.421 247.253 121.149 246.981C120.876 246.708 120.507 246.555 120.121 246.555H13.5347Z" fill="black"/>
<path d="M117.845 254.402H104.164C104.118 254.405 104.072 254.399 104.029 254.384C103.986 254.368 103.946 254.344 103.912 254.312C103.879 254.281 103.852 254.243 103.833 254.201C103.815 254.158 103.806 254.113 103.806 254.067C103.806 254.021 103.815 253.975 103.833 253.933C103.852 253.891 103.879 253.853 103.912 253.821C103.946 253.79 103.986 253.766 104.029 253.75C104.072 253.735 104.118 253.728 104.164 253.731H117.845C117.891 253.728 117.937 253.735 117.98 253.75C118.023 253.766 118.063 253.79 118.097 253.821C118.13 253.853 118.157 253.891 118.176 253.933C118.194 253.975 118.203 254.021 118.203 254.067C118.203 254.113 118.194 254.158 118.176 254.201C118.157 254.243 118.13 254.281 118.097 254.312C118.063 254.344 118.023 254.368 117.98 254.384C117.937 254.399 117.891 254.405 117.845 254.402Z" fill="black"/>
<path d="M101.822 254.402H76.9489C76.903 254.405 76.8569 254.399 76.8136 254.384C76.7702 254.368 76.7305 254.344 76.6969 254.312C76.6632 254.281 76.6364 254.243 76.6181 254.201C76.5998 254.158 76.5903 254.113 76.5903 254.067C76.5903 254.021 76.5998 253.975 76.6181 253.933C76.6364 253.891 76.6632 253.853 76.6969 253.821C76.7305 253.79 76.7702 253.766 76.8136 253.75C76.8569 253.735 76.903 253.728 76.9489 253.731H101.822C101.907 253.737 101.987 253.775 102.045 253.837C102.103 253.9 102.135 253.982 102.135 254.067C102.135 254.152 102.103 254.234 102.045 254.297C101.987 254.359 101.907 254.397 101.822 254.402Z" fill="black"/>
<path d="M117.557 257.432H83.363C83.2779 257.427 83.1982 257.389 83.14 257.327C83.0817 257.264 83.0493 257.182 83.0493 257.097C83.0493 257.012 83.0817 256.93 83.14 256.867C83.1982 256.805 83.2779 256.767 83.363 256.761H117.552C117.598 256.758 117.644 256.765 117.688 256.78C117.731 256.796 117.771 256.82 117.804 256.851C117.838 256.883 117.865 256.921 117.883 256.963C117.901 257.005 117.911 257.051 117.911 257.097C117.911 257.143 117.901 257.188 117.883 257.231C117.865 257.273 117.838 257.311 117.804 257.342C117.771 257.374 117.731 257.398 117.688 257.414C117.644 257.429 117.598 257.435 117.552 257.432H117.557Z" fill="black"/>
<path d="M80.4756 257.432H73.5168C73.4318 257.427 73.352 257.389 73.2938 257.326C73.2355 257.264 73.2031 257.182 73.2031 257.097C73.2031 257.012 73.2355 256.93 73.2938 256.867C73.352 256.805 73.4318 256.767 73.5168 256.761H80.4756C80.5607 256.767 80.6405 256.805 80.6987 256.867C80.7569 256.93 80.7894 257.012 80.7894 257.097C80.7894 257.182 80.7569 257.264 80.6987 257.326C80.6405 257.389 80.5607 257.427 80.4756 257.432Z" fill="black"/>
<path d="M117.557 263.756H81.3025C81.2565 263.759 81.2104 263.753 81.1671 263.737C81.1237 263.722 81.084 263.698 81.0504 263.666C81.0168 263.635 80.99 263.597 80.9716 263.555C80.9533 263.512 80.9438 263.467 80.9438 263.421C80.9438 263.375 80.9533 263.329 80.9716 263.287C80.99 263.245 81.0168 263.207 81.0504 263.175C81.084 263.144 81.1237 263.12 81.1671 263.104C81.2104 263.089 81.2565 263.082 81.3025 263.085H117.557C117.603 263.082 117.649 263.089 117.692 263.104C117.735 263.12 117.775 263.144 117.809 263.175C117.842 263.207 117.869 263.245 117.887 263.287C117.906 263.329 117.915 263.375 117.915 263.421C117.915 263.467 117.906 263.512 117.887 263.555C117.869 263.597 117.842 263.635 117.809 263.666C117.775 263.698 117.735 263.722 117.692 263.737C117.649 263.753 117.603 263.759 117.557 263.756Z" fill="black"/>
<path d="M78.7557 263.756H76.9548C76.9089 263.759 76.8628 263.753 76.8194 263.737C76.7761 263.722 76.7363 263.698 76.7027 263.666C76.6691 263.635 76.6423 263.597 76.624 263.555C76.6056 263.512 76.5962 263.467 76.5962 263.421C76.5962 263.375 76.6056 263.329 76.624 263.287C76.6423 263.245 76.6691 263.207 76.7027 263.175C76.7363 263.144 76.7761 263.12 76.8194 263.104C76.8628 263.089 76.9089 263.082 76.9548 263.085H78.7557C78.8407 263.091 78.9205 263.129 78.9787 263.191C79.037 263.254 79.0694 263.336 79.0694 263.421C79.0694 263.506 79.037 263.588 78.9787 263.651C78.9205 263.713 78.8407 263.751 78.7557 263.756Z" fill="black"/>
<path d="M239.711 259.68C239.711 259.68 246.94 257.42 258.781 234.446C268.777 215.051 259.866 196.307 258.068 183.771C257.884 182.49 256.134 182.305 255.7 183.524C252.699 191.946 247.883 207.263 248.663 216.689C249.792 230.286 239.711 259.68 239.711 259.68Z" fill="black"/>
<path d="M247.548 247.119L250.122 226.758C251.24 217.924 249.795 208.955 245.959 200.92C243.196 195.129 241.664 188.83 241.457 182.417C241.25 176.005 242.374 169.619 244.758 163.663L248.894 153.331C249.417 152.025 247.752 150.964 246.808 152.003L241.001 158.391C227.826 172.887 223.378 193.406 229.351 212.132L240.052 245.673L247.548 247.119Z" fill="black"/>
<path d="M248.788 237.644H248.741C248.653 237.632 248.573 237.586 248.519 237.516C248.464 237.446 248.44 237.357 248.45 237.269L249.784 226.72C250.465 221.369 250.198 215.939 248.996 210.681C248.984 210.637 248.98 210.591 248.986 210.545C248.992 210.5 249.007 210.456 249.03 210.417C249.053 210.377 249.084 210.343 249.121 210.316C249.158 210.289 249.2 210.27 249.244 210.26C249.289 210.25 249.335 210.249 249.38 210.257C249.425 210.265 249.468 210.282 249.506 210.308C249.544 210.333 249.576 210.366 249.601 210.404C249.626 210.442 249.643 210.485 249.651 210.531C250.87 215.866 251.141 221.374 250.451 226.803L249.116 237.351C249.106 237.431 249.067 237.505 249.007 237.559C248.947 237.613 248.869 237.643 248.788 237.644Z" fill="#F8F8F8"/>
<path d="M244.227 247.786L235.296 224.975C234.053 221.781 232.101 218.911 229.587 216.58C227.074 214.25 224.065 212.52 220.786 211.521L214.696 209.677C213.218 209.226 212.225 211.177 213.448 212.133L217.19 215.045C219.198 216.611 220.83 218.605 221.969 220.882C223.108 223.159 223.725 225.662 223.774 228.207C223.836 231.241 224.7 234.203 226.279 236.794L232.33 246.722L244.227 247.786Z" fill="black"/>
<path d="M242.907 237.402H242.875C242.787 237.393 242.706 237.35 242.65 237.281C242.594 237.213 242.567 237.126 242.575 237.038C243.936 222.469 241.011 213.089 238.428 204.814C237.228 200.989 236.108 197.377 235.439 193.491C232.288 175.156 243.052 159.244 243.162 159.085C243.215 159.017 243.291 158.973 243.376 158.96C243.46 158.947 243.547 158.967 243.617 159.016C243.687 159.064 243.737 159.138 243.755 159.221C243.773 159.305 243.758 159.392 243.714 159.466C243.606 159.616 232.99 175.316 236.101 193.382C236.763 197.224 237.884 200.815 239.069 204.619C241.67 212.954 244.622 222.401 243.243 237.104C243.233 237.186 243.194 237.262 243.132 237.317C243.07 237.373 242.99 237.403 242.907 237.402Z" fill="#F8F8F8"/>
<path d="M239.116 230.687C239.045 230.686 238.977 230.664 238.919 230.622C238.862 230.581 238.82 230.522 238.798 230.455C237.644 226.96 235.035 223.33 233.05 220.899C233 220.829 232.979 220.743 232.99 220.659C233.002 220.574 233.045 220.497 233.111 220.443C233.178 220.389 233.262 220.362 233.348 220.368C233.433 220.374 233.513 220.413 233.571 220.476C235.591 222.949 238.248 226.653 239.434 230.245C239.448 230.287 239.454 230.331 239.451 230.375C239.447 230.419 239.436 230.462 239.416 230.501C239.396 230.541 239.369 230.576 239.335 230.604C239.302 230.633 239.263 230.655 239.221 230.669C239.187 230.68 239.152 230.686 239.116 230.687Z" fill="#F8F8F8"/>
<path d="M254.803 227.658C254.784 227.66 254.766 227.66 254.747 227.658C254.704 227.651 254.662 227.635 254.625 227.612C254.587 227.588 254.555 227.558 254.529 227.522C254.504 227.486 254.486 227.445 254.476 227.402C254.466 227.359 254.465 227.314 254.473 227.271C256.905 212.884 256.063 190.735 256.054 190.512C256.053 190.468 256.059 190.425 256.075 190.383C256.09 190.342 256.113 190.304 256.143 190.272C256.173 190.239 256.209 190.213 256.249 190.195C256.288 190.176 256.332 190.166 256.376 190.164C256.42 190.162 256.464 190.169 256.505 190.184C256.547 190.199 256.585 190.222 256.617 190.252C256.65 190.282 256.676 190.318 256.694 190.358C256.712 190.398 256.722 190.441 256.724 190.485C256.733 190.709 257.579 212.927 255.135 227.383C255.12 227.461 255.079 227.531 255.018 227.581C254.958 227.631 254.882 227.658 254.803 227.658Z" fill="#F8F8F8"/>
<path d="M233.476 239.581C233.388 239.581 233.303 239.546 233.24 239.484C233.177 239.422 233.141 239.338 233.14 239.25C232.969 221.345 218.657 213.466 218.512 213.388C218.434 213.346 218.376 213.274 218.35 213.189C218.324 213.104 218.333 213.012 218.375 212.934C218.417 212.855 218.489 212.797 218.574 212.771C218.659 212.745 218.751 212.755 218.829 212.797C218.979 212.876 233.635 220.93 233.811 239.242C233.811 239.286 233.803 239.33 233.787 239.371C233.771 239.412 233.746 239.449 233.715 239.481C233.685 239.512 233.648 239.537 233.607 239.555C233.567 239.572 233.523 239.581 233.479 239.581H233.476Z" fill="#F8F8F8"/>
<path d="M235.415 206.048C235.364 206.048 235.314 206.036 235.268 206.014C235.222 205.991 235.181 205.959 235.15 205.919C231.273 200.938 229.555 194.213 229.537 194.141C229.524 194.098 229.519 194.052 229.525 194.007C229.53 193.961 229.544 193.918 229.566 193.878C229.589 193.838 229.619 193.804 229.655 193.776C229.691 193.749 229.733 193.729 229.777 193.718C229.821 193.707 229.867 193.705 229.912 193.712C229.957 193.719 230 193.735 230.038 193.759C230.077 193.784 230.11 193.816 230.136 193.853C230.161 193.891 230.179 193.933 230.188 193.978C230.205 194.044 231.892 200.641 235.679 205.506C235.707 205.541 235.727 205.581 235.738 205.623C235.75 205.666 235.754 205.71 235.748 205.754C235.743 205.798 235.729 205.84 235.707 205.878C235.685 205.917 235.656 205.95 235.621 205.977C235.562 206.023 235.49 206.048 235.415 206.048Z" fill="#F8F8F8"/>
<path d="M225.192 242.271H259.033V262.98C259.033 265.983 257.841 268.863 255.718 270.986C253.594 273.109 250.715 274.302 247.712 274.302H236.512C233.51 274.302 230.63 273.109 228.507 270.986C226.384 268.863 225.191 265.983 225.191 262.98V242.271H225.192Z" fill="#F8F8F8"/>
<path d="M247.712 274.63H236.514C233.423 274.627 230.46 273.397 228.274 271.212C226.089 269.027 224.86 266.064 224.856 262.973V242.263C224.856 242.174 224.891 242.088 224.954 242.025C225.017 241.962 225.103 241.927 225.192 241.927H259.033C259.122 241.927 259.207 241.963 259.27 242.026C259.333 242.089 259.368 242.174 259.368 242.263V262.973C259.365 266.063 258.136 269.026 255.95 271.212C253.765 273.397 250.802 274.627 247.712 274.63ZM225.527 242.607V262.973C225.53 265.886 226.689 268.678 228.748 270.738C230.808 272.798 233.601 273.956 236.514 273.96H247.712C250.624 273.956 253.417 272.797 255.476 270.738C257.536 268.678 258.694 265.886 258.697 262.973V242.607H225.527Z" fill="black"/>
<path d="M255.715 248.258H228.509C228.463 248.261 228.417 248.255 228.374 248.24C228.33 248.224 228.291 248.2 228.257 248.168C228.223 248.137 228.197 248.099 228.178 248.057C228.16 248.015 228.15 247.969 228.15 247.923C228.15 247.877 228.16 247.831 228.178 247.789C228.197 247.747 228.223 247.709 228.257 247.677C228.291 247.646 228.33 247.622 228.374 247.606C228.417 247.591 228.463 247.584 228.509 247.588H255.715C255.8 247.593 255.88 247.631 255.938 247.693C255.997 247.756 256.029 247.838 256.029 247.923C256.029 248.008 255.997 248.09 255.938 248.153C255.88 248.215 255.8 248.253 255.715 248.258Z" fill="black"/>
<path d="M259.589 175.938C259.533 175.937 259.478 175.922 259.429 175.895C259.38 175.867 259.339 175.828 259.309 175.78C259.279 175.733 259.262 175.679 259.258 175.623C259.254 175.567 259.265 175.511 259.288 175.46C267.993 156.611 268.24 140.044 266.909 129.476C265.468 118.028 261.934 110.96 261.898 110.889C261.864 110.81 261.862 110.722 261.892 110.641C261.921 110.561 261.98 110.495 262.057 110.456C262.133 110.418 262.222 110.41 262.304 110.435C262.386 110.46 262.456 110.515 262.498 110.589C262.534 110.66 266.121 117.833 267.577 129.394C268.918 140.05 268.675 156.751 259.899 175.745C259.871 175.804 259.827 175.853 259.772 175.887C259.717 175.921 259.653 175.939 259.589 175.938Z" fill="black"/>
<path d="M255.292 169.228C255.251 169.228 255.211 169.221 255.173 169.207C255.09 169.175 255.023 169.113 254.986 169.032C254.95 168.951 254.946 168.859 254.977 168.776C263.652 145.515 259.929 135.16 259.89 135.066C259.871 135.024 259.861 134.979 259.861 134.933C259.86 134.887 259.869 134.841 259.886 134.799C259.904 134.757 259.93 134.719 259.962 134.687C259.995 134.655 260.034 134.63 260.077 134.614C260.12 134.597 260.166 134.59 260.211 134.592C260.257 134.594 260.302 134.605 260.343 134.625C260.385 134.645 260.421 134.673 260.451 134.708C260.481 134.743 260.504 134.783 260.517 134.827C260.679 135.253 264.368 145.518 255.606 169.01C255.582 169.074 255.539 169.129 255.483 169.168C255.427 169.207 255.36 169.228 255.292 169.228Z" fill="black"/>
<path d="M258.132 126.318C258.047 126.312 257.967 126.274 257.909 126.212C257.85 126.15 257.818 126.068 257.818 125.983C257.818 125.897 257.85 125.815 257.909 125.753C257.967 125.691 258.047 125.653 258.132 125.647L260.416 125.607C260.46 125.605 260.504 125.612 260.545 125.628C260.587 125.644 260.624 125.668 260.656 125.698C260.688 125.729 260.714 125.766 260.731 125.807C260.749 125.847 260.758 125.891 260.758 125.935C260.759 125.979 260.751 126.023 260.735 126.064C260.718 126.106 260.694 126.143 260.664 126.175C260.633 126.207 260.596 126.232 260.556 126.25C260.515 126.267 260.472 126.277 260.428 126.277L258.144 126.318H258.132Z" fill="black"/>
<path d="M250.137 126.459C250.052 126.453 249.972 126.416 249.914 126.353C249.856 126.291 249.823 126.209 249.823 126.124C249.823 126.038 249.856 125.956 249.914 125.894C249.972 125.832 250.052 125.794 250.137 125.788L252.421 125.748C252.467 125.744 252.513 125.75 252.556 125.764C252.6 125.779 252.64 125.803 252.674 125.833C252.708 125.864 252.736 125.902 252.755 125.944C252.774 125.985 252.784 126.031 252.785 126.077C252.786 126.123 252.777 126.168 252.759 126.211C252.742 126.253 252.716 126.292 252.683 126.324C252.65 126.356 252.611 126.381 252.568 126.397C252.525 126.413 252.479 126.421 252.433 126.419L250.149 126.459H250.137Z" fill="black"/>
<path d="M255.268 123.555C255.179 123.555 255.094 123.52 255.031 123.457C254.969 123.394 254.933 123.309 254.933 123.221L254.926 120.969C254.926 120.881 254.961 120.795 255.024 120.732C255.086 120.669 255.172 120.634 255.26 120.633C255.349 120.633 255.434 120.669 255.497 120.731C255.56 120.794 255.595 120.879 255.595 120.968L255.603 123.219C255.603 123.308 255.567 123.393 255.505 123.456C255.442 123.519 255.357 123.555 255.268 123.555Z" fill="black"/>
<path d="M255.292 131.432C255.248 131.433 255.204 131.424 255.164 131.407C255.123 131.391 255.086 131.366 255.055 131.335C255.023 131.304 254.999 131.267 254.982 131.226C254.965 131.185 254.956 131.142 254.956 131.098V128.847C254.956 128.803 254.964 128.759 254.981 128.718C254.998 128.677 255.022 128.64 255.053 128.609C255.085 128.577 255.121 128.552 255.162 128.535C255.203 128.518 255.247 128.509 255.291 128.509C255.379 128.509 255.465 128.545 255.527 128.607C255.59 128.67 255.626 128.755 255.627 128.844V131.095C255.627 131.139 255.619 131.183 255.602 131.224C255.586 131.264 255.561 131.302 255.53 131.333C255.499 131.364 255.462 131.389 255.421 131.406C255.38 131.423 255.336 131.431 255.292 131.431V131.432Z" fill="black"/>
<path d="M62.6289 23.9094C62.5584 23.9108 62.4892 23.8898 62.4313 23.8496C62.3734 23.8094 62.3297 23.7519 62.3064 23.6853C62.2831 23.6188 62.2814 23.5466 62.3016 23.479C62.3218 23.4114 62.3628 23.352 62.4188 23.3091C70.3831 16.9431 86.2561 5.78977 103.099 2.61876C103.143 2.60896 103.188 2.60811 103.232 2.61625C103.277 2.6244 103.319 2.64137 103.357 2.66617C103.394 2.69096 103.427 2.72308 103.452 2.7606C103.476 2.79812 103.494 2.84027 103.502 2.88456C103.51 2.92885 103.51 2.97437 103.5 3.01841C103.491 3.06245 103.472 3.10411 103.446 3.14091C103.42 3.17772 103.387 3.20892 103.349 3.23265C103.31 3.25639 103.268 3.27217 103.223 3.27907C86.5232 6.42157 70.7522 17.5058 62.839 23.8388C62.7786 23.8848 62.7048 23.9096 62.6289 23.9094Z" fill="black"/>
<path d="M49.1284 29.0943C49.0621 29.0941 48.9974 29.0742 48.9423 29.0373C48.8872 29.0003 48.8443 28.9479 48.819 28.8866C48.7936 28.8253 48.787 28.7579 48.7999 28.6929C48.8127 28.6278 48.8446 28.568 48.8913 28.521C63.4152 14.0496 76.8541 8.72062 76.9892 8.6681C77.0302 8.65213 77.0739 8.6444 77.1179 8.64534C77.1619 8.64628 77.2052 8.65587 77.2455 8.67357C77.2858 8.69126 77.3222 8.71672 77.3526 8.74849C77.383 8.78025 77.4069 8.81769 77.4229 8.85869C77.4388 8.89968 77.4466 8.94341 77.4456 8.98739C77.4447 9.03137 77.4351 9.07474 77.4174 9.11501C77.3997 9.15529 77.3743 9.19168 77.3425 9.22211C77.3107 9.25255 77.2733 9.27643 77.2323 9.29239C77.0987 9.34492 63.7829 14.6319 49.3656 28.9967C49.3344 29.0279 49.2975 29.0525 49.2568 29.0692C49.2161 29.086 49.1725 29.0945 49.1284 29.0943Z" fill="black"/>
<path d="M111.537 5.9038C110.821 5.90533 110.129 5.64669 109.59 5.17601C109.051 4.70533 108.701 4.05469 108.605 3.34522C108.51 2.63575 108.676 1.9158 109.072 1.31938C109.468 0.722966 110.067 0.290735 110.757 0.103152C111.448 -0.0844308 112.184 -0.0145813 112.827 0.299695C113.47 0.613971 113.977 1.15126 114.254 1.81154C114.53 2.47181 114.557 3.21009 114.33 3.88892C114.103 4.56775 113.637 5.14088 113.019 5.50161C112.569 5.7638 112.058 5.90254 111.537 5.9038ZM111.537 0.670815C110.958 0.670616 110.4 0.890937 109.978 1.28702C109.555 1.6831 109.299 2.22524 109.262 2.80329C109.224 3.38133 109.408 3.95192 109.777 4.39915C110.145 4.84637 110.669 5.13668 111.244 5.21109C111.818 5.2855 112.399 5.13844 112.869 4.79977C113.339 4.4611 113.663 3.95624 113.774 3.38775C113.885 2.81926 113.775 2.22978 113.468 1.73907C113.16 1.24837 112.677 0.893247 112.117 0.745851C111.926 0.695767 111.73 0.670546 111.533 0.670815H111.537Z" fill="black"/>
<path d="M14.6751 152.376C14.6303 152.376 14.5858 152.367 14.5446 152.349L12.4436 151.459C12.3618 151.425 12.2971 151.359 12.2638 151.277C12.2304 151.194 12.2311 151.102 12.2658 151.02C12.3004 150.939 12.3661 150.874 12.4484 150.841C12.5307 150.807 12.6229 150.808 12.7047 150.843L14.8057 151.731C14.8768 151.761 14.9353 151.815 14.9713 151.884C15.0072 151.952 15.0185 152.031 15.0032 152.107C14.9878 152.183 14.9468 152.251 14.8871 152.3C14.8273 152.349 14.7525 152.376 14.6751 152.376Z" fill="black"/>
<path d="M7.30971 149.264C7.26481 149.264 7.2204 149.255 7.17914 149.237L5.07815 148.347C5.00123 148.309 4.94171 148.243 4.91177 148.163C4.88183 148.082 4.88375 147.994 4.91711 147.915C4.95048 147.836 5.01277 147.772 5.09125 147.738C5.16973 147.703 5.25845 147.7 5.33927 147.729L7.44027 148.619C7.51139 148.649 7.56986 148.703 7.60583 148.771C7.6418 148.84 7.65306 148.919 7.63773 148.994C7.62239 149.07 7.58139 149.138 7.52164 149.187C7.46189 149.237 7.38704 149.263 7.30971 149.264Z" fill="black"/>
<path d="M11.0736 147.799C11.0271 147.799 10.9811 147.79 10.9386 147.771C10.8983 147.753 10.8618 147.728 10.8313 147.696C10.8008 147.664 10.7768 147.627 10.7608 147.586C10.7448 147.545 10.737 147.501 10.7379 147.457C10.7388 147.413 10.7483 147.37 10.766 147.329L11.6739 145.269C11.7098 145.188 11.7764 145.124 11.8593 145.092C11.9422 145.059 12.0345 145.061 12.1159 145.097C12.1973 145.133 12.2611 145.2 12.2933 145.283C12.3256 145.365 12.3236 145.458 12.2877 145.539L11.3798 147.6C11.3539 147.659 11.3111 147.71 11.2567 147.745C11.2023 147.781 11.1386 147.8 11.0736 147.799Z" fill="black"/>
<path d="M7.89978 155.01C7.85326 155.01 7.80724 155.001 7.76472 154.982C7.72354 154.964 7.68633 154.938 7.65528 154.905C7.62424 154.873 7.59997 154.835 7.5839 154.793C7.56783 154.751 7.56028 154.706 7.56169 154.661C7.56311 154.616 7.57346 154.572 7.59214 154.531L8.49257 152.472C8.52839 152.391 8.59507 152.327 8.67796 152.295C8.76084 152.263 8.85313 152.265 8.93453 152.301C9.01592 152.336 9.07975 152.403 9.11197 152.486C9.1442 152.569 9.14218 152.661 9.10636 152.743L8.20593 154.803C8.18055 154.864 8.13808 154.915 8.08371 154.952C8.02933 154.989 7.96542 155.009 7.89978 155.01Z" fill="black"/>
<path d="M6.78772 131.395C6.42318 131.398 6.06221 131.323 5.72913 131.175C5.39604 131.027 5.09859 130.809 4.85679 130.536C4.61499 130.263 4.43447 129.942 4.32738 129.593C4.2203 129.245 4.18915 128.877 4.23602 128.516C4.28289 128.154 4.40669 127.807 4.59909 127.497C4.79149 127.188 5.04802 126.923 5.35139 126.721C5.65477 126.518 5.99794 126.384 6.35779 126.325C6.71765 126.267 7.08583 126.286 7.43753 126.382C8.03189 126.545 8.5475 126.916 8.88912 127.429C9.23074 127.942 9.3753 128.561 9.29609 129.172C9.21689 129.783 8.91927 130.344 8.4582 130.753C7.99714 131.162 7.40378 131.39 6.78772 131.395ZM6.78772 126.969C6.37314 126.969 5.97025 127.107 5.64181 127.36C5.31337 127.613 5.07782 127.967 4.97186 128.368C4.87158 128.747 4.89256 129.148 5.03185 129.515C5.17114 129.882 5.42175 130.196 5.74853 130.413C6.07531 130.63 6.46187 130.74 6.85397 130.726C7.24607 130.712 7.62405 130.576 7.93487 130.337C8.2457 130.097 8.47378 129.767 8.58713 129.391C8.70047 129.015 8.69338 128.614 8.56686 128.242C8.44035 127.871 8.20075 127.548 7.88167 127.32C7.5626 127.092 7.18006 126.969 6.78772 126.969Z" fill="black"/>
<path d="M32.4033 200.438C32.4033 200.438 55.7394 209.102 84.0984 197.167C84.0984 197.167 88.7011 219.377 63.5746 223.184C38.4482 226.992 32.4273 205.068 32.4033 200.438Z" fill="black"/>
<path d="M83.0284 189.954C82.0724 189.324 81.0925 188.341 80.1996 186.831C77.8825 182.916 72.8761 168.662 70.3909 164.796C70.3669 164.753 70.3369 164.709 70.3099 164.669C70.1889 164.453 70.0372 164.257 69.8596 164.085C69.8318 164.057 69.8022 164.032 69.7711 164.008C68.521 162.901 63.5852 159.069 58.8279 158.477C53.9611 157.876 42.9579 159.697 38.8234 165.108C38.8188 165.113 38.8148 165.119 38.8114 165.125C36.2047 167.957 31.2733 174.729 32.2458 184.567C32.8566 190.745 33.775 195.54 36.2842 198.823C36.5498 200.762 36.892 202.239 37.2942 203.025C39.6218 207.574 63.5446 207.729 73.2543 201.738C73.2543 201.738 73.0832 198.822 72.9016 194.716C74.5629 197.171 76.5723 199.313 78.8099 200.084C78.8669 200.103 80.0735 199.677 80.1305 199.694C82.2315 200.362 83.6467 197.548 84.5966 195.555C85.0562 194.589 85.1505 193.49 84.8622 192.461C84.5739 191.431 83.9225 190.541 83.0284 189.954Z" fill="#F8F8F8"/>
<path d="M51.4428 206.683C47.3219 206.683 43.5836 206.283 40.9994 205.562C38.8428 204.961 37.4952 204.157 36.994 203.177C36.5888 202.386 36.2436 200.966 35.963 198.957C33.4478 195.615 32.5218 190.798 31.911 184.6C30.9431 174.807 35.6538 168.062 38.5562 164.907C42.8107 159.346 54.0376 157.554 58.8653 158.154C63.2654 158.703 68.0662 162.066 69.9901 163.767C70.0066 163.779 70.0487 163.816 70.0922 163.858C70.2908 164.049 70.4606 164.268 70.5964 164.508C70.6279 164.555 70.6579 164.603 70.6835 164.649C72.0011 166.696 74.0285 171.664 75.987 176.467C77.7458 180.776 79.4071 184.847 80.4891 186.672C81.271 187.996 82.1879 189.01 83.2129 189.686C84.1668 190.319 84.8616 191.274 85.1709 192.376C85.4802 193.479 85.3834 194.656 84.8982 195.693C83.9978 197.575 82.5061 200.708 80.1139 200.033C80.0014 200.065 79.7703 200.14 79.5932 200.197C78.8894 200.423 78.8323 200.441 78.6928 200.393C76.8799 199.769 75.064 198.238 73.2902 195.837C73.4493 199.289 73.5903 201.69 73.5903 201.712C73.593 201.772 73.5797 201.831 73.5517 201.884C73.5237 201.937 73.4822 201.981 73.4313 202.012C68.1232 205.297 59.122 206.683 51.4428 206.683ZM39.0784 165.326L39.0559 165.353C36.2316 168.42 31.6349 174.992 32.5774 184.534C33.1776 190.661 34.0901 195.402 36.5497 198.621C36.5839 198.665 36.6066 198.716 36.6158 198.771C36.8814 200.722 37.2161 202.138 37.5912 202.863C37.9979 203.659 39.242 204.364 41.1794 204.909C49.0927 207.119 65.5165 205.97 72.906 201.546C72.864 200.816 72.7169 198.177 72.5653 194.722C72.5618 194.649 72.5822 194.577 72.6236 194.516C72.665 194.456 72.725 194.411 72.7945 194.388C72.8639 194.365 72.939 194.365 73.0082 194.389C73.0774 194.413 73.1369 194.459 73.1776 194.519C75.058 197.299 76.9594 199.05 78.8338 199.728C78.9569 199.694 79.209 199.613 79.3876 199.554C80.0434 199.344 80.0974 199.326 80.225 199.364C81.9718 199.917 83.2399 197.608 84.2919 195.402C84.7126 194.509 84.7977 193.495 84.5318 192.545C84.2658 191.595 83.6666 190.772 82.8437 190.227C81.7332 189.495 80.7427 188.408 79.9113 186.995C78.8068 185.131 77.1365 181.037 75.3687 176.703C73.4178 171.928 71.4068 166.99 70.1087 164.972C70.0802 164.922 70.0622 164.895 70.0442 164.868L70.0216 164.834C69.9164 164.647 69.785 164.477 69.6315 164.328C69.6119 164.307 69.5909 164.288 69.5684 164.271C69.4934 164.205 64.0818 159.469 58.7858 158.802C54.0916 158.22 43.1874 159.941 39.0889 165.306L39.0784 165.326Z" fill="black"/>
<path d="M51.2327 197.713C51.1539 197.713 51.0778 197.685 51.0181 197.633C41.1704 189.379 42.398 174.765 42.4115 174.618C42.4155 174.575 42.4281 174.532 42.4487 174.493C42.4692 174.454 42.4972 174.419 42.531 174.391C42.5649 174.363 42.604 174.342 42.646 174.329C42.6881 174.316 42.7323 174.311 42.7761 174.315C42.82 174.319 42.8626 174.332 42.9016 174.352C42.9405 174.373 42.9751 174.401 43.0032 174.435C43.0314 174.469 43.0526 174.508 43.0656 174.55C43.0787 174.592 43.0833 174.636 43.0793 174.68C43.0673 174.83 41.8787 189.099 51.4488 197.12C51.5169 197.177 51.5596 197.259 51.5674 197.348C51.5753 197.436 51.5477 197.524 51.4908 197.593C51.4589 197.63 51.4193 197.66 51.3748 197.681C51.3303 197.702 51.2818 197.713 51.2327 197.713Z" fill="black"/>
<path d="M51.5041 152.346C49.4572 153.185 47.7058 153.879 45.3887 153.608C44.9941 153.562 40.0567 152.926 39.3769 149.881C39.0767 148.546 37.3974 145.059 37.516 143.68C37.6075 142.629 37.5985 139.16 37.2924 137.164C36.542 132.288 41.7465 128.686 42.8675 127.964C44.1927 127.112 47.3082 125.113 50.1595 126.39C51.4846 126.99 52.2605 128.069 52.6702 128.782C53.2903 128.192 54.0261 127.736 54.8312 127.445C58.0382 126.304 61.8546 128.149 63.7695 130.76C64.2197 131.383 65.3977 132.975 65.2312 134.977C65.0931 136.628 64.1356 137.426 62.9441 139.235C60.7785 142.521 61.7165 143.287 60.0492 145.953C57.6346 149.831 53.6487 151.465 51.5041 152.346Z" fill="black"/>
<path d="M49.8251 151.722C49.9136 152.172 50.5754 156.541 48.8556 158.475C47.1358 160.41 45.458 160.953 45.458 160.953C45.458 160.953 53.3773 162.802 57.6438 161.814C61.9103 160.827 61.3551 159.713 61.3551 159.713L58.9374 158.448C58.5545 158.247 58.2397 157.937 58.0329 157.557C57.8262 157.178 57.7367 156.745 57.7759 156.314L57.8224 155.807C58.3776 155.915 60.2235 156.196 61.9418 155.115C64.2815 153.649 64.5171 150.868 64.5441 150.095C64.5966 148.523 63.9438 148.791 63.39 145.965C62.9173 143.537 63.1799 142.299 62.206 140.459C61.9243 139.93 61.5867 139.432 61.199 138.975C59.7628 139.044 58.2861 139.404 57.0525 140.357C55.7394 141.373 55.87 142.158 54.5718 142.941C52.6779 144.088 50.9551 143.296 50.3894 144.292C50.1808 144.658 50.1087 145.302 50.7945 146.524C50.7945 146.524 48.9937 145.344 47.7661 146.073C47.3595 146.325 47.0594 146.717 46.9227 147.175C46.522 148.494 47.7001 150.314 49.8251 151.722Z" fill="#F8F8F8"/>
<path d="M54.5493 162.452C50.4239 162.452 45.6411 161.349 45.386 161.291C45.3146 161.274 45.2507 161.234 45.204 161.178C45.1572 161.121 45.1303 161.051 45.1272 160.977C45.1242 160.904 45.1452 160.832 45.187 160.772C45.2288 160.711 45.2892 160.667 45.359 160.644C45.374 160.644 46.9722 160.101 48.608 158.262C50.0217 156.673 49.7155 153.059 49.5234 151.928C47.3099 150.415 46.1663 148.521 46.6046 147.077C46.7667 146.539 47.1207 146.079 47.5995 145.784C48.4099 145.308 49.3899 145.524 50.0862 145.797C49.8461 145.119 49.8506 144.568 50.1012 144.131C50.4674 143.491 51.1802 143.423 51.9351 143.354C52.6899 143.285 53.5123 143.204 54.4008 142.668C55.0236 142.292 55.2817 141.918 55.5803 141.49C55.9227 140.961 56.3519 140.493 56.8499 140.107C57.9905 139.224 59.4492 138.736 61.1855 138.654C61.2368 138.651 61.2881 138.661 61.3352 138.681C61.3823 138.702 61.4241 138.733 61.4571 138.772C61.8626 139.247 62.2148 139.764 62.5076 140.315C63.1799 141.586 63.288 142.566 63.4245 143.804C63.4921 144.405 63.5671 145.101 63.7247 145.914C63.9903 147.28 64.2724 147.88 64.4976 148.363C64.7901 148.9 64.9239 149.509 64.8832 150.119C64.8547 150.975 64.5711 153.88 62.1249 155.414C60.6482 156.337 59.0995 156.341 58.1285 156.211L58.115 156.361C58.0821 156.725 58.158 157.09 58.333 157.41C58.508 157.731 58.7742 157.993 59.098 158.162L61.5141 159.427C61.5792 159.459 61.6319 159.512 61.6642 159.577C61.71 159.684 61.7308 159.8 61.725 159.916C61.7193 160.032 61.6872 160.146 61.6312 160.248C61.2815 160.998 59.9684 161.634 57.7293 162.152C56.6837 162.37 55.6172 162.47 54.5493 162.452ZM46.5085 160.843C48.7416 161.294 54.3017 162.254 57.5703 161.498C60.4111 160.84 60.9304 160.164 61.0219 159.931L58.7828 158.759C58.3402 158.528 57.9764 158.171 57.7377 157.733C57.499 157.294 57.3963 156.795 57.4427 156.298L57.4892 155.79C57.493 155.744 57.5067 155.698 57.5295 155.658C57.5523 155.617 57.5836 155.581 57.6213 155.553C57.6588 155.525 57.7018 155.505 57.7476 155.494C57.7933 155.484 57.8408 155.483 57.8869 155.492C58.6973 155.642 60.2881 155.774 61.7633 154.845C63.9303 153.494 64.1824 150.868 64.2079 150.097C64.2319 149.387 64.1089 149.124 63.8853 148.649C63.6617 148.173 63.3435 147.489 63.0614 146.042C62.8978 145.201 62.8198 144.498 62.7522 143.878C62.6232 142.709 62.5211 141.787 61.9088 140.629C61.6657 140.17 61.3777 139.736 61.0489 139.334C59.5257 139.431 58.2516 139.869 57.2581 140.636C56.8138 140.982 56.4317 141.4 56.1281 141.874C55.7815 142.433 55.3079 142.902 54.7459 143.243C53.7254 143.86 52.765 143.95 51.9951 144.022C51.2583 144.089 50.8651 144.14 50.6805 144.472C50.4044 144.955 50.7495 145.772 51.0857 146.372C51.1241 146.438 51.1392 146.514 51.1285 146.589C51.1178 146.665 51.0819 146.734 51.0268 146.786C50.9716 146.838 50.9003 146.87 50.8246 146.877C50.749 146.883 50.6733 146.864 50.61 146.822C50.5935 146.812 48.9712 145.772 47.9357 146.372C47.6035 146.582 47.358 146.905 47.2439 147.281C46.8912 148.443 48.0032 150.121 50.0097 151.458C50.0476 151.482 50.0804 151.513 50.1062 151.549C50.132 151.586 50.1502 151.627 50.1597 151.671C50.1687 151.719 51.0602 156.532 49.1092 158.724C48.3635 159.569 47.4839 160.285 46.5055 160.843H46.5085Z" fill="black"/>
<path d="M57.4815 156.169C54.7697 156.169 52.4752 153.978 52.3791 153.88C52.319 153.817 52.2855 153.734 52.2856 153.647C52.2858 153.56 52.3196 153.476 52.38 153.414C52.4404 153.351 52.5226 153.315 52.6095 153.312C52.6963 153.308 52.781 153.339 52.8458 153.397C52.8683 153.421 55.247 155.678 57.7982 155.486C57.8839 155.485 57.9669 155.516 58.0301 155.574C58.0933 155.632 58.1321 155.712 58.1384 155.797C58.1447 155.883 58.1182 155.967 58.0641 156.034C58.0101 156.1 57.9327 156.144 57.8477 156.155C57.7246 156.164 57.6031 156.169 57.4815 156.169Z" fill="black"/>
<path d="M76.3741 205.065C76.305 205.52 76.0791 205.936 75.7354 206.241C75.3917 206.547 74.9519 206.723 74.4922 206.738H53.9775C53.0651 206.738 52.4363 205.988 52.5728 205.065L56.5872 177.842C56.6623 177.395 56.8898 176.989 57.231 176.691C57.5722 176.393 58.006 176.223 58.4586 176.209H78.7107C78.917 176.203 79.1219 176.244 79.3106 176.327C79.4993 176.411 79.6671 176.535 79.8018 176.691C79.9364 176.848 80.0345 177.032 80.0891 177.231C80.1436 177.43 80.1531 177.639 80.1169 177.842L76.3741 205.065Z" fill="#F8F8F8"/>
<path d="M74.4921 207.073H53.9774C53.7247 207.078 53.474 207.027 53.2428 206.925C53.0116 206.823 52.8054 206.672 52.6387 206.482C52.4696 206.281 52.3462 206.046 52.2772 205.793C52.2083 205.54 52.1954 205.275 52.2395 205.017L56.2554 177.792C56.3449 177.268 56.6132 176.79 57.0147 176.44C57.4162 176.091 57.9263 175.891 58.4585 175.875H78.7106C78.9622 175.87 79.2118 175.92 79.4421 176.021C79.6724 176.123 79.878 176.273 80.0447 176.461C80.2114 176.655 80.3339 176.884 80.4036 177.13C80.4733 177.376 80.4886 177.634 80.4484 177.887L76.7086 205.111C76.5571 206.198 75.5591 207.073 74.4921 207.073ZM58.4585 176.545C58.0853 176.558 57.728 176.699 57.4474 176.945C57.1669 177.191 56.9805 177.528 56.9203 177.896L52.8983 205.114C52.8687 205.277 52.8751 205.445 52.9171 205.605C52.9591 205.765 53.0357 205.914 53.1415 206.042C53.2451 206.159 53.3731 206.252 53.5165 206.314C53.6598 206.376 53.8151 206.406 53.9714 206.402H74.4861C74.8649 206.388 75.2271 206.243 75.5099 205.99C75.7927 205.738 75.9784 205.395 76.0348 205.02L79.7746 177.795C79.8024 177.637 79.7949 177.474 79.7526 177.318C79.7104 177.162 79.6344 177.018 79.53 176.895C79.4261 176.779 79.2982 176.687 79.1552 176.625C79.0121 176.563 78.8573 176.534 78.7016 176.538L58.4585 176.545Z" fill="black"/>
<path d="M52.2709 205.652C52.2709 205.652 48.1965 202.433 51.5476 196.841C54.8987 191.249 54.618 196.115 54.5055 197.68C54.3929 199.245 53.0243 206.63 52.394 205.89L52.2709 205.652Z" fill="#F8F8F8"/>
<path d="M52.4889 206.277C52.4216 206.277 52.3553 206.262 52.2948 206.232C52.2343 206.203 52.1811 206.16 52.1392 206.108C52.0917 206.053 52.0637 205.984 52.0597 205.911C51.9201 205.797 47.8397 202.377 51.2598 196.668C52.5459 194.521 53.3983 193.698 54.1007 193.921C54.803 194.143 55.0146 195.271 54.8405 197.704C54.812 198.117 53.697 205.905 52.6285 206.258C52.5832 206.272 52.5361 206.278 52.4889 206.277ZM53.8831 194.56C53.7885 194.56 53.2362 194.675 51.8346 197.014C48.6726 202.292 52.4349 205.358 52.4799 205.388L52.5129 205.418C53.0862 204.217 54.0646 199.145 54.1712 197.656C54.3753 194.796 53.9491 194.576 53.8996 194.561L53.8831 194.56Z" fill="black"/>
<path d="M62.917 217.407C62.917 217.407 78.9416 200.882 83.5833 196.757C88.225 192.631 91.4395 189.962 95.9042 192.265C100.369 194.569 94.1918 213.823 83.8654 220.702C73.539 227.582 67.077 224.537 67.077 224.537L62.917 217.407Z" fill="black"/>
<path d="M60.3585 218.762L56.2075 226.608C56.2075 226.608 60.3 231.86 68.4833 230.289C76.6667 228.718 75.154 225.871 73.5092 224.394C71.8645 222.917 63.4455 218.441 60.3585 218.762Z" fill="#F8F8F8"/>
<path d="M65.5211 230.91C59.2182 230.91 55.9796 226.858 55.9421 226.807C55.9025 226.756 55.8784 226.695 55.8728 226.63C55.8673 226.566 55.8804 226.501 55.9106 226.444L60.0631 218.606C60.0886 218.557 60.1258 218.515 60.1713 218.484C60.2169 218.454 60.2694 218.434 60.3242 218.429C63.5852 218.088 72.1453 222.713 73.7346 224.131C74.5314 224.847 75.4108 225.961 75.0702 227.193C74.65 228.704 72.4559 229.852 68.5481 230.606C67.5511 230.803 66.5375 230.905 65.5211 230.91ZM56.6114 226.558C57.3828 227.412 61.3597 231.317 68.4205 229.956C72.9512 229.082 74.1848 227.879 74.4234 227.023C74.686 226.073 73.8231 225.122 73.2858 224.64C71.599 223.126 63.6107 218.969 60.5688 219.088L56.6114 226.558Z" fill="black"/>
<path d="M65.9412 229.298C64.3731 229.292 62.8077 229.17 61.2575 228.934C61.1697 228.92 61.0912 228.871 61.0391 228.799C60.987 228.727 60.9657 228.637 60.9798 228.55C60.994 228.462 61.0424 228.383 61.1144 228.331C61.1865 228.279 61.2763 228.258 61.364 228.272C61.4406 228.284 69.0072 229.483 71.5224 227.385C71.76 227.199 71.9523 226.962 72.0846 226.691C72.2169 226.42 72.2859 226.123 72.2862 225.821C72.2842 225.775 72.2916 225.73 72.308 225.687C72.3245 225.644 72.3495 225.605 72.3816 225.572C72.4137 225.539 72.4522 225.513 72.4947 225.496C72.5372 225.478 72.5829 225.47 72.6288 225.471C72.6748 225.471 72.72 225.482 72.7618 225.501C72.8036 225.52 72.841 225.547 72.8718 225.582C72.9026 225.616 72.926 225.656 72.9406 225.699C72.9553 225.743 72.9609 225.789 72.957 225.835C72.9545 226.232 72.863 226.624 72.6893 226.982C72.5156 227.339 72.264 227.654 71.9531 227.901C70.6264 229.009 68.1683 229.298 65.9412 229.298Z" fill="black"/>
<path d="M63.2533 225.566C63.2348 225.568 63.2162 225.568 63.1977 225.566C63.1542 225.559 63.1126 225.543 63.0751 225.52C63.0377 225.497 63.0052 225.466 62.9795 225.431C62.9539 225.395 62.9356 225.354 62.9256 225.311C62.9157 225.268 62.9143 225.224 62.9216 225.18C63.2482 223.238 64.0231 221.399 65.1847 219.808C65.212 219.773 65.2458 219.745 65.2842 219.723C65.3226 219.702 65.3649 219.688 65.4086 219.683C65.4523 219.678 65.4965 219.682 65.5388 219.694C65.5811 219.706 65.6207 219.726 65.6552 219.753C65.6896 219.78 65.7184 219.814 65.7398 219.853C65.7613 219.891 65.7749 219.933 65.78 219.977C65.7851 220.021 65.7815 220.065 65.7695 220.107C65.7575 220.15 65.7372 220.189 65.7099 220.224C64.6267 221.73 63.8995 223.462 63.5834 225.29C63.5697 225.367 63.529 225.438 63.4686 225.488C63.4082 225.539 63.332 225.566 63.2533 225.566Z" fill="black"/>
<path d="M66.3089 226.157H66.2593C66.1715 226.144 66.0925 226.096 66.0396 226.025C65.9867 225.954 65.9643 225.864 65.9772 225.776C66.4559 222.539 67.7555 221.02 67.8096 220.957C67.8696 220.896 67.9508 220.86 68.0364 220.857C68.1221 220.854 68.2058 220.883 68.2704 220.94C68.335 220.996 68.3756 221.075 68.384 221.16C68.3923 221.246 68.3677 221.331 68.3153 221.399C68.3033 221.412 67.0877 222.85 66.6405 225.874C66.628 225.953 66.5877 226.025 66.527 226.077C66.4662 226.129 66.3888 226.157 66.3089 226.157Z" fill="black"/>
<path d="M62.917 217.407L56.6815 227.931C56.6815 227.931 35.532 222.616 27.2676 214.977C19.0031 207.338 15.0037 200.605 19.6785 195.589C24.3532 190.574 33.2539 192.927 38.9476 198.591C44.6413 204.254 54.3464 213.794 62.917 217.407Z" fill="black"/>
<path d="M80.129 192.438C80.129 192.438 79.6683 188.706 78.028 188.958C76.3877 189.21 75.927 198.891 78.3627 198.519C80.7983 198.147 80.129 192.438 80.129 192.438Z" fill="#F8F8F8"/>
<path d="M78.2348 198.864C77.6645 198.864 76.8301 198.447 76.4835 196.188C76.1083 193.736 76.4835 188.857 77.9842 188.626C78.165 188.597 78.3498 188.607 78.5268 188.654C78.7038 188.7 78.8691 188.783 79.0122 188.898C80.1062 189.726 80.4318 192.126 80.4649 192.397C80.4934 192.643 81.1417 198.433 78.4194 198.85C78.3583 198.86 78.2966 198.864 78.2348 198.864ZM78.1898 189.28C78.1541 189.28 78.1184 189.283 78.0832 189.289C77.4274 189.39 76.6876 193.095 77.1468 196.086C77.2263 196.608 77.5475 198.304 78.3158 198.187C80.0462 197.923 79.9666 193.985 79.7955 192.484C79.7145 191.826 79.3453 189.995 78.604 189.438C78.4878 189.34 78.3417 189.284 78.1898 189.28Z" fill="black"/>
</g>
<defs>
<clipPath id="clip0_17_10663">
<rect width="268.174" height="274.63" fill="white"/>
</clipPath>
</defs>
</svg>
