<svg width="83" height="123" viewBox="0 0 83 123" fill="none" xmlns="http://www.w3.org/2000/svg">
<g clip-path="url(#clip0_72_134)">
<path d="M55.4754 106.608C55.2741 106.319 55.1661 105.975 55.1661 105.622C55.1661 105.27 55.2741 104.926 55.4754 104.637C56.0326 103.865 56.3395 102.942 56.3548 101.99C56.3548 97.6683 49.6657 94.1675 41.418 94.1675C33.1703 94.1675 26.4854 97.6683 26.4854 101.99C26.4991 102.941 26.8046 103.865 27.3605 104.637C27.5619 104.926 27.6698 105.27 27.6698 105.622C27.6698 105.975 27.5619 106.319 27.3605 106.608C26.805 107.381 26.4996 108.306 26.4854 109.258C26.4854 111.309 27.9899 113.172 30.4529 114.568C30.3969 114.8 30.3676 115.038 30.3654 115.276C30.3654 118.477 35.3124 121.07 41.418 121.07C47.5236 121.07 52.4705 118.477 52.4705 115.276C52.4684 115.038 52.439 114.8 52.383 114.568C54.8461 113.172 56.3548 111.309 56.3548 109.258C56.339 108.306 56.0322 107.381 55.4754 106.608Z" fill="black"/>
<path d="M41.418 122.003C34.6956 122.003 29.4319 119.048 29.4319 115.277C29.4319 115.202 29.4319 115.127 29.4319 115.052C26.9313 113.472 25.5435 111.43 25.5435 109.259C25.5557 108.117 25.9195 107.006 26.5854 106.079C26.681 105.947 26.7324 105.788 26.7324 105.624C26.7324 105.461 26.681 105.302 26.5854 105.17C25.9195 104.242 25.5557 103.132 25.5435 101.99C25.5435 97.0767 32.5159 93.2383 41.4138 93.2383C50.3117 93.2383 57.2841 97.085 57.2841 101.99C57.2719 103.132 56.9081 104.242 56.2422 105.17C56.1484 105.303 56.0981 105.462 56.0981 105.624C56.0981 105.787 56.1484 105.946 56.2422 106.079C56.9081 107.006 57.2719 108.117 57.2841 109.259C57.2841 111.43 55.9088 113.472 53.3958 115.052C53.3958 115.127 53.3958 115.202 53.3958 115.277C53.4041 119.048 48.1404 122.003 41.418 122.003ZM41.418 95.1012C33.8287 95.1012 27.4189 98.2561 27.4189 101.99C27.4359 102.752 27.6845 103.49 28.1316 104.107C28.441 104.553 28.6068 105.082 28.6068 105.624C28.6068 106.167 28.441 106.696 28.1316 107.141C27.6845 107.758 27.4359 108.497 27.4189 109.259C27.4189 110.88 28.6692 112.48 30.9114 113.756C31.0876 113.854 31.2269 114.008 31.3081 114.193C31.3894 114.378 31.4081 114.584 31.3615 114.781C31.3225 114.943 31.3029 115.11 31.3032 115.277C31.3032 117.623 35.3666 120.132 41.418 120.132C47.4694 120.132 51.5328 117.631 51.5328 115.277C51.533 115.11 51.5134 114.943 51.4744 114.781C51.4278 114.584 51.4466 114.378 51.5278 114.193C51.609 114.008 51.7483 113.854 51.9246 113.756C54.1751 112.48 55.4171 110.88 55.4171 109.259C55.4027 108.495 55.1539 107.755 54.7044 107.137C54.3953 106.693 54.2297 106.164 54.2297 105.622C54.2297 105.081 54.3953 104.552 54.7044 104.107C55.1543 103.492 55.4032 102.753 55.4171 101.99C55.4171 98.2561 49.0073 95.1012 41.418 95.1012Z" fill="black"/>
<path d="M81.9523 42.0014C81.9523 19.838 63.5314 0.933594 41.3971 0.933594C19.2628 0.933594 1.08365 19.3295 0.93778 41.4471C0.862763 52.6997 6.289 63.1855 13.6865 70.5164C19.046 75.7794 22.8859 82.391 24.8016 89.6541L24.8933 90.0042C25.7831 93.4361 27.787 96.4755 30.5907 98.6455C33.3943 100.816 36.839 101.993 40.3844 101.994H43.3726C46.9174 101.993 50.3615 100.815 53.1645 98.6451C55.9674 96.475 57.9705 93.4357 58.8595 90.0042L58.9179 89.7916C60.7613 82.5567 64.5455 75.9625 69.8621 70.7206C73.6958 66.9856 76.7413 62.5194 78.818 57.5864C80.8947 52.6533 81.9605 47.3538 81.9523 42.0014Z" fill="#F8F8F8"/>
<path d="M43.3723 102.932H40.3841C36.6315 102.93 32.9859 101.682 30.0187 99.3844C27.0516 97.087 24.9307 93.8699 23.9887 90.2375L23.897 89.8875C22.0197 82.7884 18.2652 76.3259 13.0278 71.1789C4.69251 62.9062 -0.071047 52.0662 -0.000197321 41.4387C0.154005 18.5876 18.7249 0 41.3969 0C63.9021 0 82.8898 19.2336 82.8898 42.0014C82.9084 47.4798 81.8223 52.9057 79.6963 57.9548C77.5702 63.0038 74.448 67.5724 70.5161 71.3873C65.3209 76.5103 61.6232 82.9546 59.8219 90.025L59.7678 90.2375C58.825 93.8696 56.704 97.0863 53.737 99.3836C50.77 101.681 47.1247 102.929 43.3723 102.932ZM41.3969 1.87126C19.7502 1.87126 2.01693 19.6253 1.87106 41.4637C1.80438 51.5911 6.35124 61.9435 14.3448 69.862C19.8239 75.2518 23.7498 82.0182 25.7099 89.4498L25.8016 89.8041C26.6396 93.0355 28.5266 95.8973 31.1665 97.9406C33.8064 99.9839 37.05 101.093 40.3883 101.094H43.3765C46.7148 101.093 49.9583 99.9839 52.5982 97.9406C55.2382 95.8973 57.1251 93.0355 57.9632 89.8041L58.0174 89.5874C59.9061 82.1881 63.778 75.4444 69.2158 70.0829C72.9688 66.4417 75.949 62.0811 77.9783 57.2619C80.0077 52.4427 81.0445 47.2637 81.0268 42.0347C81.0185 20.2463 62.8768 1.87126 41.3969 1.87126Z" fill="black"/>
<path d="M43.6849 97.1851C43.5623 97.1846 43.441 97.1599 43.328 97.1125C43.2149 97.065 43.1123 96.9958 43.026 96.9087C42.9397 96.8216 42.8714 96.7184 42.825 96.6049C42.7786 96.4915 42.755 96.37 42.7555 96.2474C42.8431 74.6132 55.4502 50.2076 57.9757 45.5356C59.4636 42.7892 60.0303 40.5345 59.7136 38.6799C59.2468 35.9251 57.8423 34.1539 55.546 33.412C53.4671 32.7871 51.2271 32.9902 49.2945 33.9788C52.1035 36.8962 53.9873 41.5889 52.762 45.8732C52.529 46.6986 52.0617 47.4386 51.4167 48.0037C50.7717 48.5688 49.9766 48.9348 49.1279 49.0573C48.0991 49.2194 47.0455 49.0888 46.0875 48.6805C45.1294 48.2723 44.3055 47.6027 43.71 46.7484C42.6597 45.2481 41.4011 41.8598 44.7393 35.9584C45.165 35.195 45.6937 34.4939 46.3105 33.8746L46.1938 33.7955C45.1562 33.1433 43.9854 32.7324 42.7678 32.5932C41.5502 32.454 40.3169 32.5899 39.1589 32.9911C38.4456 33.2606 37.7769 33.6357 37.1751 34.1039C40.1633 36.3585 41.6469 41.9307 41.0093 45.0856C40.5175 47.5403 39.0797 49.2948 37.0709 49.8991C36.2257 50.1515 35.3276 50.1685 34.4735 49.9481C33.6194 49.7278 32.8416 49.2786 32.2239 48.6488C30.4694 46.8901 30.0484 43.9603 31.0695 40.6054C31.6643 38.4819 32.6416 36.4848 33.9535 34.7123C29.6067 33.6079 26.5893 35.6917 25.7641 37.7338C25.2816 38.981 25.115 40.3281 25.2794 41.6551C25.4437 42.9822 25.9338 44.248 26.706 45.3398C30.4069 50.6368 39.0672 66.0987 39.4881 95.2263C39.4903 95.349 39.4682 95.471 39.423 95.5852C39.3778 95.6993 39.3105 95.8034 39.2248 95.8913C39.1392 95.9793 39.0369 96.0494 38.924 96.0977C38.8112 96.1459 38.6898 96.1713 38.5671 96.1724C38.3212 96.1724 38.0852 96.0759 37.9098 95.9036C37.7344 95.7314 37.6337 95.4971 37.6293 95.2513C37.2126 66.6447 28.7898 51.5662 25.1848 46.4108C24.2256 45.0671 23.6185 43.5045 23.4191 41.8656C23.2196 40.2268 23.434 38.5641 24.0429 37.0295C25.4057 33.662 29.9651 31.3824 35.3663 33.1786C36.2819 32.3284 37.3531 31.6633 38.5212 31.2198C39.9495 30.7203 41.4721 30.5489 42.9757 30.7185C44.4793 30.888 45.9254 31.3941 47.2065 32.1992C47.4233 32.3368 47.6233 32.4826 47.8484 32.641C49.083 31.8998 50.4588 31.4245 51.8877 31.2458C53.3165 31.0671 54.767 31.1889 56.1461 31.6033C59.1218 32.5618 61.0014 34.8873 61.589 38.3381C61.9808 40.6637 61.3682 43.2226 59.6511 46.3984C57.1506 50.9828 44.7394 75.0425 44.6477 96.2224C44.6517 96.3499 44.6295 96.4769 44.5826 96.5955C44.5357 96.7142 44.4649 96.8219 44.3747 96.9121C44.2845 97.0023 44.1767 97.0731 44.0581 97.1201C43.9394 97.167 43.8124 97.1892 43.6849 97.1851ZM35.7664 35.4333C34.4022 37.1272 33.4007 39.0834 32.8241 41.1805C31.9905 43.8519 32.2656 46.1024 33.5159 47.3569C33.8945 47.7469 34.3737 48.0246 34.9003 48.1592C35.427 48.2938 35.9806 48.2801 36.4999 48.1196C37.8252 47.7028 38.7879 46.4859 39.1422 44.7313C39.6715 42.0974 38.2378 36.9753 35.7664 35.4333ZM47.74 35.0791C47.1833 35.6046 46.7098 36.2116 46.3355 36.8795C43.5015 41.8806 44.4143 44.5396 45.2061 45.6732C45.6018 46.2403 46.1486 46.685 46.7843 46.9568C47.4201 47.2287 48.1194 47.3167 48.8028 47.211C49.303 47.1465 49.7731 46.9362 50.1548 46.6064C50.5364 46.2767 50.8127 45.842 50.9491 45.3565C51.9785 41.7515 50.2573 37.5796 47.74 35.0791Z" fill="black"/>
<path d="M59.9846 68.1032C59.7814 68.1044 59.5833 68.0393 59.4205 67.9177C59.2576 67.7962 59.1389 67.6247 59.0823 67.4295C59.0257 67.2343 59.0344 67.026 59.107 66.8362C59.1796 66.6464 59.3121 66.4854 59.4845 66.3778C63.0308 64.1322 66.0995 61.2096 68.5151 57.777C70.9308 54.3444 72.6461 50.4692 73.5627 46.3731C73.618 46.1305 73.7674 45.9198 73.978 45.7873C74.0823 45.7217 74.1986 45.6773 74.32 45.6566C74.4415 45.6359 74.5658 45.6394 74.686 45.6668C74.8061 45.6941 74.9196 45.7449 75.0201 45.8161C75.1207 45.8874 75.2062 45.9777 75.2718 46.082C75.3374 46.1863 75.3818 46.3025 75.4025 46.424C75.4232 46.5454 75.4197 46.6698 75.3923 46.7899C74.421 51.1272 72.6044 55.2305 70.0465 58.8653C67.4886 62.5002 64.2395 65.5954 60.4848 67.974C60.333 68.062 60.16 68.1067 59.9846 68.1032Z" fill="black"/>
<path d="M16.3662 63.4688C16.2337 63.4687 16.1028 63.4404 15.9821 63.3858C15.8613 63.3312 15.7536 63.2515 15.6661 63.152C12.2441 59.293 9.75667 54.698 8.39643 49.7229C7.03619 44.7478 6.83971 39.5263 7.82221 34.4631C8.80471 29.3999 10.9398 24.6308 14.0621 20.5256C17.1843 16.4203 21.2099 13.089 25.8268 10.7899C25.9375 10.7182 26.0621 10.6706 26.1924 10.6503C26.3228 10.63 26.456 10.6375 26.5833 10.6722C26.7106 10.7068 26.8291 10.768 26.9311 10.8516C27.0332 10.9353 27.1164 11.0395 27.1754 11.1575C27.2344 11.2755 27.2678 11.4046 27.2735 11.5365C27.2792 11.6683 27.257 11.7998 27.2084 11.9224C27.1598 12.0451 27.0858 12.1561 26.9914 12.2482C26.8969 12.3403 26.7841 12.4115 26.6603 12.457C22.3014 14.6289 18.501 17.7753 15.5537 21.6522C12.6064 25.5292 10.5912 30.0326 9.66437 34.8136C8.7375 39.5947 8.92382 44.5249 10.2089 49.2223C11.4939 53.9198 13.8432 58.2583 17.0747 61.9018C17.1958 62.036 17.2752 62.2025 17.3035 62.381C17.3317 62.5596 17.3075 62.7425 17.2338 62.9075C17.1601 63.0726 17.0401 63.2127 16.8883 63.3108C16.7365 63.409 16.5595 63.461 16.3787 63.4604L16.3662 63.4688Z" fill="black"/>
<path d="M43.9684 107.112C43.7367 107.107 43.5151 107.016 43.3464 106.858C43.1776 106.699 43.0736 106.483 43.0545 106.252C43.0353 106.021 43.1023 105.791 43.2426 105.607C43.3829 105.423 43.5865 105.297 43.8142 105.253C45.1305 105.031 46.434 104.739 47.7193 104.378C47.8379 104.342 47.9625 104.331 48.0858 104.343C48.209 104.356 48.3285 104.394 48.4372 104.453C48.546 104.513 48.6417 104.593 48.7189 104.69C48.7962 104.787 48.8534 104.898 48.8871 105.018C48.9209 105.137 48.9305 105.262 48.9156 105.385C48.9006 105.508 48.8613 105.627 48.7999 105.734C48.7385 105.842 48.6563 105.936 48.5581 106.012C48.4598 106.087 48.3475 106.143 48.2277 106.174C46.8791 106.554 45.5116 106.863 44.1309 107.1L43.9684 107.112Z" fill="#F8F8F8"/>
<path d="M37.6752 114.781C37.4277 114.781 37.1902 114.682 37.0151 114.507C36.8401 114.332 36.7417 114.095 36.7417 113.847C36.7417 113.6 36.8401 113.362 37.0151 113.187C37.1902 113.012 37.4277 112.914 37.6752 112.914C40.7301 112.885 45.2145 112.459 49.2113 110.588C49.4343 110.495 49.6848 110.491 49.9103 110.578C50.1359 110.665 50.3192 110.836 50.4219 111.055C50.5246 111.274 50.5388 111.524 50.4616 111.753C50.3843 111.982 50.2216 112.172 50.0073 112.284C45.7021 114.297 40.9343 114.756 37.6919 114.785L37.6752 114.781Z" fill="#F8F8F8"/>
</g>
<defs>
<clipPath id="clip0_72_134">
<rect width="82.89" height="122.003" fill="white"/>
</clipPath>
</defs>
</svg>
