<svg width="195" height="136" viewBox="0 0 195 136" fill="none" xmlns="http://www.w3.org/2000/svg">
<g clip-path="url(#clip0_75_161)">
<path d="M113.661 90.719C121.965 59.7094 103.7 27.8784 72.8672 19.6224C42.034 11.3664 10.3077 29.8119 2.00447 60.8214C-6.29872 91.831 11.9655 123.662 42.7987 131.918C73.6319 140.174 105.358 121.729 113.661 90.719Z" fill="black"/>
<path d="M119.611 97.0605C130.659 66.9195 115.32 33.5802 85.35 22.5951C55.3804 11.61 22.1291 27.1389 11.0812 57.2799C0.033271 87.4209 15.3723 120.76 45.3419 131.745C75.3115 142.73 108.563 127.201 119.611 97.0605Z" fill="#F8F8F8"/>
<path d="M35.2803 127.712C7.59134 111.164 -1.44572 75.0185 15.128 47.1628C19.043 40.5352 24.2274 34.7452 30.384 30.1247C36.5406 25.5041 43.5484 22.1438 51.0059 20.2362C58.4635 18.3286 66.2241 17.9113 73.8432 19.0082C81.4622 20.1051 88.79 22.6945 95.4066 26.6283C123.093 43.1761 132.133 79.3099 115.556 107.177C110.35 115.943 102.957 123.206 94.0993 128.254C85.242 133.301 75.225 135.961 65.0301 135.973C54.5481 135.966 44.265 133.11 35.2803 127.712ZM51.5837 21.5147C44.2529 23.3538 37.3602 26.6305 31.3059 31.1548C25.2515 35.679 20.156 41.3606 16.3151 47.8699C0.129441 75.0846 8.95667 110.373 35.9759 126.525C42.387 130.378 49.4999 132.92 56.9015 134.001C64.3031 135.083 71.8458 134.683 79.0916 132.825C86.4223 130.987 93.3148 127.71 99.3692 123.187C105.424 118.663 110.519 112.982 114.36 106.473C130.549 79.2553 121.722 43.9723 94.688 27.8154C85.9185 22.5525 75.8842 19.7707 65.6567 19.7671C60.9115 19.7657 56.1845 20.3527 51.5837 21.5147Z" fill="black"/>
<path d="M33.8288 94.938C33.9443 94.9384 34.0579 94.9098 34.1594 94.8547L64.165 78.5943C65.2887 77.988 66.138 76.9751 66.5393 75.763L74.6537 51.3624C74.7116 51.1886 74.6981 50.9989 74.6162 50.835C74.5342 50.6711 74.3906 50.5465 74.2168 50.4886C74.0429 50.4306 73.8532 50.4441 73.6894 50.5261C73.5255 50.608 73.4009 50.7517 73.3429 50.9255L65.2286 75.3261C64.9368 76.2053 64.3198 76.9396 63.5039 77.3784L33.5011 93.6388C33.3671 93.7127 33.2614 93.829 33.2004 93.9693C33.1394 94.1097 33.1267 94.2663 33.1641 94.4147C33.2015 94.5631 33.287 94.695 33.4073 94.7896C33.5276 94.8843 33.6758 94.9365 33.8288 94.938Z" fill="black"/>
<path d="M86.0563 35.7344C85.6854 36.3624 85.5089 37.0862 85.5491 37.8144C85.5892 38.5426 85.8442 39.2426 86.2819 39.826C86.7195 40.4094 87.3202 40.85 88.0081 41.0923C88.696 41.3346 89.4403 41.3676 90.1469 41.1872C90.8536 41.0069 91.491 40.6212 91.9786 40.0788C92.4662 39.5365 92.7823 38.8619 92.8868 38.1401C92.9913 37.4183 92.8796 36.6817 92.5659 36.0234C92.2521 35.365 91.7503 34.8143 91.1238 34.4409C90.2793 33.9446 89.2729 33.8021 88.3237 34.0443C87.3746 34.2866 86.5596 34.894 86.0563 35.7344Z" fill="black"/>
<path d="M109.124 56.108C109.829 54.1835 108.848 52.0553 106.934 51.3545C105.02 50.6536 102.898 51.6456 102.193 53.5701C101.488 55.4946 102.469 57.6228 104.383 58.3236C106.297 59.0245 108.42 58.0325 109.124 56.108Z" fill="black"/>
<path d="M114.4 78.8741C115.105 76.9497 114.125 74.8213 112.211 74.1201C110.297 73.419 108.174 74.4106 107.469 76.335C106.764 78.2593 107.744 80.3877 109.658 81.0889C111.572 81.79 113.695 80.7984 114.4 78.8741Z" fill="black"/>
<path d="M106.522 97.8212C105.892 97.4418 105.165 97.2577 104.431 97.2922C103.697 97.3267 102.99 97.5783 102.399 98.015C101.809 98.4518 101.361 99.0541 101.113 99.7456C100.864 100.437 100.827 101.187 101.005 101.899C101.184 102.612 101.57 103.256 102.114 103.749C102.659 104.242 103.337 104.563 104.064 104.67C104.791 104.777 105.533 104.666 106.197 104.351C106.86 104.036 107.416 103.531 107.792 102.9C108.043 102.483 108.209 102.021 108.281 101.54C108.353 101.059 108.329 100.569 108.211 100.097C108.093 99.6252 107.883 99.1812 107.593 98.7907C107.303 98.4002 106.939 98.0707 106.522 97.8212Z" fill="black"/>
<path d="M90.5247 118.43C91.2303 116.506 90.251 114.377 88.3373 113.675C86.4236 112.974 84.3002 113.965 83.5946 115.889C82.8889 117.813 83.8682 119.941 85.7819 120.643C87.6956 121.345 89.819 120.354 90.5247 118.43Z" fill="black"/>
<path d="M67.4019 124.159C68.1072 122.235 67.1276 120.106 65.2138 119.405C63.3 118.703 61.1767 119.695 60.4714 121.619C59.7661 123.543 60.7458 125.672 62.6596 126.373C64.5734 127.075 66.6966 126.083 67.4019 124.159Z" fill="black"/>
<path d="M44.5618 117.54C45.2674 115.616 44.2881 113.487 42.3744 112.785C40.4607 112.084 38.3373 113.074 37.6317 114.998C36.926 116.923 37.9054 119.051 39.819 119.753C41.7327 120.455 43.8561 119.464 44.5618 117.54Z" fill="black"/>
<path d="M28.1223 100.333C28.828 98.4094 27.8487 96.2806 25.935 95.5788C24.0213 94.877 21.8979 95.8678 21.1922 97.792C20.4866 99.7161 21.4659 101.845 23.3796 102.547C25.2933 103.248 27.4167 102.258 28.1223 100.333Z" fill="black"/>
<path d="M22.8526 77.569C23.5569 75.6444 22.5761 73.5163 20.662 72.8158C18.7478 72.1153 16.6251 73.1077 15.9208 75.0323C15.2165 76.9569 16.1973 79.0849 18.1114 79.7854C20.0256 80.4859 22.1483 79.4936 22.8526 77.569Z" fill="black"/>
<path d="M24.1649 56.5189C24.794 56.8993 25.522 57.0842 26.2564 57.0503C26.9908 57.0163 27.6985 56.765 28.2899 56.3281C28.8812 55.8913 29.3294 55.2887 29.5777 54.5967C29.826 53.9047 29.8632 53.1546 29.6845 52.4415C29.5058 51.7283 29.1193 51.0843 28.5741 50.5912C28.0288 50.0981 27.3494 49.778 26.6219 49.6716C25.8945 49.5652 25.1519 49.6773 24.4882 49.9937C23.8246 50.31 23.2699 50.8164 22.8944 51.4485C22.6442 51.8646 22.4786 52.3261 22.407 52.8063C22.3354 53.2866 22.3593 53.7763 22.4774 54.2473C22.5954 54.7184 22.8052 55.1615 23.0948 55.5513C23.3844 55.9411 23.748 56.2699 24.1649 56.5189Z" fill="black"/>
<path d="M46.7367 38.03C47.4427 36.106 46.4638 33.9771 44.5502 33.2749C42.6367 32.5728 40.5131 33.5633 39.8071 35.4872C39.1011 37.4112 40.0801 39.5402 41.9936 40.2423C43.9072 40.9445 46.0308 39.954 46.7367 38.03Z" fill="black"/>
<path d="M69.8547 32.2796C70.5594 30.3551 69.579 28.2269 67.6649 27.5261C65.7508 26.8253 63.628 27.8172 62.9233 29.7417C62.2187 31.6662 63.1991 33.7944 65.1132 34.4953C67.0272 35.1961 69.1501 34.2041 69.8547 32.2796Z" fill="black"/>
<path d="M152.946 42.2994C167.318 55.8694 173.118 70.9915 171.856 98.6028C176.59 89.744 178.884 82.903 178.979 75.1967L186.915 81.9803C188.605 74.7598 188.962 65.7027 184.006 58.922L194.19 66.3954C191.115 52.9663 189.269 28.6806 162.661 33.9149L152.946 42.2994Z" fill="#F8F8F8"/>
<path d="M171.856 99.2381C171.8 99.2375 171.744 99.2298 171.69 99.2151C171.551 99.1769 171.429 99.0927 171.344 98.9763C171.259 98.8599 171.215 98.7182 171.221 98.5741C172.44 71.9228 167.37 56.7978 152.509 42.7594C152.445 42.6984 152.394 42.6247 152.36 42.5431C152.326 42.4614 152.309 42.3736 152.311 42.2851C152.313 42.1966 152.334 42.1096 152.371 42.0295C152.409 41.9494 152.463 41.8779 152.529 41.8194L162.245 33.409C162.327 33.3384 162.426 33.289 162.532 33.2653C187.091 28.4507 191.181 48.5915 193.891 61.9229C194.202 63.452 194.495 64.8978 194.803 66.2344C194.831 66.3606 194.82 66.4923 194.772 66.6122C194.723 66.7321 194.639 66.8343 194.531 66.9052C194.423 66.9761 194.296 67.0124 194.167 67.0091C194.038 67.0058 193.912 66.9632 193.808 66.8869L186.211 61.3279C189.646 68.1373 188.902 76.2143 187.528 82.1183C187.503 82.2246 187.452 82.3228 187.379 82.4035C187.305 82.4842 187.212 82.5445 187.109 82.5786C187.005 82.6128 186.895 82.6195 186.788 82.5983C186.681 82.5771 186.581 82.5285 186.499 82.4574L179.568 76.5333C179.255 83.475 177.128 90.0688 172.411 98.896C172.358 98.9976 172.278 99.083 172.181 99.1432C172.083 99.2034 171.971 99.2362 171.856 99.2381ZM153.889 42.3253C167.947 55.8349 173.305 71.0691 172.595 95.7888C176.576 87.8469 178.263 81.7302 178.344 75.1795C178.346 75.0591 178.382 74.9418 178.448 74.8411C178.514 74.7405 178.607 74.6606 178.717 74.6109C178.826 74.5612 178.948 74.5437 179.067 74.5604C179.186 74.5771 179.298 74.6273 179.39 74.7052L186.524 80.8047C187.864 74.412 188.278 65.832 183.495 59.2957C183.406 59.1735 183.364 59.0238 183.376 58.8734C183.388 58.7231 183.453 58.5818 183.56 58.475C183.666 58.3682 183.807 58.3027 183.958 58.2904C184.108 58.278 184.258 58.3195 184.38 58.4075L193.204 64.8806C193.021 64.0183 192.837 63.1071 192.647 62.1758C189.887 48.6001 186.111 30.0258 162.943 34.4783L153.889 42.3253Z" fill="black"/>
<path d="M102.216 25.1048C83.1528 30.3908 70.9281 41.0432 59.1 66.036C59.0684 55.9958 60.2497 48.8788 63.7823 42.0234L53.5869 44.3229C55.4898 37.1571 59.4162 28.9795 66.9729 25.3089L54.4751 27.1427C63.4949 16.7058 76.5159 -3.9006 97.5908 13.1445L102.216 25.1048Z" fill="#F8F8F8"/>
<path d="M59.0914 66.6827C59.0441 66.6837 58.9967 66.6789 58.9506 66.6683C58.8101 66.6369 58.6846 66.5586 58.5947 66.4462C58.5049 66.3339 58.456 66.1942 58.4562 66.0503C58.4274 56.0504 59.6433 49.2295 62.6183 42.9489L53.7077 44.961C53.6014 44.9851 53.4906 44.9813 53.3861 44.95C53.2817 44.9186 53.1871 44.8608 53.1116 44.7821C53.0361 44.7034 52.9823 44.6066 52.9553 44.5009C52.9282 44.3953 52.929 44.2844 52.9575 44.1792C54.5125 38.3212 57.6427 30.8392 63.8801 26.4241L54.5643 27.7894C54.436 27.8089 54.3049 27.7884 54.1887 27.7308C54.0725 27.6732 53.9769 27.5813 53.9147 27.4675C53.8528 27.3538 53.8268 27.224 53.8402 27.0952C53.8535 26.9664 53.9055 26.8447 53.9894 26.746C54.8919 25.7055 55.829 24.5644 56.8235 23.3571C65.4668 12.811 78.5309 -3.08142 97.9732 12.6443C98.0593 12.713 98.1258 12.8032 98.1658 12.9059L102.808 24.8748C102.84 24.9576 102.854 25.0461 102.849 25.1346C102.845 25.2232 102.822 25.3098 102.782 25.3891C102.743 25.4683 102.687 25.5384 102.618 25.5949C102.55 25.6513 102.471 25.6929 102.385 25.717C82.6671 31.1783 71.0891 42.1843 59.6634 66.3062C59.614 66.417 59.5339 66.5114 59.4325 66.5781C59.3311 66.6448 59.2128 66.6811 59.0914 66.6827ZM63.7738 41.3881C63.8834 41.3859 63.9917 41.4121 64.0881 41.4643C64.1845 41.5165 64.2657 41.5929 64.3237 41.686C64.3816 41.779 64.4144 41.8855 64.4188 41.9951C64.4232 42.1046 64.399 42.2134 64.3487 42.3108C61.3478 48.1372 59.9681 54.3315 59.7496 63.2076C70.724 41.0145 82.6039 30.0631 101.368 24.6909L97.0448 13.5239C78.6487 -1.23031 66.605 13.4262 57.8008 24.1332C57.1943 24.8691 56.6108 25.5704 56.0388 26.2631L66.8724 24.6736C67.0217 24.6532 67.1734 24.6866 67.3004 24.7677C67.4274 24.8489 67.5214 24.9725 67.5656 25.1166C67.6098 25.2607 67.6014 25.4158 67.5418 25.5542C67.4822 25.6926 67.3753 25.8053 67.2403 25.8722C59.9451 29.4163 56.286 37.1915 54.4723 43.4634L63.6358 41.4054C63.6809 41.3941 63.7273 41.3883 63.7738 41.3881Z" fill="black"/>
<path d="M126.22 85.191C149.716 85.191 168.764 66.1899 168.764 42.7508C168.764 19.3117 149.716 0.310547 126.22 0.310547C102.724 0.310547 83.6763 19.3117 83.6763 42.7508C83.6763 66.1899 102.724 85.191 126.22 85.191Z" fill="black"/>
<path d="M128.229 83.0007C151.028 83.0007 169.511 64.5632 169.511 41.8195C169.511 19.0757 151.028 0.638184 128.229 0.638184C105.43 0.638184 86.9473 19.0757 86.9473 41.8195C86.9473 64.5632 105.43 83.0007 128.229 83.0007Z" fill="#F8F8F8"/>
<path d="M128.243 83.6416C125.826 83.6405 123.413 83.4318 121.032 83.0179C115.615 82.0832 110.437 80.0902 105.791 77.153C101.146 74.2157 97.1246 70.3917 93.9578 65.8995C90.7911 61.4074 88.5407 56.3351 87.3353 50.9727C86.1299 45.6104 85.9931 40.063 86.9328 34.6478C90.8965 11.9315 112.644 -3.32857 135.429 0.623708C140.845 1.5594 146.023 3.55306 150.667 6.49077C155.312 9.42847 159.332 13.2526 162.498 17.7447C165.663 22.2367 167.913 27.3086 169.118 32.6705C170.323 38.0324 170.459 43.5792 169.519 48.9938C165.978 69.2927 148.232 83.6416 128.243 83.6416ZM128.2 1.27044C108.818 1.27044 91.6123 15.1796 88.1774 34.8662C87.2661 40.1165 87.3984 45.4948 88.5667 50.6939C89.7349 55.8931 91.9163 60.811 94.9861 65.1666C98.056 69.5223 101.954 73.2303 106.458 76.0788C110.961 78.9273 115.982 80.8603 121.233 81.7675C123.542 82.1691 125.882 82.371 128.226 82.3711C147.608 82.3711 164.814 68.462 168.252 48.7754C169.163 43.5253 169.031 38.1471 167.863 32.9482C166.695 27.7493 164.514 22.8314 161.444 18.4758C158.375 14.1202 154.477 10.4121 149.974 7.5635C145.47 4.71489 140.45 2.78159 135.199 1.87406C132.89 1.4725 130.55 1.27054 128.206 1.27044H128.2Z" fill="black"/>
<path d="M128.229 76.3781C147.361 76.3781 162.871 60.9057 162.871 41.8194C162.871 22.7332 147.361 7.26074 128.229 7.26074C109.097 7.26074 93.5869 22.7332 93.5869 41.8194C93.5869 60.9057 109.097 76.3781 128.229 76.3781Z" fill="#F8F8F8"/>
<path d="M153.702 65.8837C153.578 65.8836 153.458 65.8474 153.354 65.7798C153.251 65.7121 153.17 65.6158 153.12 65.5027C153.071 65.3896 153.056 65.2645 153.076 65.1428C153.097 65.0211 153.152 64.908 153.236 64.8173C155.433 62.4393 157.277 59.7579 158.712 56.8553C158.75 56.7798 158.802 56.7125 158.866 56.6572C158.929 56.6019 159.003 56.5597 159.083 56.533C159.164 56.5063 159.248 56.4956 159.332 56.5016C159.416 56.5076 159.499 56.5301 159.574 56.5679C159.65 56.6056 159.717 56.6578 159.772 56.7216C159.828 56.7854 159.87 56.8594 159.896 56.9395C159.923 57.0196 159.934 57.1041 159.928 57.1883C159.922 57.2725 159.899 57.3547 159.862 57.4302C158.369 60.4425 156.452 63.2246 154.167 65.6911C154.107 65.7532 154.034 65.8022 153.954 65.8353C153.874 65.8685 153.788 65.8849 153.702 65.8837Z" fill="black"/>
<path d="M161.54 32.9403C161.402 32.9405 161.268 32.8957 161.158 32.8127C161.048 32.7297 160.968 32.613 160.931 32.4804C159.188 26.336 155.739 20.8118 150.983 16.5492C146.227 12.2866 140.359 9.46043 134.061 8.39884C128.795 7.49519 123.391 7.83694 118.281 9.39672C113.171 10.9565 108.497 13.691 104.633 17.3813C104.573 17.4388 104.502 17.484 104.425 17.5142C104.347 17.5445 104.265 17.5591 104.182 17.5574C104.098 17.5556 104.016 17.5375 103.94 17.5041C103.864 17.4707 103.795 17.4226 103.738 17.3626C103.68 17.3026 103.635 17.2318 103.605 17.1543C103.575 17.0769 103.56 16.9942 103.562 16.911C103.563 16.8279 103.581 16.7459 103.615 16.6698C103.648 16.5936 103.696 16.5248 103.756 16.4672C108.142 12.254 113.542 9.24453 119.432 7.73012C125.322 6.21571 131.503 6.24768 137.377 7.82295C143.251 9.39822 148.619 12.4634 152.961 16.7218C157.303 20.9801 160.472 26.2874 162.161 32.1297C162.188 32.2242 162.192 32.3235 162.174 32.4199C162.156 32.5163 162.116 32.6072 162.057 32.6857C161.998 32.7641 161.922 32.8278 161.834 32.872C161.746 32.9162 161.65 32.9395 161.552 32.9403H161.54Z" fill="black"/>
<path d="M122.285 76.5016C122.249 76.5044 122.212 76.5044 122.176 76.5016C116.117 75.4633 110.437 72.8556 105.7 68.9383C100.964 65.021 97.3365 59.9309 95.1798 54.1752C93.023 48.4194 92.4122 42.199 93.4082 36.1336C94.4042 30.0683 96.9722 24.3698 100.856 19.6061C100.907 19.5364 100.972 19.4778 101.046 19.4339C101.12 19.39 101.203 19.3616 101.288 19.3506C101.374 19.3396 101.461 19.3462 101.544 19.3699C101.627 19.3936 101.704 19.4339 101.771 19.4885C101.838 19.543 101.893 19.6106 101.933 19.6871C101.973 19.7636 101.996 19.8475 102.003 19.9335C102.009 20.0196 101.998 20.106 101.97 20.1876C101.942 20.2692 101.897 20.3442 101.839 20.408C98.1014 25.0013 95.6312 30.4933 94.6745 36.3377C93.7179 42.182 94.3081 48.175 96.3865 53.7204C98.4649 59.2658 101.959 64.1704 106.521 67.9463C111.084 71.7222 116.555 74.2377 122.391 75.2426C122.545 75.2721 122.683 75.3577 122.778 75.4827C122.873 75.6078 122.918 75.7636 122.905 75.9199C122.891 76.0763 122.821 76.2223 122.706 76.3297C122.592 76.4371 122.442 76.4983 122.285 76.5016Z" fill="black"/>
<path d="M120.9 65.3146L121.877 59.7182C117.95 58.8559 114.297 57.1312 112.279 55.4411L115.254 48.8616C117.972 51.0395 121.184 52.5143 124.608 53.156C127.973 53.7308 130.503 52.8455 130.914 50.4885C131.305 48.2494 129.661 46.5075 125.547 44.2741C119.597 41.0548 115.8 37.3612 116.798 31.647C117.703 26.4731 122.075 23.0238 128.612 22.8916L129.589 17.2952L135.375 18.3012L134.47 23.4751C138.396 24.3374 140.911 25.6251 142.696 26.9071L139.822 33.2652C138.399 32.3512 135.918 30.5231 131.664 29.7844C127.827 29.1175 126.298 30.5518 126.01 32.2017C125.671 34.1477 127.522 35.7429 132.213 38.4995C138.824 42.1959 141.078 45.9298 140.152 51.233C139.238 56.4759 134.737 60.3074 127.738 60.3045L126.689 66.3149L120.9 65.3146Z" fill="black"/>
</g>
<defs>
<clipPath id="clip0_75_161">
<rect width="194.826" height="135.97" fill="white"/>
</clipPath>
</defs>
</svg>
